{
.appVersion = "1349";
classes = (
{
automatic = 1;

glyphs = (
{
color = 6;
glyphname = A;
layers = (
{
anchors = (
{
name = bottom;
position = "{342, 0}";
},
{
name = ogonek;
position = "{643, 0}";
},
{
name = top;
position = "{342, 688}";
}
);
layerId = UUID0;
paths = (
{
closed = 1;
nodes = (
"78 0 LINE",
"169 222 LINE",
"513 222 LINE",
"604 0 LINE",
"643 0 LINE",
"359 688 LINE",
"324 688 LINE",
"40 0 LINE"
);
},
{
closed = 1;
nodes = (
"339 637 LINE",
"344 637 LINE",
"499 256 LINE",
"183 256 LINE"
);
}
);
width = 683;
},
{
anchors = (
{
name = bottom;
position = "{349, 0}";
},
{
name = ogonek;
position = "{702, 0}";
},
{
name = top;
position = "{349, 688}";
}
);
layerId = "4F93A97B-747D-4721-B098-38A63C534D7A";
paths = (
{
closed = 1;
nodes = (
"222 0 LINE",
"246 103 LINE",
"445 103 LINE",
"470 0 LINE",
"702 0 LINE",
"511 688 LINE",
"186 688 LINE",
"-5 0 LINE"
);
},
{
closed = 1;
nodes = (
"340 500 LINE",
"349 500 LINE",
"406 263 LINE",
"284 263 LINE"
);
}
);
width = 697;
},
{
anchors = (
{
name = bottom;
position = "{247, 0}";
},
{
name = ogonek;
position = "{467, 0}";
},
{
name = top;
position = "{247, 688}";
}
);
layerId = "E6BBBBE7-ECAD-4929-840D-43673C7BDEAF";
paths = (
{
closed = 1;
nodes = (
"63 0 LINE",
"126 219 LINE",
"366 219 LINE",
"429 0 LINE",
"467 0 LINE",
"266 688 LINE",
"227 688 LINE",
"27 0 LINE"
);
},
{
closed = 1;
nodes = (
"244 624 LINE",
"249 624 LINE",
"356 253 LINE",
"136 253 LINE"
);
}
);
width = 494;
},
{
anchors = (
{
name = bottom;
position = "{259, 0}";
},
{
name = ogonek;
position = "{516, 0}";
},
{
name = top;
position = "{259, 688}";
}
);
layerId = "7836D3B9-397C-42C1-8084-A98A44B9119A";
paths = (
{
closed = 1;
nodes = (
"178 0 LINE",
"194 117 LINE",
"319 117 LINE",
"335 0 LINE",
"516 0 LINE",
"390 688 LINE",
"127 688 LINE",
"1 0 LINE"
);
},
{
closed = 1;
nodes = (
"253 529 LINE",
"260 529 LINE",
"297 260 LINE",
"216 260 LINE"
);
}
);
width = 517;
},
{
anchors = (
{
name = bottom;
position = "{248, 0}";
},
{
name = ogonek;
position = "{481, 0}";
},
{
name = top;
position = "{248, 688}";
}
);
layerId = "374FF654-0B40-45EE-AE97-0DEB7620D1EC";
paths = (
{
closed = 1;
nodes = (
"108 0 LINE",
"149 176 LINE",
"343 176 LINE",
"385 0 LINE",
"481 0 LINE",
"313 688 LINE",
"183 688 LINE",
"14 0 LINE"
);
},
{
closed = 1;
nodes = (
"243 586 LINE",
"249 586 LINE",
"324 257 LINE",
"168 257 LINE"
);
}
);
width = 495;
},
{
anchors = (
{
name = bottom;
position = "{342, 0}";
},
{
name = ogonek;
position = "{666, 0}";
},
{
name = top;
position = "{342, 688}";
}
);
layerId = "E7A95A6A-7487-49EE-B62A-BA87B06E4B57";
paths = (
{
closed = 1;
nodes = (
"147 0 LINE",
"200 160 LINE",
"480 160 LINE",
"534 0 LINE",
"666 0 LINE",
"427 688 LINE",
"257 688 LINE",
"18 0 LINE"
);
},
{
closed = 1;
nodes = (
"337 568 LINE",
"342 568 LINE",
"443 268 LINE",
"236 268 LINE"
);
}
);
width = 684;
},
{
anchors = (
{
name = bottom;
position = "{173, 0}";
},
{
name = ogonek;
position = "{334, 0}";
},
{
name = top;
position = "{173, 688}";
}
);
layerId = "487ADAF7-57C4-4091-879E-1D750F439591";
paths = (
{
closed = 1;
nodes = (
"87 0 LINE",
"115 184 LINE",
"226 184 LINE",
"254 0 LINE",
"334 0 LINE",
"229 688 LINE",
"116 688 LINE",
"11 0 LINE"
);
},
{
closed = 1;
nodes = (
"169 586 LINE",
"173 586 LINE",
"215 252 LINE",
"126 252 LINE"
);
}
);
width = 345;
},
{
anchors = (
{
name = bottom;
position = "{178, 0}";
},
{
name = ogonek;
position = "{349, 0}";
},
{
name = top;
position = "{178, 688}";
}
);
layerId = "7674DAFD-136A-491A-A3F0-195DB056B53F";
paths = (
{
closed = 1;
nodes = (
"140 0 LINE",
"149 134 LINE",
"206 134 LINE",
"214 0 LINE",
"349 0 LINE",
"282 688 LINE",
"73 688 LINE",
"6 0 LINE"
);
},
{
closed = 1;
nodes = (
"174 563 LINE",
"181 563 LINE",
"200 258 LINE",
"155 258 LINE"
);
}
);
width = 355;
},
{
anchors = (
{
name = bottom;
position = "{164, 0}";
},
{
name = ogonek;
position = "{312, 0}";
},
{
name = top;
position = "{164, 688}";
}
);
layerId = "B5B62657-8F5D-48EE-9125-14A639410D02";
paths = (
{
closed = 1;
nodes = (
"48 0 LINE",
"88 215 LINE",
"236 215 LINE",
"276 0 LINE",
"312 0 LINE",
"185 688 LINE",
"141 688 LINE",
"14 0 LINE"
);
},
{
closed = 1;
nodes = (
"161 624 LINE",
"164 624 LINE",
"230 249 LINE",
"94 249 LINE"
);
}
);
width = 327;
},
{
anchors = (
{
name = bottom;
position = "{403, 0}";
},
{
name = ogonek;
position = "{814, 0}";
},
{
name = top;
position = "{403, 688}";
}
);
layerId = "8EBCA172-37CB-4E59-A5FF-33FE92477777";
paths = (
{
closed = 1;
nodes = (
"248 0 LINE",
"276 95 LINE",
"522 95 LINE",
"551 0 LINE",
"814 0 LINE",
"584 688 LINE",
"221 688 LINE",
"-9 0 LINE"
);
},
{
closed = 1;
nodes = (
"394 500 LINE",
"404 500 LINE",
"472 265 LINE",
"325 265 LINE"
);
}
);
width = 805;
},
{
anchors = (
{
name = bottom;
position = "{399, 0}";
},
{
name = ogonek;
position = "{771, 0}";
},
{
name = top;
position = "{399, 688}";
}
);
layerId = "C6199351-AF36-494D-BF00-13EB6406F65F";
paths = (
{
closed = 1;
nodes = (
"152 0 LINE",
"224 168 LINE",
"566 168 LINE",
"636 0 LINE",
"771 0 LINE",
"477 688 LINE",
"321 688 LINE",
"26 0 LINE"
);
},
{
closed = 1;
nodes = (
"391 577 LINE",
"402 577 LINE",
"523 271 LINE",
"267 271 LINE"
);
}
);
width = 797;
},
{
anchors = (
{
name = bottom;
position = "{398, 0}";
},
{
name = ogonek;
position = "{749, 0}";
},
{
name = top;
position = "{398, 688}";
}
);
layerId = "E7639064-56EC-4BF1-BEDD-A20273C7A444";
paths = (
{
closed = 1;
nodes = (
"87 0 LINE",
"195 224 LINE",
"601 224 LINE",
"709 0 LINE",
"749 0 LINE",
"415 688 LINE",
"382 688 LINE",
"48 0 LINE"
);
},
{
closed = 1;
nodes = (
"396 645 LINE",
"401 645 LINE",
"585 258 LINE",
"211 258 LINE"
);
}
);
width = 796;
}
);
leftKerningGroup = A;
rightKerningGroup = A;
unicode = 0041;
},
{
color = 6;
glyphname = AE;
layers = (
{
anchors = (
{
name = bottom;
position = "{468, 0}";
},
{
name = top;
position = "{468, 688}";
}
);
layerId = UUID0;
paths = (
{
closed = 1;
nodes = (
"38 0 LINE",
"151 222 LINE",
"496 222 LINE",
"564 0 LINE",
"890 0 LINE",
"890 34 LINE",
"592 34 LINE",
"500 331 LINE",
"843 331 LINE",
"843 365 LINE",
"490 365 LINE",
"400 654 LINE",
"890 654 LINE",
"890 688 LINE",
"354 688 LINE",
"0 0 LINE"
);
},
{
closed = 1;
nodes = (
"364 637 LINE",
"369 637 LINE",
"485 256 LINE",
"169 256 LINE"
);
}
);
width = 947;
},
{
anchors = (
{
name = bottom;
position = "{490, 0}";
},
{
name = top;
position = "{490, 688}";
}
);
layerId = "4F93A97B-747D-4721-B098-38A63C534D7A";
paths = (
{
closed = 1;
nodes = (
"202 0 LINE",
"242 106 LINE",
"445 106 LINE",
"455 0 LINE",
"932 0 LINE",
"932 167 LINE",
"646 167 LINE",
"636 266 LINE",
"885 266 LINE",
"885 429 LINE",
"618 429 LINE",
"609 521 LINE",
"932 521 LINE",
"932 688 LINE",
"284 688 LINE",
"-25 0 LINE"
);
},
{
closed = 1;
nodes = (
"400 521 LINE",
"409 521 LINE",
"431 266 LINE",
"303 266 LINE"
);
}
);
width = 980;
},
{
anchors = (
{
name = bottom;
position = "{339, 0}";
},
{
name = top;
position = "{339, 688}";
}
);
layerId = "E6BBBBE7-ECAD-4929-840D-43673C7BDEAF";
paths = (
{
closed = 1;
nodes = (
"37 0 LINE",
"119 219 LINE",
"358 219 LINE",
"403 0 LINE",
"638 0 LINE",
"638 34 LINE",
"433 34 LINE",
"372 331 LINE",
"604 331 LINE",
"604 365 LINE",
"366 365 LINE",
"307 654 LINE",
"638 654 LINE",
"638 688 LINE",
"261 688 LINE",
"0 0 LINE"
);
},
{
closed = 1;
nodes = (
"272 624 LINE",
"277 624 LINE",
"351 253 LINE",
"131 253 LINE"
);
}
);
width = 677;
},
{
anchors = (
{
name = bottom;
position = "{348, 0}";
},
{
name = top;
position = "{348, 688}";
}
);
layerId = "7836D3B9-397C-42C1-8084-A98A44B9119A";
paths = (
{
closed = 1;
nodes = (
"159 0 LINE",
"183 118 LINE",
"312 118 LINE",
"321 0 LINE",
"662 0 LINE",
"662 148 LINE",
"480 148 LINE",
"468 274 LINE",
"637 274 LINE",
"637 421 LINE",
"454 421 LINE",
"443 540 LINE",
"662 540 LINE",
"662 688 LINE",
"163 688 LINE",
"-18 0 LINE"
);
},
{
closed = 1;
nodes = (
"272 536 LINE",
"279 536 LINE",
"301 261 LINE",
"215 261 LINE"
);
}
);
width = 696;
},
{
anchors = (
{
name = bottom;
position = "{345, 0}";
},
{
name = top;
position = "{345, 688}";
}
);
layerId = "374FF654-0B40-45EE-AE97-0DEB7620D1EC";
paths = (
{
closed = 1;
nodes = (
"86 0 LINE",
"142 176 LINE",
"336 176 LINE",
"362 0 LINE",
"642 0 LINE",
"642 82 LINE",
"445 82 LINE",
"410 306 LINE",
"611 306 LINE",
"611 388 LINE",
"397 388 LINE",
"363 606 LINE",
"642 606 LINE",
"642 688 LINE",
"221 688 LINE",
"-7 0 LINE"
);
},
{
closed = 1;
nodes = (
"272 587 LINE",
"277 587 LINE",
"325 257 LINE",
"168 257 LINE"
);
}
);
width = 680;
},
{
anchors = (
{
name = bottom;
position = "{481, 0}";
},
{
name = top;
position = "{481, 688}";
}
);
layerId = "E7A95A6A-7487-49EE-B62A-BA87B06E4B57";
paths = (
{
closed = 1;
nodes = (
"115 0 LINE",
"188 160 LINE",
"467 160 LINE",
"502 0 LINE",
"905 0 LINE",
"905 108 LINE",
"609 108 LINE",
"567 293 LINE",
"858 293 LINE",
"858 401 LINE",
"542 401 LINE",
"502 580 LINE",
"905 580 LINE",
"905 688 LINE",
"306 688 LINE",
"-13 0 LINE"
);
},
{
closed = 1;
nodes = (
"372 568 LINE",
"377 568 LINE",
"443 268 LINE",
"236 268 LINE"
);
}
);
width = 961;
},
{
anchors = (
{
name = bottom;
position = "{234, 0}";
},
{
name = top;
position = "{234, 688}";
}
);
layerId = "487ADAF7-57C4-4091-879E-1D750F439591";
paths = (
{
closed = 1;
nodes = (
"72 0 LINE",
"108 184 LINE",
"227 184 LINE",
"244 0 LINE",
"427 0 LINE",
"427 71 LINE",
"317 71 LINE",
"294 312 LINE",
"410 312 LINE",
"410 383 LINE",
"287 383 LINE",
"265 617 LINE",
"427 617 LINE",
"427 688 LINE",
"131 688 LINE",
"-5 0 LINE"
);
},
{
closed = 1;
nodes = (
"183 587 LINE",
"189 587 LINE",
"220 252 LINE",
"121 252 LINE"
);
}
);
width = 447;
},
{
anchors = (
{
name = bottom;
position = "{210, 0}";
},
{
name = top;
position = "{210, 688}";
}
);
layerId = "7674DAFD-136A-491A-A3F0-195DB056B53F";
paths = (
{
closed = 1;
nodes = (
"120 0 LINE",
"130 132 LINE",
"191 132 LINE",
"200 0 LINE",
"421 0 LINE",
"421 126 LINE",
"331 126 LINE",
"317 284 LINE",
"415 284 LINE",
"415 411 LINE",
"306 411 LINE",
"294 562 LINE",
"421 562 LINE",
"421 688 LINE",
"53 688 LINE",
"-13 0 LINE"
);
},
{
closed = 1;
nodes = (
"159 562 LINE",
"165 562 LINE",
"185 256 LINE",
"136 256 LINE"
);
}
);
width = 440;
},
{
anchors = (
{
name = bottom;
position = "{240, 0}";
},
{
name = top;
position = "{240, 688}";
}
);
layerId = "B5B62657-8F5D-48EE-9125-14A639410D02";
paths = (
{
closed = 1;
nodes = (
"35 0 LINE",
"90 215 LINE",
"237 215 LINE",
"261 0 LINE",
"417 0 LINE",
"417 34 LINE",
"294 34 LINE",
"261 331 LINE",
"393 331 LINE",
"393 365 LINE",
"257 365 LINE",
"224 654 LINE",
"417 654 LINE",
"417 688 LINE",
"178 688 LINE",
"0 0 LINE"
);
},
{
closed = 1;
nodes = (
"190 611 LINE",
"195 611 LINE",
"234 249 LINE",
"99 249 LINE"
);
}
);
width = 439;
},
{
anchors = (
{
name = bottom;
position = "{595, 0}";
},
{
name = top;
position = "{595, 688}";
}
);
layerId = "8EBCA172-37CB-4E59-A5FF-33FE92477777";
paths = (
{
closed = 1;
nodes = (
"228 0 LINE",
"277 99 LINE",
"525 99 LINE",
"535 0 LINE",
"1094 0 LINE",
"1094 178 LINE",
"746 178 LINE",
"737 261 LINE",
"1034 261 LINE",
"1034 434 LINE",
"718 434 LINE",
"709 510 LINE",
"1094 510 LINE",
"1094 688 LINE",
"357 688 LINE",
"-29 0 LINE"
);
},
{
closed = 1;
nodes = (
"477 512 LINE",
"486 512 LINE",
"509 269 LINE",
"356 269 LINE"
);
}
);
width = 1150;
},
{
anchors = (
{
name = bottom;
position = "{574, 0}";
},
{
name = top;
position = "{574, 688}";
}
);
layerId = "C6199351-AF36-494D-BF00-13EB6406F65F";
paths = (
{
closed = 1;
nodes = (
"112 0 LINE",
"207 168 LINE",
"554 168 LINE",
"604 0 LINE",
"1061 0 LINE",
"1061 103 LINE",
"704 103 LINE",
"645 295 LINE",
"1004 295 LINE",
"1004 399 LINE",
"615 399 LINE",
"558 585 LINE",
"1061 585 LINE",
"1061 688 LINE",
"374 688 LINE",
"-13 0 LINE"
);
},
{
closed = 1;
nodes = (
"431 574 LINE",
"438 574 LINE",
"522 271 LINE",
"265 271 LINE"
);
}
);
width = 1127;
},
{
anchors = (
{
name = bottom;
position = "{555, 0}";
},
{
name = top;
position = "{555, 688}";
}
);
layerId = "E7639064-56EC-4BF1-BEDD-A20273C7A444";
paths = (
{
closed = 1;
nodes = (
"39 0 LINE",
"170 224 LINE",
"579 224 LINE",
"661 0 LINE",
"1041 0 LINE",
"1041 34 LINE",
"685 34 LINE",
"575 331 LINE",
"986 331 LINE",
"986 365 LINE",
"563 365 LINE",
"456 654 LINE",
"1041 654 LINE",
"1041 688 LINE",
"410 688 LINE",
"0 0 LINE"
);
},
{
closed = 1;
nodes = (
"419 645 LINE",
"424 645 LINE",
"565 258 LINE",
"192 258 LINE"
);
}
);
width = 1109;
}
);
leftKerningGroup = A;
rightKerningGroup = E;
unicode = 00C6;
},
{
color = 6;
glyphname = B;
layers = (
{
anchors = (
{
name = bottom;
position = "{344, 0}";
},
{
name = top;
position = "{344, 688}";
}
);
layerId = UUID0;
paths = (
{
closed = 1;
nodes = (
"413 0 LINE",
"578 0 OFFCURVE",
"602 95 OFFCURVE",
"602 180 CURVE SMOOTH",
"602 249 OFFCURVE",
"588 332 OFFCURVE",
"477 350 CURVE",
"477 354 LINE",
"562 370 OFFCURVE",
"594 432 OFFCURVE",
"594 516 CURVE SMOOTH",
"594 615 OFFCURVE",
"558 688 OFFCURVE",
"422 688 CURVE SMOOTH",
"115 688 LINE",
"115 0 LINE"
);
},
{
closed = 1;
nodes = (
"151 332 LINE",
"417 332 LINE SMOOTH",
"522 332 OFFCURVE",
"566 284 OFFCURVE",
"566 183 CURVE SMOOTH",
"566 84 OFFCURVE",
"530 34 OFFCURVE",
"417 34 CURVE SMOOTH",
"151 34 LINE"
);
},
{
closed = 1;
nodes = (
"151 654 LINE",
"414 654 LINE SMOOTH",
"526 654 OFFCURVE",
"558 606 OFFCURVE",
"558 510 CURVE SMOOTH",
"558 419 OFFCURVE",
"506 366 OFFCURVE",
"414 366 CURVE SMOOTH",
"151 366 LINE"
);
}
);
width = 687;
},
{
anchors = (
{
name = bottom;
position = "{330, 0}";
},
{
name = top;
position = "{330, 688}";
}
);
layerId = "4F93A97B-747D-4721-B098-38A63C534D7A";
paths = (
{
closed = 1;
nodes = (
"417 0 LINE",
"561 0 OFFCURVE",
"623 61 OFFCURVE",
"623 184 CURVE SMOOTH",
"623 300 OFFCURVE",
"576 330 OFFCURVE",
"498 349 CURVE",
"498 353 LINE",
"580 372 OFFCURVE",
"621 414 OFFCURVE",
"621 515 CURVE SMOOTH",
"621 636 OFFCURVE",
"545 688 OFFCURVE",
"419 688 CURVE SMOOTH",
"51 688 LINE",
"51 0 LINE"
);
},
{
closed = 1;
nodes = (
"281 279 LINE",
"329 279 LINE SMOOTH",
"383 279 OFFCURVE",
"389 272 OFFCURVE",
"389 219 CURVE SMOOTH",
"389 166 OFFCURVE",
"383 161 OFFCURVE",
"329 161 CURVE SMOOTH",
"281 161 LINE"
);
},
{
closed = 1;
nodes = (
"281 527 LINE",
"329 527 LINE SMOOTH",
"383 527 OFFCURVE",
"389 522 OFFCURVE",
"389 471 CURVE SMOOTH",
"389 422 OFFCURVE",
"383 416 OFFCURVE",
"329 416 CURVE SMOOTH",
"281 416 LINE"
);
}
);
width = 660;
},
{
anchors = (
{
name = bottom;
position = "{248, 0}";
},
{
name = top;
position = "{248, 688}";
}
);
layerId = "E6BBBBE7-ECAD-4929-840D-43673C7BDEAF";
paths = (
{
closed = 1;
nodes = (
"273 0 LINE SMOOTH",
"404 0 OFFCURVE",
"438 72 OFFCURVE",
"438 180 CURVE SMOOTH",
"438 271 OFFCURVE",
"416 334 OFFCURVE",
"329 350 CURVE",
"329 354 LINE",
"401 370 OFFCURVE",
"432 426 OFFCURVE",
"432 516 CURVE SMOOTH",
"432 627 OFFCURVE",
"393 688 OFFCURVE",
"280 688 CURVE SMOOTH",
"81 688 LINE",
"81 0 LINE"
);
},
{
closed = 1;
nodes = (
"117 332 LINE",
"276 332 LINE SMOOTH",
"365 332 OFFCURVE",
"402 287 OFFCURVE",
"402 183 CURVE SMOOTH",
"402 79 OFFCURVE",
"369 34 OFFCURVE",
"276 34 CURVE SMOOTH",
"117 34 LINE"
);
},
{
closed = 1;
nodes = (
"117 654 LINE",
"274 654 LINE SMOOTH",
"367 654 OFFCURVE",
"396 613 OFFCURVE",
"396 510 CURVE SMOOTH",
"396 417 OFFCURVE",
"351 366 OFFCURVE",
"274 366 CURVE SMOOTH",
"117 366 LINE"
);
}
);
userData = {
LWTimeline = "H4sIAAAAAAAAE+2dXY8kOXae/0qjrlsJfn/MpWUJNrD2ApJsXQgLY7Qz2h14NL2YmbUuFvvfHUxmREaQTBZjqktTxX7QF9nB/DjBPOc9z1sZEYy/PP3bj1//+7c/PX31L395+v4//s9P336//Pd3H5/+4R//y9NXxn58+tPXP/8xP/377z/99O03T1/9/OOfv/349MOnb65ve1LCfBAffvPf/+ffPX180jouG7/9+7//2//1D//7OmDDhyjLERnEh+v2h3/8H7/97T/9t9uwsu7wSuM+aK32Q8r6D9re3rxtmy28Wt7hix3QH4w6fu4yZKWr90B/cDIcXqmWoXAYUlJch4o3O3sdve3HsnX7Sn73148Pvzkp5HV+tzcp4bfN+wer5VOLL0Er9SENF0My6HKv0nA4fPsq2g/aHEZSWFO+87pvt+/1uTm4ewKUsNvmbg5RX0f3Oyz98mUfM7UMWVkXxjJs5HGXvfmg3SGnKXAaak1jGb7NYynsr3/4/R8//Zgr+oel9J++evr505+Wl/7p00/f/fzdpx+Wgb8ooT6mfP71KU399rJ//fTzz5/+vfVKsbxu+ej/+O6bn/+4qEboj09//unbH//r1z9//fTVX55+88//9F36BGmjCUopJy/Oumj/+vHp/33748//nN/2N/Lj02+S6tyiun/9+vf/9w8/fvrzD9+kD0CDr6vBbd/friKfncNa5HkSb1aSr6vBv6aXgrFfQUJvUjRg7LyExjHm9SUo7Z0b5tir7TS6R/eHd6L7sxI6oXtz8V7ZKNSw8J9Xode3krtPftmRi3P+g7gIcfimjQ4f/KGk0khDlMvw9b3Ki+sn7d8h7XVIa1N+vFbxINK8vdWISTk5itRodf0Qo+xFa1081RLr+g6nXLlnOurrhyz5K/dMhaZ4F4nsxLtsbf3s/v+eCNZ6vL1JLhVbbO4lsry4loh2Pu+0rb/O6PJUpaqn6pqSub3DyPrLsfIaZ9m/Ms46i7zdn6/be/403ePWrqmll1ZNTbucZ33L4j7fIjW3Y6mJZnNLwz4eJudi/tjqO7zt8Tq11+wDR5T+i/soPorffVwe5e1R3R717dHcHu3t0d0e/e0x3B7j+jnbB66fKNePlOtnyvVD5fqp4qO87UV+VLdHfXs0t0d7e3S3R397DLdH8VHdPic/qtujvj2a26O9Pbrbo789huVx9Rd6yF/Ivb8wpb9wlb9wzVaWhkt/YWt/kTra3l9ct+/+Qtf+wtX+wrX9hav9RW5Thz1QzRblD/7Cj/kLefQXO2Xu2Vz7C137C92UYBo++gudOHyEdW4PxTuv+zbiL+TRX8iWv9Ci9heq9heq7S9U7S9C7S9k21+kabw1fxHMxcYYrX7kLzz+Yv9US6z4i9tTTcngL6q54S/wF/iLWor4ixn9hRM+xuXz8Re38PgL/EXON/7ii/EXashfqL2/sKW/8JW/8M1WloZLf+Fqf+ELf3HdvvuLdESl8Be+9he+7S987S9M7S90u0Ud/EUY8xfq6C9Uy19oUfsLU/sL05RgGi78ReLwEdYpbO0v0r6N+At19Beq6S9k7S907S9021/o2l/E2l+otr9I03hz/sJejDE6CvnAXwT8xf6plljxF7enmpLBX1Rzw1/gL/AXDSniL2b0F1Y5GyX+Yg2Pv8Bf5HzjL74cf+GG/MXa2a7lG0p/4St/4VutLA1X/sKWaL3WycFfpO2dv7Bl69JLI638RbNlpeHKX6jKXyzNstWizKFFbZarJ1OpxNFfNKV4O+vzsFey9heyJcE0XPoLU/mLu/T2YBaD/kIc/UWzeUpV+wtX+4t2s1yGK39xbZDHWeyaYzGNN+gv4lKl0sdH/sLgL3ZPtcSKv7g91ZQM/qKaG/4Cf4G/aEgRfzGjvzBWyUfXP2MvDk+1tIq9uD3VVAz2opob9uIN2gs/ZC/U3l740l64yl64VitLw5W9MCVZlbeFvUjbO3thytalvazthWy1rDRc2YvcefZ7oEKzReXjKGtb2hxXT6ZSxqO9yG6qkKLIAj3slajthWhJMA2X9iLJ7zih6wGT4p3XfRuxF8vrDvYiHwgp5nA7B3S/H9rW9sI2m+UyXNkLVduL7Dha03hz9sJdZIzOP7p6JGjsxe6pllaxF7enmorBXlRzw15gL7AXDSliLya0F0p4E+XDoyP4i/1TLbHiL25PNSWDv6jmhr94g/4iDPmLnR7TBaUF3m3lL2yrlaXhyl9cK7DSwMFfpO2dv9Bl60qblb8QrZaVhit/kfvRfg/SZZWNFpUPo6xtabNcPZlKmU/cXKWYfuCvpZguJy38hY6Vv1iGGhJMw6W/UJW/uB4vKd553bchfxGO/iIfBynmIPMhlMMOm9pfmGazXIYrf5HP2TzMIluO1jTeoL+wQUjx+OoRhb/YPdUSK/7i9lRTMviLam74C/wF/qIhRfzFlP4iaPlo1V7sxeGpllaxF7enmorBXlRzw168QXsRh+yF2NuLdFnmPuVL0Zb2wrRaWRqu7IUqyZra6NFepO2dvVBl61pqrrIXy1CjZaXh0l7ofCbnfg+WzzrRonoyLaWYfuGvpSiqY0R6gUFlLxIfKgmm4dJeXC86PUwoCbJ8575pPDeHg724X6u6n0M+hnLYYV3bi3TNcF0Yy3BlL/Ipm4dZZMfRmsabsxf+It2S10drawWJvdg91dIq9uL2VFMx2ItqbtgL7AX2oiFF7MWM9sLLJbHYizU89gJ7kfONvfgc9uIXmohfYhpWsyCHzILem4XrLbr2CQyVWQhtsxBqs+BrsxAKs3DdvpsFW5sFX5sF3zYLvjYLpjYL6QrJ8YbTE10prCyfUljpytDCLJjaLJi2WTCVWcgLYB0m9DnNgm6ahdv5nIcdrs2CaZsFU5kFLWqzoN+PWYhLi9RBPz6TArOwf6qlVczC7ammYjAL1dwwCzkWZgGzgFl4Z2bBOKM8ZmENj1nALOR8YxbeqVkY8gpm7xWu9846lHPlFWLbK8TaK4TaK6S1i/Ze4bp99wrpuEXhFULtFULbK4TaK9jaK5hX8wrpBNBaV7czKw97VXuF623lKz2l4cIrJKYevUIK+9m8Qrpotu6EqvYK19vNHzN1vTF9XRjpFvaFV5C1VzDvyissWXVLKjALa3jMAmYh5xuzgFk4jDT6EmYBs/AFmYUlD5IfFrbweAW8Qs43XuGdeoXUvp7vU3ZvFq53tTpkujQLaaTVmERtFtIiQgUnxdEs5O27WUjHLQqzEGuzENtmIdZmIZ3yWJgF+2pmwTbNgq7NQrqNe2EWrjd8rwSVhguzkKB6NAsp7GczC7ZpFtJpooVZuN4I/pip6y3jq8K43ly+MAu3Fa8Ps3hXZsFbp6yXuIU1PG4Bt5DzjVvALRxHWo0Jt4BbaLa+Sd2CM1wNsYXHLGAWcr4xC+/WLAy5Bbd3C7F0C7JyC7LtFmTlFlI9lKBMCy/vO9F1++4W0qGLohOJyi2koVYHSlf4FW4hnfRYuAX3am7httBVoay0GHfxJaRbrBdu4Xoz9kpRabhwC4mqR7eQwn42t+CabiGdKFq4BV+7Bd92C752C7p2C+5duYVoYpSOtRm28NgF7ELON3YBu1CMtDoTdgG70Ox9U9oFG7xVD2+khV3YP9UUK3YhP9WUDHahmht2Icd6RbughuyC39kFI0q7oCq7oNp2QdV2Ia2BXJAyLSN06ERHu5COXhSdSNZ2QbbtQrrKr7AL6czHwi74V7MLaZWpWlm2tguhtguhbRdCZRcSVo92IYX9bHYh3Vus7oXpbNHCLoTaLoS2XQi1XTC1XfDvyC4sOLNqmZfELqzhsQvYhZxv7AJ2oRhpdSbsAnah2fvmtAsxWvXwNprYhf1TTbFiF/JTTclgF6q5YRdyrFe0C3rILoS9XZClXdCVXdBtu6Bru5DuRFSQMhXDvhNdt3edqLYLqrYLqm0XVG0X0smPhV0Ir2YXQtMu1Lce17G2C7FtF2JlFxJWj3Yhhf1sdiF9D41eWNuFWNuF2LYLsbYLtrYL4V3ZBS/EYuWwC1t47AJ2Iecbu4BdKEaanQm7gF1o9r4p7UKQS61hF9bw2AXsQs43duG92gUzZBfi3i6o0i6Yyi6Ytl0wtV3QtV1I6wntO9F1+96J0uGLshPVdkG37UK62u9oF65nPxZ2Ib6aXUjLTdXKSiI+fglGVHYhDTUVVdmFhNWjXUhhP5tdiE27kM4YPdqFBWWlXUhDjd6Xhku74Gq7EN+RXTAXZaQMhl8XtvDYBexCzjd2AbtQjLQ6E3YBu9DqfXPaBSuWl2EXtvDYBexCzjd24d3aBTFiF0Lc2wVT2gVd2QXd7EzLcGUXZEnK602pD3Yhbe/sQqMThdouhHYHCrVdCLVdsGc6Tk91pbJui1IVyrqdAHnYK1/bBd9WlK/sgqjsgvqcdkG0eqEPtV1QtV1IYKgLYxku7YKNtV3IDqI1jTdoF5xf/h8ldmENj13ALuR8YxewC8VIqzNhF7ALrd43p10IxgeJXdjCYxewCznf2IX3ahf00O2lFqHt7ELqWvtULzwv7UJKflXiabiyC6Ik5XUJ44NdSNs7uyDqTuRru+DbHcjXdsHXdsGc6Tg91ZXKSr+n18pKy1qXdsHVdsG1FeVKu7AIrLQL18MTxTt/qV1IV57WvdDnFx12WNZ2QbZ6Xxqu7EKo7ELIDqI1jTdoF4KJIbAG9BYet4BbyPnGLeAWipFWZ8It4BZavW9Ot2CDV55TF7bw2AXsQs43duHd2oUwZBf83i6o0i7Iyi7IZmdahku7kNpMaRdEYRfS9q4TxboTudouJJE1OpCr7UI+rXFfeOkCwPGO01Ndqaz0c3qtrHThY2kXbG0XbFtRtrILobIL16MTxTt/sV3IRx3KObjaLqT+VzQK0ep9abiyC7kf72cRsoNoTePN2QV7EVJL73ALa3jcAm4h5xu3gFsoRlqdCbeAW2j1vjndgpJRWX5c2MJjF7ALOd/YhXdrF/yQXXB7u5D0tU/1wvPSLohmZ1qGK7sQSlKm+yAfOtF1e9eJQt2JbG0XbLsD2dou5LMa94UX1ZmO01Ndqaz0c3qtLF8dkLne6Lu0C+na1IaiTGUXrtreTyiF/Xx24b65n4Mt7UK+VXjRFtPVrVVhXG8/XtoFV9uF3KJb03iDdkEp77XELmzhsQvYhZxv7AJ2oRhpdSbsAnah3ftmtAvLVyI9azpu4bEL2IWcb+zCu7ULbsgupHWZ1lag0opNB7XH0i4sI83OFGu7kCtvXxBLWzvahbS960S+7kSmtgum3YFMbRfyaY37wkvLEI13nJ7qSmWF7I5KZVVHZBYM1HYhXZvaUJSu7MJVN/sJpbCfzy7kww7FHG4dcr8fMV2zWrTFdHVrVRhpuLILtrYL2UG0pvEG7YKNXgTHrwtbeOwCdiHnG7uAXShGmp0Ju4BdaPa+Ce2CE9Z4Vl24h8cuYBdyvrEL79Yu2CG7kNZlWluBTCs2FX2otAuPOlNtF3Kp7QtC+8IupO1dJ3J1J9K1XUhrDTc6kK7tQj6vcV94aRmi8Y7TU12prPR7ekNZ1RGZrKhiRx8qqrQLtrILV7UX7/zFdiEfdijm4K998LAf0dd2IV3eWhVGGq7sQm5sh1lkB9Gaxhu0CzGducD9KO/hsQvYhZxv7AJ2YagzYReaysIuTGgXgtRW4xbW8LgF3ELO93RuIZEbot6TCVGfnwNEPUnUeBHGK8XKBFt4iApRc74hKkTtqrJXmYPVB1HnI6rUUnB6/T08RIWoOd8QFaJ2VdmrzMHqg6gTEjVIK1mafwsPUSFqzjdEhahdVfYqc7D6IOp8RFXSBMNx1C08RIWoOd8QFaJ2VdmrzMHqg6jzEdWlq55Ys/UeHqSC1JxvkApSu6rsVeZg9YHUCZFqnbMKoq7hISpEzfmejqhcPnNMJkR9fg4Q9RRRtZAXKYSVnJq0hYeoEDXnG6JC1K4qe5U5WH0QdYSo+35QTOMNElVJJzRE3cJDVIia8w1RIWpXlb3KHKw+iDofUb0IwVgJUtfwIBWk5nyDVJDaVWWvMgerD6ROiFTpowWp9/AgFaTmfE+H1LRwIUi9JxOkPj8HkHoSqfqibBROcLrvFh6kgtScb5AKUruq7FXmYPW9K6S2+wVILZCqhQgmgtQtPEgFqTnfIBWkdlXZq8zB6gOpEyI16iAtRF3DQ1SImvMNUSFqV5W9yhysPog6H1GDEEpFDqVu4UEqSM35BqkgtavKXmUOVh9InRGp0UdWTrqHB6kgNed7PqSm+7LC1Hs2Yerzc3i+YcDUA1PtReilVA1/pm7hYSpMzfmGqV8eU8/Jsleag+UHU+djqlymILhT6hYepILUnG+QClL7suyV5mD5gdT5kKpMdNGD1DU8SAWpOd8gFaT2ZdkrzcHyA6nzIdUJHyO//N7Dw1SYmvMNU2FqX5a90hwsP5g6IVOlj4pFfrfwIBWk5nzPh1QFUg/ZBKnPz+H5hgFSD0j1F6PE8vHc3G0LD1Nhas43TJ2bqYs8Yeqzc3i+YcDUkqnBOWNA6hoepILUnG+QClL7suyV5mD5gdT5kGq9ENJxbeoWHqbC1JxvmApT+7LsleZg+cHU+ZjqgjZKcobSFh6mwtScb5gKU/uy7JXmYPnB1PmYGpWIljOUtvAgFaTmfE+HVMWqhEd1QtRn5/B8v4CoB6Iuwo8soLQPD1Ehas43RIWoXVX2KnOw+iYgqssvOnyzXzRRjTFegtR7eJAKUnO+QSpI7aqyV5mD1QdS50OqlcFwM5p7eIgKUXO+ISpE7aqyV5mD1QdR5yNqFEpzL5p7eIgKUXO+pyOq+yh+93F59G/9FCVXkDVtQ9ZO9UHWt0ZWJS7WKsetyLfwgBWw5nwDVsB6ePMjdfYqdLAKAet8YHVCWO85+XcLD1pBa843aP210GoLtKbtnWptrVrQup8RaH0lSZ1Ca9A+KFYpvIcHraA15xu0gtbDmx+ps1ehg1UIWmdEa5BBcaR1Cw9aQWvON2j9tdBqCrSmbdDaqT7Q+ubQKi9SSmcDpwVv4UEraM35Bq2g9fDmR+rsVehgFYLWCdFqg7dccXMPD1pBa843aP210KoLtKZt0NqpPtD6BtG61LDwDrKu4SErZM35hqyQ9fDmR+rsVehgFULWCckaveS2cFt4wApYc74B638KWG3JlLR5BGvaBqyd6gOsbxCs1ruo+ZN1Cw9ZIWvON2SFrIc3P1Jnr0IHqxCyzkdWp5Yqdhxn3cKDVtCa8w1afy20ygKtaXunWlOrFrTuZwRaX0lSp9AajBWR1SK28JAVsuZ8Q1bIenjzI3X2KnSwCiHrhGSNcik3yLqGh6yQNecbsv5aZBUFWdM2ZO1UH2R9c2RVFxk9WF3Dg1WwmvMNVsHq4c2P1Nmr0MEqBKvzYVUt5R45f2kLD1kha843ZP2VyPqcaiFrWX2Q9Q2S1S1dwGtWN9zCg1bQmvMNWkHr4c2P1Nmr0MEqBK0TojVoGfg5eAsPWSFrzvd0ZA0Q9ahOiPrsHEb6BUTdEdVdoo7WcLHNPTxIBak53yD1jSG1oVaQup8RSH0lKZ1Aqr8Ia6XhyOoWHqJC1JxviApRu6rsVeZg9UHU+YgqdbA6cN3qFh6kgtScb5AKUruq7FXmYPWB1PmQamLQ0XKS0hYepILUnG+QClK7quxV5mD1gdT5kGqFFwKibuEhKkTN+Z6OqPZNEVV9KAT2S9QKUfczgqivJKUTRA2X4LxSVoHUNTxIBak53yAVpHZV2avMweoDqVMi1XmuoNnCQ1SImvMNUV+VqAKiQtQZiRpjiC5yBc0WHqSC1JxvkPqaSF0+DKSC1OmQGi8iRhs9h1K38CAVpOZ8g9RXRWpKx7GZ/gK1gtT9jEDqK0npFFKVWPbM81fqFh6kgtScb5AKUruq7FXmYPWB1PmQ6kLUllu+beEhKkTN+YaoELWryl5lDlYfRJ2QqNEHgLqFB6gANed7OqCqjxKg7tUJUJ+dw0i/AKh3oGpxidF6Fnm4h4eoEDXnG6JC1K4qe5U5Wn0QdTKiyovUJnD9zD08RIWoOd8QFaJ2VdmrzNHqg6jTEVVppSN/o27hISpEzfmGqBC1q8peZY5WH0SdjqhOCWcsRF3DQ1SImvM9HVEXpkLUvToh6rNzGOkXEHVHVH0xIgjNLd228BAVouZ8Q1SI2lVlrzJHqw+iVkSV75qoSfEhchh1Cw9QAWrON0AFqF1V9ipztPoA6nxAjd4tWgGpa3iQClJzvkEqSO2qsleZo9UHUqdDqoo2BMOaSVt4kApSc75BKkjtqrJXmaPVB1KnQ6pxzljJHd228CAVpOZ8T4dUA1KP6gSpz85hoF+4GqmuRuqj/lAjVbxrpC6tPirLFan38BAVouZ8Q1SI2lVlrzJHqw+iTkdUKWS0kt99t/AgFaTmfE+HVCne+dK+oiHXmqmPZFozVcHUZ+cw0DBg6p6p8RKUMIJrUrfwIBWk5nyDVJDal2WvNEfLD6TOh1S9IJVbut3Dw1SYmvM9HVPtO//lF6SWVQdS3xpSjbqYEJb/QtQ1PESFqDnfEBWidlXZq8zR6oOoRhZ94X0TVV+kj1JG/kjdwoNUkJrzDVJBaleVvcocrT6QOh1SlXYapO4VCVJB6jXfIBWkdlXZq8zR6gOp0yHVSW2jY/GkLTxIBak53yAVpHZV2avM0eoDqfMhVVnLCb/38BAVouZ8T0fU9752EkQtq25Kor7rtZOMvRillgoMIHUND1JBas43SAWpXVX2KnO0+kDqfEjVMhiIuoWHqBA15xuiQtSuKnuVOVp9ELUiqnrXRF26mRHGcQXNFh6iQtScb4gKUbuq7FXmaPVB1PmIaoVXLJl/Dw9SQWrON0gFqV1V9ipztPpAaoXU9/2z79I9hROBBX7v4UEqSM35BqkgtavKXmWOVh9InQ+pcmFB5AqaLTxIBak539MhNbzz9X1bagWpuxmB1FeS0gmkhkv0zioFUrfwIBWk5nyDVJDaVWWvMkerD6TOh9TgFv3zw+8WHqSC1Jzv6ZAa50SqLYfaKgWpBxaB1BNSGkfq0tWW0jb8kXoPD1Ehas43RIWoXVX2KnO0+iDqfERV1kPUe3iIClFzviHq+yAqP/uuM4KorySlE0S1F7moJrAW4RYeokLUnG+IClG7quxV5mj1QdT5iKq9dxqiruEhKkTN+Z6OqFItSP24/Ee98ytpWrJ9CVqvEn2BPHslOlqGE6A1v+jwzX7BaI2XoLyS/LG6hQetoDXnG7SC1uObH8mzV6KjZQha50OrDoJlH+7hQStozfkGrV8KWg1ofXYOA40jgNY7Wp24yKgEC+lv4SErZM35hqyQ9fjmR/LslehoGULW6ciqhPTScz7wFh62wtacb9j6pbCVH4Sfn8NI44CtB7Z6L4TlWpt7eNgKW3O+YStsPb75kTx7JTpahrB1PrYGoaSErVt42Apbc77nY6v80i+7OSYJpg7MYaRhwNQdU/XFCM/tyu/hISpEzfmGqBC1L8teaY6WH0Sdj6jSBf5K3SsSpsLUa75h6mxMVUU5w9Tn5zDSMGDqganWixBZHGILD1JBas43SAWpfVn2SnO0/EDqfEgNwgSQuoUHqSA15xukTofUI4BA6sAcRhoGSD0g1QthlGc1iC08TIWpOd8wFab2ZdkrzdHyg6nzMVUKFVm7cAsPUkFqzjdInQ6ph1YDUkfmMNIwQOoBqcFH71n+4R4epsLUnG+YClP7suyV5mj5wdT5mBqilxxN3cKDVJCa8w1Sp0PqQdAgdWQOIw0DpO6QukjeCGG8gqlreJgKU3O+YSpM7cuyV5qj5QdTJ2RqNI5ffrfwIBWk5nyD1OmQWjR+kPr8HEYaBkg9IFUJH3XkpN8tPEyFqTnfMBWm9mXZK83R8oOp8zFVeqn5O/UeHqbC1JxvmDodU20hT5j67BxGGgZMPTBVh6gDF9Js4UEqSM35BqkgtS/LXmmOlh9InQ+pMQRlOUNpCw9TYWrON0ydjqmHV8LUkTmMNAyYemCqjdazLOE9PEgFqTnfIBWk9mXZK83R8gOp0yHVCeutB6lreJAKUnO+Qep0SC3lCVKfncNIwwCpB6RGa4SxnPS7hYepMDXnG6bC1L4se6U5Wn4wdT6mOm2jgqlbeJgKU3O+p2Oq/qhA6l6dIPXZOYz0izZSj7v2sD/MhlR3iUYZEUDqFh6kgtScb5AKUruq7FXmaPWB1PmQalWQHEzdwkNUiJrzDVEhaleVvcocrb55iXqY1uP+MBtR/UU5GwTr/N7Dg1SQmvMNUkFqV5W9yhytPpA6IVKdtKz1sIWHqBA15xuiQtSuKnuVOVp98xK1uEvBo/4wH1G9WWRjOJK6hQepIDXnG6SC1K4qe5U5Wn0gdT6kWqWi4nffLTxIBak53xMiVYLUvTrfLFJHqw6kvjWken2JIgTP775beIgKUXO+T/U2iLqOtNULUdvVB1HnI6p0UiruRLOFB6kgNef7VHN7D0g1v+o6D8c2CVLTLoDU6ZDqLlaaoPnZdwsPUSFqzvep3gZR15G2eiFqu/og6nxEVYsEJH+kbuFBKkjN+T7V3EDqOtJW74LUQrUgFaROiFR/EcFazwK/9/AgFaTmfJ9qbiB1HWmrF6S2qw+kzofUqHwUIHULD1JBas73qeYGUteRtnoXpB6vCwGp1+oDqdMhVS1INSxGuIWHqBA15/tUb4Oo60hbvRC1XX0QdTqiaiGk5PbjW3iIClFzvk/1Noi6jrTVuxD18A1B1LQLEHVCopooDX+j3sNDVIia832qt0HUdaStXojarj6IOiFRo5EGoq7hISpEzfk+1dsg6jrSVm9S7lG1EBWiTknU4IIVjgtotvAgFaTmfJ9qbiB1HWmrF6S2qw+kzodUb6PwIHULD1JBas73qeYGUteRtnoX5R5fCVKv1QdSJ0NquERlnLMgdQsPUkFqzvep5gZS15G2ekFqu/pA6oxIjdGA1C08SAWpOd+nmtt7QKr/VVfMB6mt6ntlpC5lCVIbAjkppXGkBnVd5kGxGOE9PEgFqTnfp5obSF1H2uoFqe3qA6nTIVUK5QIn/G7hISpEzfk+1dsg6jrSVi9EbVcfRJ2PqNYF4SDqGh6iQtSc71O9DaKuI231QtR29UHU6YiqYhSSZR628BAVouZ8n+ptEHUdaasXorar77WJeq+2AkUQ9YSUThFVh+XTOY66hYeoEDXn+1Rvg6jrSFu9ELVdfRB1OqKGqKJSIHULD1JBas73qeYGUteRtnpBarv6QOp0SI1CWxsg6hoeokLUnO9Tve09EFW84JLU3WwBa3rRmCBHixCwTgZWc7HOiuAg6xYeskLWnO9TzQ2yDokYsraLELLOR1ZvfOQ25Ft4wApYc75P9TbAOiRiwNouQsA6GVjtxUgpNKcAb+EBK2DN+T7V2yYFa0vMgDW9aEyQo0UIWOcDq5eWP1n3ioSskPWa71PNDbIOiRiytosQsk5HVuuMXLIKWdfwkBWy5nyfam6QdUjEkLVdhJB1OrI6ayMrLN3DA1bAmvN9qrcB1iERA9Z2EQLW+cDqhXGaH4O38JAVsuZ8n2pukHVIxJC1XYSQdTqyeiOCY3WILTxgBaw536d6G2AdEjFgbRchYJ0MrO6ipLXOAtY1PGAFrDnfp3obYB0SMWBtFyFgnQ+syhqtWSRiCw9ZIWvO96nm9h7IKiErZC2QBFlPKOoEWcNFWuOD4yjrFh6yQtac71PN7Usiq4Kso4IcLULIOh9Zo9Ja8DfrFh6yQtac71PNDbIOiRiytosQsk5HVhW0WYoVsq7hIStkzfk+1dy+ILIKfg3OWwOCHC1CyDodWXWMQllODd7CQ1bImvN9qrl9SWT1kHVUkKNFCFmnI6sVZikk/mbdwkNWyJrzfaq5fUlkTSv0F5KFrO0vcLQIIet0ZHXaGI6ybuHhKlzN+T7V2uDqkIjharsI4ep0XPVLlQbJX6xbeMgKWXO+TzU3yDokYsjaLkLIOh1Zgw6R9Zfu4QErYM35PtXbAOuQiAFruwgB63RgjTpoaSDrFh6yQtac71PNDbIOiRiytosQsk5G1ngRhp+C93qEq3D1mu9TrQ2uDokYrraLEK5Ox1WZ7h4HWLfwgBWw5nyf6m3vAawLWgHrB8C6JxJgPaGocbBGcQnBSasB6xoesALWnO9TvQ2wDokYsLaL8LOC1UXA+iqKOgXWaI3kCOsWHq7C1ZzvU60Nrg6JGK62ixCuTsZVeRE6eBkVZF3DQ1bImvN9qrlB1iERQ9Z2EULW+cjqrJOeg6xbeMgKWXO+TzU3yDokYsjaLkLIOh1ZpVv6pOLX4C08ZIWsOd+nmhtkHRIxZG0XIWSdjqzWL3+0WsC6hgesgDXn+1Rvew9gtYAVsBZEAqwnFHUCrPqigrGCS1nv4SErZM35PtXcIOuQiCFruwhfRtaq+CDrqyjqFFl1DD5wv/N7eMgKWXO+X9bcIGtVDZD1YRFC1unIGqy0hjODt/CAFbDmfL+stwHWqhoA68MiBKzzgdUp7bia9R4eskLWnO+XNbc3SFbFuoaQtUASZD2hqBNktRfh3TJ7yLqFh6yQNef7Zc3tyyJrGBQxZG0XIWSdjqxSWasEZN3CQ1bImvP9suYGWatqgKwPixCyzkfWoKVSHGfdwkNWyJrz/bLm9mWRdVTEkLVdhJB1OrIq4bzjb9Z7eMgKWXO+X9bcIGtVDZD1YRFC1unIqqU31gPWNTxgBaw53y/rbYC1qgbA+rAIAet0YDUyRMWpwffwkBWy5ny/rLlB1qoaIOvDIoSs05HVyuUfiwbfw0NWyJrz/bLmBlmraoCsD4sQsk5HVies5T439/CAFbDmfL+stwHWqhoA68MiBKzzgTV6GzgxeAsPWAFrzvfLehtgraoBsD4sQsA6HVi9DF5owLqGB6yANef7Zb0NsFbVAFgfFiFgnQys7iK9stZykHULD1kha873y5obZK2qAbI+LELIOh9Zw1JHgqOsW3jICllzvl/W3N4aWVek2gBRrx8PUQfmMNIuviSiRtclqhH+oiTrGe71CE/h6TXfL2tt8HQvXnjaLj54+p/OUxNGlZReeZKnUlyiVyFEiLqFh6gQNef7Zc0Nou7FC1HbxQdRJyNqvAjjhI+cALyFh6gQNef7Zc3tLRB1+fQfv/39px+/+e6HPzx99W9ff//T8uV9//VPP//tH7/+4Q/tRvD/AY4cJQ66kAYA";
};
width = 496;
},
{
anchors = (
{
name = bottom;
position = "{204, 0}";
},
{
name = top;
position = "{204, 688}";
}
);
layerId = "7836D3B9-397C-42C1-8084-A98A44B9119A";
paths = (
{
closed = 1;
nodes = (
"297 0 LINE SMOOTH",
"416 0 OFFCURVE",
"469 60 OFFCURVE",
"469 185 CURVE SMOOTH",
"469 293 OFFCURVE",
"439 332 OFFCURVE",
"372 349 CURVE",
"372 353 LINE",
"435 370 OFFCURVE",
"464 414 OFFCURVE",
"464 515 CURVE SMOOTH",
"464 630 OFFCURVE",
"408 688 OFFCURVE",
"297 688 CURVE SMOOTH",
"40 688 LINE",
"40 0 LINE"
);
},
{
closed = 1;
nodes = (
"217 280 LINE",
"245 280 LINE SMOOTH",
"288 280 OFFCURVE",
"288 267 OFFCURVE",
"288 213 CURVE SMOOTH",
"288 155 OFFCURVE",
"288 146 OFFCURVE",
"245 146 CURVE SMOOTH",
"217 146 LINE"
);
},
{
closed = 1;
nodes = (
"217 542 LINE",
"245 542 LINE SMOOTH",
"288 542 OFFCURVE",
"288 533 OFFCURVE",
"288 478 CURVE SMOOTH",
"288 425 OFFCURVE",
"288 415 OFFCURVE",
"245 415 CURVE SMOOTH",
"217 415 LINE"
);
}
);
width = 492;
},
{
anchors = (
{
name = bottom;
position = "{249, 0}";
},
{
name = top;
position = "{249, 688}";
}
);
layerId = "374FF654-0B40-45EE-AE97-0DEB7620D1EC";
paths = (
{
closed = 1;
nodes = (
"278 0 LINE SMOOTH",
"403 0 OFFCURVE",
"447 67 OFFCURVE",
"447 182 CURVE SMOOTH",
"447 279 OFFCURVE",
"421 332 OFFCURVE",
"342 349 CURVE",
"342 353 LINE",
"410 370 OFFCURVE",
"441 420 OFFCURVE",
"441 515 CURVE SMOOTH",
"441 628 OFFCURVE",
"393 688 OFFCURVE",
"281 688 CURVE SMOOTH",
"64 688 LINE",
"64 0 LINE"
);
},
{
closed = 1;
nodes = (
"158 308 LINE",
"257 308 LINE SMOOTH",
"328 308 OFFCURVE",
"352 279 OFFCURVE",
"352 194 CURVE SMOOTH",
"352 111 OFFCURVE",
"333 81 OFFCURVE",
"257 81 CURVE SMOOTH",
"158 81 LINE"
);
},
{
closed = 1;
nodes = (
"158 606 LINE",
"254 606 LINE SMOOTH",
"329 606 OFFCURVE",
"346 578 OFFCURVE",
"346 497 CURVE SMOOTH",
"346 418 OFFCURVE",
"319 389 OFFCURVE",
"254 389 CURVE SMOOTH",
"158 389 LINE"
);
}
);
width = 489;
},
{
anchors = (
{
name = bottom;
position = "{339, 0}";
},
{
name = top;
position = "{339, 688}";
}
);
layerId = "E7A95A6A-7487-49EE-B62A-BA87B06E4B57";
paths = (
{
closed = 1;
nodes = (
"419 0 LINE",
"573 0 OFFCURVE",
"616 75 OFFCURVE",
"616 182 CURVE SMOOTH",
"616 278 OFFCURVE",
"585 330 OFFCURVE",
"491 349 CURVE",
"491 353 LINE",
"573 370 OFFCURVE",
"609 421 OFFCURVE",
"609 515 CURVE SMOOTH",
"609 626 OFFCURVE",
"554 688 OFFCURVE",
"418 688 CURVE SMOOTH",
"87 688 LINE",
"87 0 LINE"
);
},
{
closed = 1;
nodes = (
"215 294 LINE",
"378 294 LINE SMOOTH",
"462 294 OFFCURVE",
"488 272 OFFCURVE",
"488 200 CURVE SMOOTH",
"488 127 OFFCURVE",
"464 107 OFFCURVE",
"378 107 CURVE SMOOTH",
"215 107 LINE"
);
},
{
closed = 1;
nodes = (
"215 580 LINE",
"373 580 LINE SMOOTH",
"460 580 OFFCURVE",
"481 562 OFFCURVE",
"481 490 CURVE SMOOTH",
"481 425 OFFCURVE",
"452 402 OFFCURVE",
"373 402 CURVE SMOOTH",
"215 402 LINE"
);
}
);
width = 677;
},
{
anchors = (
{
name = bottom;
position = "{169, 0}";
},
{
name = top;
position = "{169, 688}";
}
);
layerId = "487ADAF7-57C4-4091-879E-1D750F439591";
paths = (
{
closed = 1;
nodes = (
"169 0 LINE SMOOTH",
"283 0 OFFCURVE",
"311 63 OFFCURVE",
"311 182 CURVE SMOOTH",
"311 296 OFFCURVE",
"294 335 OFFCURVE",
"227 351 CURVE",
"227 355 LINE",
"283 371 OFFCURVE",
"307 402 OFFCURVE",
"307 517 CURVE SMOOTH",
"307 645 OFFCURVE",
"269 688 OFFCURVE",
"172 688 CURVE SMOOTH",
"42 688 LINE",
"42 0 LINE"
);
},
{
closed = 1;
nodes = (
"119 315 LINE",
"158 315 LINE SMOOTH",
"212 315 OFFCURVE",
"233 288 OFFCURVE",
"233 194 CURVE SMOOTH",
"233 103 OFFCURVE",
"221 71 OFFCURVE",
"168 71 CURVE SMOOTH",
"119 71 LINE"
);
},
{
closed = 1;
nodes = (
"119 617 LINE",
"167 617 LINE SMOOTH",
"218 617 OFFCURVE",
"229 588 OFFCURVE",
"229 499 CURVE SMOOTH",
"229 414 OFFCURVE",
"203 382 OFFCURVE",
"157 382 CURVE SMOOTH",
"119 382 LINE"
);
}
);
width = 338;
},
{
anchors = (
{
name = bottom;
position = "{171, 0}";
},
{
name = top;
position = "{171, 688}";
}
);
layerId = "7674DAFD-136A-491A-A3F0-195DB056B53F";
paths = (
{
closed = 1;
nodes = (
"190 0 LINE SMOOTH",
"286 0 OFFCURVE",
"330 60 OFFCURVE",
"330 185 CURVE SMOOTH",
"330 303 OFFCURVE",
"302 335 OFFCURVE",
"259 349 CURVE",
"259 353 LINE",
"305 368 OFFCURVE",
"329 414 OFFCURVE",
"329 515 CURVE SMOOTH",
"329 637 OFFCURVE",
"275 688 OFFCURVE",
"187 688 CURVE SMOOTH",
"29 688 LINE",
"29 0 LINE"
);
},
{
closed = 1;
nodes = (
"159 285 LINE",
"169 285 LINE SMOOTH",
"193 285 OFFCURVE",
"198 281 OFFCURVE",
"198 206 CURVE SMOOTH",
"198 130 OFFCURVE",
"198 126 OFFCURVE",
"169 126 CURVE SMOOTH",
"159 126 LINE"
);
},
{
closed = 1;
nodes = (
"159 562 LINE",
"169 562 LINE SMOOTH",
"197 562 OFFCURVE",
"198 558 OFFCURVE",
"198 488 CURVE SMOOTH",
"198 418 OFFCURVE",
"196 410 OFFCURVE",
"169 410 CURVE SMOOTH",
"159 410 LINE"
);
}
);
width = 341;
},
{
anchors = (
{
name = bottom;
position = "{165, 0}";
},
{
name = top;
position = "{165, 688}";
}
);
layerId = "B5B62657-8F5D-48EE-9125-14A639410D02";
paths = (
{
closed = 1;
nodes = (
"149 0 LINE SMOOTH",
"277 0 OFFCURVE",
"294 90 OFFCURVE",
"294 180 CURVE SMOOTH",
"294 258 OFFCURVE",
"283 332 OFFCURVE",
"199 350 CURVE",
"199 354 LINE",
"264 370 OFFCURVE",
"290 424 OFFCURVE",
"290 516 CURVE SMOOTH",
"290 619 OFFCURVE",
"261 688 OFFCURVE",
"154 688 CURVE SMOOTH",
"52 688 LINE",
"52 0 LINE"
);
},
{
closed = 1;
nodes = (
"88 332 LINE",
"152 332 LINE SMOOTH",
"226 332 OFFCURVE",
"258 289 OFFCURVE",
"258 183 CURVE SMOOTH",
"258 80 OFFCURVE",
"233 34 OFFCURVE",
"152 34 CURVE SMOOTH",
"88 34 LINE"
);
},
{
closed = 1;
nodes = (
"88 654 LINE",
"150 654 LINE SMOOTH",
"231 654 OFFCURVE",
"254 611 OFFCURVE",
"254 510 CURVE SMOOTH",
"254 412 OFFCURVE",
"213 366 OFFCURVE",
"150 366 CURVE SMOOTH",
"88 366 LINE"
);
}
);
width = 329;
},
{
anchors = (
{
name = bottom;
position = "{381, 0}";
},
{
name = top;
position = "{381, 688}";
}
);
layerId = "8EBCA172-37CB-4E59-A5FF-33FE92477777";
paths = (
{
closed = 1;
nodes = (
"488 0 LINE SMOOTH",
"648 0 OFFCURVE",
"715 62 OFFCURVE",
"715 183 CURVE SMOOTH",
"715 299 OFFCURVE",
"662 328 OFFCURVE",
"574 349 CURVE",
"574 353 LINE",
"668 373 OFFCURVE",
"715 414 OFFCURVE",
"715 515 CURVE SMOOTH",
"715 635 OFFCURVE",
"631 688 OFFCURVE",
"492 688 CURVE SMOOTH",
"58 688 LINE",
"58 0 LINE"
);
},
{
closed = 1;
nodes = (
"319 278 LINE",
"379 278 LINE SMOOTH",
"443 278 OFFCURVE",
"450 270 OFFCURVE",
"450 223 CURVE SMOOTH",
"450 176 OFFCURVE",
"441 170 OFFCURVE",
"379 170 CURVE SMOOTH",
"319 170 LINE"
);
},
{
closed = 1;
nodes = (
"319 518 LINE",
"379 518 LINE SMOOTH",
"442 518 OFFCURVE",
"450 512 OFFCURVE",
"450 467 CURVE SMOOTH",
"450 423 OFFCURVE",
"442 417 OFFCURVE",
"379 417 CURVE SMOOTH",
"319 417 LINE"
);
}
);
width = 761;
},
{
anchors = (
{
name = bottom;
position = "{396, 0}";
},
{
name = top;
position = "{396, 688}";
}
);
layerId = "C6199351-AF36-494D-BF00-13EB6406F65F";
paths = (
{
closed = 1;
nodes = (
"496 0 LINE SMOOTH",
"669 0 OFFCURVE",
"714 78 OFFCURVE",
"714 182 CURVE SMOOTH",
"714 272 OFFCURVE",
"683 329 OFFCURVE",
"576 349 CURVE",
"576 353 LINE",
"667 371 OFFCURVE",
"706 424 OFFCURVE",
"706 515 CURVE SMOOTH",
"706 623 OFFCURVE",
"648 688 OFFCURVE",
"497 688 CURVE SMOOTH",
"108 688 LINE",
"108 0 LINE"
);
},
{
closed = 1;
nodes = (
"233 296 LINE",
"458 296 LINE SMOOTH",
"557 296 OFFCURVE",
"590 271 OFFCURVE",
"590 199 CURVE SMOOTH",
"590 126 OFFCURVE",
"560 102 OFFCURVE",
"458 102 CURVE SMOOTH",
"233 102 LINE"
);
},
{
closed = 1;
nodes = (
"233 585 LINE",
"455 585 LINE SMOOTH",
"556 585 OFFCURVE",
"582 563 OFFCURVE",
"582 491 CURVE SMOOTH",
"582 427 OFFCURVE",
"546 399 OFFCURVE",
"455 399 CURVE SMOOTH",
"233 399 LINE"
);
}
);
width = 792;
},
{
anchors = (
{
name = bottom;
position = "{401, 0}";
},
{
name = top;
position = "{401, 688}";
}
);
layerId = "E7639064-56EC-4BF1-BEDD-A20273C7A444";
paths = (
{
closed = 1;
nodes = (
"497 0 LINE SMOOTH",
"675 0 OFFCURVE",
"700 97 OFFCURVE",
"700 180 CURVE SMOOTH",
"700 246 OFFCURVE",
"686 332 OFFCURVE",
"566 350 CURVE",
"566 354 LINE",
"657 370 OFFCURVE",
"691 434 OFFCURVE",
"691 516 CURVE SMOOTH",
"691 614 OFFCURVE",
"653 688 OFFCURVE",
"507 688 CURVE SMOOTH",
"135 688 LINE",
"135 0 LINE"
);
},
{
closed = 1;
nodes = (
"171 332 LINE",
"502 332 LINE SMOOTH",
"616 332 OFFCURVE",
"664 282 OFFCURVE",
"664 183 CURVE SMOOTH",
"664 85 OFFCURVE",
"625 34 OFFCURVE",
"502 34 CURVE SMOOTH",
"171 34 LINE"
);
},
{
closed = 1;
nodes = (
"171 654 LINE",
"498 654 LINE SMOOTH",
"620 654 OFFCURVE",
"655 604 OFFCURVE",
"655 510 CURVE SMOOTH",
"655 421 OFFCURVE",
"600 366 OFFCURVE",
"498 366 CURVE SMOOTH",
"171 366 LINE"
);
}
);
width = 802;
}
);
leftKerningGroup = H;
rightKerningGroup = B;
unicode = 0042;
},
{
color = 6;
glyphname = C;
layers = (
{
anchors = (
{
name = bottom;
position = "{329, 0}";
},
{
name = top;
position = "{329, 688}";
}
);
layerId = UUID0;
paths = (
{
closed = 1;
nodes = (
"407 -8 OFFCURVE",
"472 -4 OFFCURVE",
"513 2 CURVE",
"513 36 LINE",
"473 30 OFFCURVE",
"413 26 OFFCURVE",
"367 26 CURVE SMOOTH",
"149 26 OFFCURVE",
"126 51 OFFCURVE",
"126 344 CURVE SMOOTH",
"126 637 OFFCURVE",
"149 662 OFFCURVE",
"367 662 CURVE SMOOTH",
"411 662 OFFCURVE",
"469 658 OFFCURVE",
"509 652 CURVE",
"509 684 LINE",
"471 691 OFFCURVE",
"408 696 OFFCURVE",
"357 696 CURVE SMOOTH",
"129 696 OFFCURVE",
"90 658 OFFCURVE",
"90 344 CURVE SMOOTH",
"90 26 OFFCURVE",
"129 -8 OFFCURVE",
"357 -8 CURVE SMOOTH"
);
}
);
width = 578;
},
{
anchors = (
{
name = bottom;
position = "{322, 0}";
},
{
name = top;
position = "{322, 688}";
}
);
layerId = "4F93A97B-747D-4721-B098-38A63C534D7A";
paths = (
{
closed = 1;
nodes = (
"407 -8 OFFCURVE",
"487 -1 OFFCURVE",
"532 8 CURVE",
"532 167 LINE",
"493 162 OFFCURVE",
"437 159 OFFCURVE",
"397 159 CURVE SMOOTH",
"277 159 OFFCURVE",
"277 174 OFFCURVE",
"277 344 CURVE SMOOTH",
"277 513 OFFCURVE",
"277 529 OFFCURVE",
"397 529 CURVE SMOOTH",
"416 529 OFFCURVE",
"447 527 OFFCURVE",
"528 521 CURVE",
"528 677 LINE",
"482 688 OFFCURVE",
"405 696 OFFCURVE",
"342 696 CURVE SMOOTH",
"74 696 OFFCURVE",
"42 614 OFFCURVE",
"42 344 CURVE SMOOTH",
"42 74 OFFCURVE",
"74 -8 OFFCURVE",
"342 -8 CURVE SMOOTH"
);
}
);
width = 567;
},
{
anchors = (
{
name = bottom;
position = "{232, 0}";
},
{
name = top;
position = "{232, 688}";
}
);
layerId = "E6BBBBE7-ECAD-4929-840D-43673C7BDEAF";
paths = (
{
closed = 1;
nodes = (
"302 -8 OFFCURVE",
"334 -5 OFFCURVE",
"365 2 CURVE",
"365 36 LINE",
"340 31 OFFCURVE",
"302 26 OFFCURVE",
"270 26 CURVE SMOOTH",
"118 26 OFFCURVE",
"99 51 OFFCURVE",
"99 344 CURVE SMOOTH",
"99 637 OFFCURVE",
"118 662 OFFCURVE",
"270 662 CURVE SMOOTH",
"303 662 OFFCURVE",
"332 659 OFFCURVE",
"363 652 CURVE",
"363 684 LINE",
"338 691 OFFCURVE",
"297 696 OFFCURVE",
"262 696 CURVE SMOOTH",
"99 696 OFFCURVE",
"63 666 OFFCURVE",
"63 344 CURVE SMOOTH",
"63 22 OFFCURVE",
"99 -8 OFFCURVE",
"262 -8 CURVE SMOOTH"
);
}
);
width = 403;
},
{
anchors = (
{
name = bottom;
position = "{222, 0}";
},
{
name = top;
position = "{222, 688}";
}
);
layerId = "7836D3B9-397C-42C1-8084-A98A44B9119A";
paths = (
{
closed = 1;
nodes = (
"294 -8 OFFCURVE",
"347 -1 OFFCURVE",
"378 10 CURVE",
"378 146 LINE",
"353 142 OFFCURVE",
"323 140 OFFCURVE",
"288 140 CURVE SMOOTH",
"216 140 OFFCURVE",
"211 143 OFFCURVE",
"211 344 CURVE SMOOTH",
"211 543 OFFCURVE",
"217 548 OFFCURVE",
"288 548 CURVE SMOOTH",
"305 548 OFFCURVE",
"334 546 OFFCURVE",
"376 542 CURVE",
"376 679 LINE",
"351 688 OFFCURVE",
"298 696 OFFCURVE",
"251 696 CURVE SMOOTH",
"56 696 OFFCURVE",
"30 606 OFFCURVE",
"30 344 CURVE SMOOTH",
"30 84 OFFCURVE",
"51 -8 OFFCURVE",
"251 -8 CURVE SMOOTH"
);
}
);
width = 403;
},
{
anchors = (
{
name = bottom;
position = "{246, 0}";
},
{
name = top;
position = "{246, 688}";
}
);
layerId = "374FF654-0B40-45EE-AE97-0DEB7620D1EC";
paths = (
{
closed = 1;
nodes = (
"291 -8 OFFCURVE",
"340 -2 OFFCURVE",
"368 6 CURVE",
"368 83 LINE",
"342 77 OFFCURVE",
"310 74 OFFCURVE",
"273 74 CURVE SMOOTH",
"147 74 OFFCURVE",
"144 111 OFFCURVE",
"144 344 CURVE SMOOTH",
"144 577 OFFCURVE",
"147 614 OFFCURVE",
"273 614 CURVE SMOOTH",
"300 614 OFFCURVE",
"331 611 OFFCURVE",
"366 605 CURVE",
"366 681 LINE",
"341 690 OFFCURVE",
"294 696 OFFCURVE",
"254 696 CURVE SMOOTH",
"70 696 OFFCURVE",
"49 623 OFFCURVE",
"49 344 CURVE SMOOTH",
"49 64 OFFCURVE",
"70 -8 OFFCURVE",
"254 -8 CURVE SMOOTH"
);
}
);
width = 399;
},
{
anchors = (
{
name = bottom;
position = "{334, 0}";
},
{
name = top;
position = "{334, 688}";
}
);
layerId = "E7A95A6A-7487-49EE-B62A-BA87B06E4B57";
paths = (
{
closed = 1;
nodes = (
"405 -8 OFFCURVE",
"477 -2 OFFCURVE",
"522 7 CURVE",
"522 110 LINE",
"484 104 OFFCURVE",
"426 100 OFFCURVE",
"382 100 CURVE SMOOTH",
"206 100 OFFCURVE",
"193 119 OFFCURVE",
"193 344 CURVE SMOOTH",
"193 569 OFFCURVE",
"206 588 OFFCURVE",
"382 588 CURVE SMOOTH",
"414 588 OFFCURVE",
"468 584 OFFCURVE",
"518 578 CURVE",
"518 679 LINE",
"477 689 OFFCURVE",
"407 696 OFFCURVE",
"350 696 CURVE SMOOTH",
"101 696 OFFCURVE",
"65 624 OFFCURVE",
"65 344 CURVE SMOOTH",
"65 64 OFFCURVE",
"101 -8 OFFCURVE",
"350 -8 CURVE SMOOTH"
);
}
);
width = 572;
},
{
anchors = (
{
name = bottom;
position = "{159, 0}";
},
{
name = top;
position = "{159, 688}";
}
);
layerId = "487ADAF7-57C4-4091-879E-1D750F439591";
paths = (
{
closed = 1;
nodes = (
"193 -8 OFFCURVE",
"221 -2 OFFCURVE",
"240 6 CURVE",
"240 71 LINE",
"228 67 OFFCURVE",
"203 63 OFFCURVE",
"184 63 CURVE SMOOTH",
"114 63 OFFCURVE",
"108 92 OFFCURVE",
"108 344 CURVE SMOOTH",
"108 596 OFFCURVE",
"114 625 OFFCURVE",
"184 625 CURVE SMOOTH",
"202 625 OFFCURVE",
"226 621 OFFCURVE",
"239 617 CURVE",
"239 683 LINE",
"226 691 OFFCURVE",
"197 696 OFFCURVE",
"171 696 CURVE SMOOTH",
"52 696 OFFCURVE",
"30 632 OFFCURVE",
"30 344 CURVE SMOOTH",
"30 55 OFFCURVE",
"49 -8 OFFCURVE",
"171 -8 CURVE SMOOTH"
);
}
);
width = 257;
},
{
anchors = (
{
name = bottom;
position = "{158, 0}";
},
{
name = top;
position = "{158, 688}";
}
);
layerId = "7674DAFD-136A-491A-A3F0-195DB056B53F";
paths = (
{
closed = 1;
nodes = (
"193 -8 OFFCURVE",
"224 1 OFFCURVE",
"241 12 CURVE",
"241 122 LINE",
"229 120 OFFCURVE",
"209 118 OFFCURVE",
"191 118 CURVE SMOOTH",
"153 118 OFFCURVE",
"152 131 OFFCURVE",
"152 344 CURVE SMOOTH",
"152 557 OFFCURVE",
"153 570 OFFCURVE",
"191 570 CURVE SMOOTH",
"207 570 OFFCURVE",
"232 567 OFFCURVE",
"239 566 CURVE",
"239 681 LINE",
"231 687 OFFCURVE",
"201 696 OFFCURVE",
"170 696 CURVE SMOOTH",
"40 696 OFFCURVE",
"19 602 OFFCURVE",
"19 344 CURVE SMOOTH",
"19 88 OFFCURVE",
"33 -8 OFFCURVE",
"170 -8 CURVE SMOOTH"
);
}
);
width = 255;
},
{
anchors = (
{
name = bottom;
position = "{155, 0}";
},
{
name = top;
position = "{155, 688}";
}
);
layerId = "B5B62657-8F5D-48EE-9125-14A639410D02";
paths = (
{
closed = 1;
nodes = (
"192 -8 OFFCURVE",
"218 -4 OFFCURVE",
"235 2 CURVE",
"235 36 LINE",
"220 30 OFFCURVE",
"194 26 OFFCURVE",
"176 26 CURVE SMOOTH",
"84 26 OFFCURVE",
"76 63 OFFCURVE",
"76 344 CURVE SMOOTH",
"76 625 OFFCURVE",
"84 662 OFFCURVE",
"176 662 CURVE SMOOTH",
"194 662 OFFCURVE",
"218 658 OFFCURVE",
"233 652 CURVE",
"233 684 LINE",
"220 691 OFFCURVE",
"192 696 OFFCURVE",
"172 696 CURVE SMOOTH",
"59 696 OFFCURVE",
"40 646 OFFCURVE",
"40 344 CURVE SMOOTH",
"40 38 OFFCURVE",
"59 -8 OFFCURVE",
"172 -8 CURVE SMOOTH"
);
}
);
width = 250;
},
{
anchors = (
{
name = bottom;
position = "{373, 0}";
},
{
name = top;
position = "{373, 688}";
}
);
layerId = "8EBCA172-37CB-4E59-A5FF-33FE92477777";
paths = (
{
closed = 1;
nodes = (
"475 -8 OFFCURVE",
"570 -2 OFFCURVE",
"624 7 CURVE",
"624 184 LINE",
"577 178 OFFCURVE",
"509 174 OFFCURVE",
"462 174 CURVE SMOOTH",
"319 174 OFFCURVE",
"317 189 OFFCURVE",
"317 344 CURVE SMOOTH",
"317 497 OFFCURVE",
"319 514 OFFCURVE",
"462 514 CURVE SMOOTH",
"482 514 OFFCURVE",
"515 512 OFFCURVE",
"619 504 CURVE",
"619 676 LINE",
"561 687 OFFCURVE",
"469 696 OFFCURVE",
"397 696 CURVE SMOOTH",
"85 696 OFFCURVE",
"49 617 OFFCURVE",
"49 344 CURVE SMOOTH",
"49 70 OFFCURVE",
"87 -8 OFFCURVE",
"397 -8 CURVE SMOOTH"
);
}
);
width = 665;
},
{
anchors = (
{
name = bottom;
position = "{369, 0}";
},
{
name = top;
position = "{369, 688}";
}
);
layerId = "C6199351-AF36-494D-BF00-13EB6406F65F";
paths = (
{
closed = 1;
nodes = (
"473 -8 OFFCURVE",
"558 -2 OFFCURVE",
"612 6 CURVE",
"612 106 LINE",
"567 99 OFFCURVE",
"498 95 OFFCURVE",
"444 95 CURVE SMOOTH",
"223 95 OFFCURVE",
"205 112 OFFCURVE",
"205 344 CURVE SMOOTH",
"205 576 OFFCURVE",
"223 593 OFFCURVE",
"444 593 CURVE SMOOTH",
"483 593 OFFCURVE",
"550 589 OFFCURVE",
"607 582 CURVE",
"607 679 LINE",
"557 689 OFFCURVE",
"475 696 OFFCURVE",
"410 696 CURVE SMOOTH",
"123 696 OFFCURVE",
"80 630 OFFCURVE",
"80 344 CURVE SMOOTH",
"80 59 OFFCURVE",
"124 -8 OFFCURVE",
"410 -8 CURVE SMOOTH"
);
}
);
width = 678;
},
{
anchors = (
{
name = bottom;
position = "{392, 0}";
},
{
name = top;
position = "{392, 688}";
}
);
layerId = "E7639064-56EC-4BF1-BEDD-A20273C7A444";
paths = (
{
closed = 1;
nodes = (
"475 -8 OFFCURVE",
"553 -4 OFFCURVE",
"602 2 CURVE",
"602 36 LINE",
"553 30 OFFCURVE",
"483 26 OFFCURVE",
"428 26 CURVE SMOOTH",
"169 26 OFFCURVE",
"142 47 OFFCURVE",
"142 344 CURVE SMOOTH",
"142 641 OFFCURVE",
"169 662 OFFCURVE",
"428 662 CURVE SMOOTH",
"481 662 OFFCURVE",
"549 658 OFFCURVE",
"597 652 CURVE",
"597 684 LINE",
"551 691 OFFCURVE",
"477 696 OFFCURVE",
"416 696 CURVE SMOOTH",
"152 696 OFFCURVE",
"106 662 OFFCURVE",
"106 344 CURVE SMOOTH",
"106 22 OFFCURVE",
"152 -8 OFFCURVE",
"416 -8 CURVE SMOOTH"
);
}
);
width = 683;
}
);
leftKerningGroup = O;
rightKerningGroup = C;
unicode = 0043;
},
{
color = 6;
glyphname = D;
layers = (
{
anchors = (
{
name = bottom;
position = "{347, 0}";
},
{
name = center;
position = "{133, 344}";
},
{
name = top;
position = "{347, 688}";
}
);
layerId = UUID0;
paths = (
{
closed = 1;
nodes = (
"320 0 LINE",
"586 0 OFFCURVE",
"603 38 OFFCURVE",
"603 344 CURVE SMOOTH",
"603 650 OFFCURVE",
"586 688 OFFCURVE",
"320 688 CURVE SMOOTH",
"115 688 LINE",
"115 0 LINE"
);
},
{
closed = 1;
nodes = (
"151 654 LINE",
"300 654 LINE SMOOTH",
"549 654 OFFCURVE",
"567 648 OFFCURVE",
"567 344 CURVE SMOOTH",
"567 40 OFFCURVE",
"553 34 OFFCURVE",
"300 34 CURVE SMOOTH",
"151 34 LINE"
);
}
);
width = 693;
},
{
anchors = (
{
name = bottom;
position = "{335, 0}";
},
{
name = center;
position = "{168, 344}";
},
{
name = top;
position = "{335, 688}";
}
);
layerId = "4F93A97B-747D-4721-B098-38A63C534D7A";
paths = (
{
closed = 1;
nodes = (
"306 0 LINE",
"625 0 OFFCURVE",
"628 72 OFFCURVE",
"628 344 CURVE SMOOTH",
"628 616 OFFCURVE",
"625 688 OFFCURVE",
"306 688 CURVE SMOOTH",
"51 688 LINE",
"51 0 LINE"
);
},
{
closed = 1;
nodes = (
"285 521 LINE",
"309 521 LINE SMOOTH",
"393 521 OFFCURVE",
"393 516 OFFCURVE",
"393 343 CURVE SMOOTH",
"393 174 OFFCURVE",
"393 167 OFFCURVE",
"309 167 CURVE SMOOTH",
"285 167 LINE"
);
}
);
width = 670;
},
{
anchors = (
{
name = bottom;
position = "{249, 0}";
},
{
name = center;
position = "{99, 344}";
},
{
name = top;
position = "{249, 688}";
}
);
layerId = "E6BBBBE7-ECAD-4929-840D-43673C7BDEAF";
paths = (
{
closed = 1;
nodes = (
"235 0 LINE SMOOTH",
"416 0 OFFCURVE",
"438 38 OFFCURVE",
"438 344 CURVE SMOOTH",
"438 650 OFFCURVE",
"416 688 OFFCURVE",
"235 688 CURVE SMOOTH",
"81 688 LINE",
"81 0 LINE"
);
},
{
closed = 1;
nodes = (
"117 654 LINE",
"228 654 LINE SMOOTH",
"392 654 OFFCURVE",
"402 635 OFFCURVE",
"402 344 CURVE SMOOTH",
"402 53 OFFCURVE",
"392 34 OFFCURVE",
"228 34 CURVE SMOOTH",
"117 34 LINE"
);
}
);
width = 501;
},
{
anchors = (
{
name = bottom;
position = "{252, 0}";
},
{
name = center;
position = "{116, 344}";
},
{
name = top;
position = "{252, 688}";
}
);
layerId = "7836D3B9-397C-42C1-8084-A98A44B9119A";
paths = (
{
closed = 1;
nodes = (
"240 0 LINE SMOOTH",
"470 0 OFFCURVE",
"470 81 OFFCURVE",
"470 344 CURVE SMOOTH",
"470 608 OFFCURVE",
"470 688 OFFCURVE",
"240 688 CURVE SMOOTH",
"40 688 LINE",
"40 0 LINE"
);
},
{
closed = 1;
nodes = (
"219 540 LINE",
"241 540 LINE SMOOTH",
"290 540 OFFCURVE",
"290 539 OFFCURVE",
"290 344 CURVE SMOOTH",
"290 153 OFFCURVE",
"290 148 OFFCURVE",
"241 148 CURVE SMOOTH",
"219 148 LINE"
);
}
);
width = 500;
},
{
anchors = (
{
name = bottom;
position = "{246, 0}";
},
{
name = center;
position = "{120, 344}";
},
{
name = top;
position = "{246, 688}";
}
);
layerId = "374FF654-0B40-45EE-AE97-0DEB7620D1EC";
paths = (
{
closed = 1;
nodes = (
"234 0 LINE SMOOTH",
"440 0 OFFCURVE",
"447 67 OFFCURVE",
"447 344 CURVE SMOOTH",
"447 621 OFFCURVE",
"440 688 OFFCURVE",
"234 688 CURVE SMOOTH",
"64 688 LINE",
"64 0 LINE"
);
},
{
closed = 1;
nodes = (
"158 606 LINE",
"232 606 LINE SMOOTH",
"341 606 OFFCURVE",
"352 601 OFFCURVE",
"352 344 CURVE SMOOTH",
"352 87 OFFCURVE",
"342 82 OFFCURVE",
"232 82 CURVE SMOOTH",
"158 82 LINE"
);
}
);
width = 496;
},
{
anchors = (
{
name = bottom;
position = "{343, 0}";
},
{
name = center;
position = "{151, 344}";
},
{
name = top;
position = "{343, 688}";
}
);
layerId = "E7A95A6A-7487-49EE-B62A-BA87B06E4B57";
paths = (
{
closed = 1;
nodes = (
"317 0 LINE SMOOTH",
"609 0 OFFCURVE",
"619 64 OFFCURVE",
"619 344 CURVE SMOOTH",
"619 624 OFFCURVE",
"609 688 OFFCURVE",
"317 688 CURVE SMOOTH",
"87 688 LINE",
"87 0 LINE"
);
},
{
closed = 1;
nodes = (
"215 580 LINE",
"308 580 LINE SMOOTH",
"481 580 OFFCURVE",
"491 578 OFFCURVE",
"491 344 CURVE SMOOTH",
"491 109 OFFCURVE",
"483 108 OFFCURVE",
"308 108 CURVE",
"215 108 LINE"
);
}
);
width = 685;
},
{
anchors = (
{
name = bottom;
position = "{171, 0}";
},
{
name = center;
position = "{171, 344}";
},
{
name = top;
position = "{171, 688}";
}
);
layerId = "487ADAF7-57C4-4091-879E-1D750F439591";
paths = (
{
closed = 1;
nodes = (
"169 0 LINE SMOOTH",
"300 0 OFFCURVE",
"310 65 OFFCURVE",
"310 344 CURVE SMOOTH",
"310 625 OFFCURVE",
"300 688 OFFCURVE",
"169 688 CURVE SMOOTH",
"42 688 LINE",
"42 0 LINE"
);
},
{
closed = 1;
nodes = (
"119 617 LINE",
"170 617 LINE SMOOTH",
"221 617 OFFCURVE",
"232 605 OFFCURVE",
"232 344 CURVE SMOOTH",
"232 83 OFFCURVE",
"220 71 OFFCURVE",
"170 71 CURVE SMOOTH",
"119 71 LINE"
);
}
);
width = 342;
},
{
anchors = (
{
name = bottom;
position = "{174, 0}";
},
{
name = center;
position = "{174, 344}";
},
{
name = top;
position = "{174, 688}";
}
);
layerId = "7674DAFD-136A-491A-A3F0-195DB056B53F";
paths = (
{
closed = 1;
nodes = (
"181 0 LINE SMOOTH",
"329 0 OFFCURVE",
"328 95 OFFCURVE",
"328 344 CURVE SMOOTH",
"328 594 OFFCURVE",
"329 688 OFFCURVE",
"181 688 CURVE SMOOTH",
"29 688 LINE",
"29 0 LINE"
);
},
{
closed = 1;
nodes = (
"160 562 LINE",
"176 562 LINE SMOOTH",
"195 562 OFFCURVE",
"197 562 OFFCURVE",
"197 344 CURVE SMOOTH",
"197 126 OFFCURVE",
"194 126 OFFCURVE",
"176 126 CURVE SMOOTH",
"160 126 LINE"
);
}
);
width = 347;
},
{
anchors = (
{
name = bottom;
position = "{166, 0}";
},
{
name = center;
position = "{166, 344}";
},
{
name = top;
position = "{166, 688}";
}
);
layerId = "B5B62657-8F5D-48EE-9125-14A639410D02";
paths = (
{
closed = 1;
nodes = (
"159 0 LINE SMOOTH",
"274 0 OFFCURVE",
"292 49 OFFCURVE",
"292 344 CURVE SMOOTH",
"292 639 OFFCURVE",
"274 688 OFFCURVE",
"159 688 CURVE SMOOTH",
"52 688 LINE",
"52 0 LINE"
);
},
{
closed = 1;
nodes = (
"88 654 LINE",
"165 654 LINE SMOOTH",
"237 654 OFFCURVE",
"256 637 OFFCURVE",
"256 344 CURVE SMOOTH",
"256 51 OFFCURVE",
"236 34 OFFCURVE",
"165 34 CURVE SMOOTH",
"88 34 LINE"
);
}
);
width = 332;
},
{
anchors = (
{
name = bottom;
position = "{386, 0}";
},
{
name = center;
position = "{386, 344}";
},
{
name = top;
position = "{386, 688}";
}
);
layerId = "8EBCA172-37CB-4E59-A5FF-33FE92477777";
paths = (
{
closed = 1;
nodes = (
"346 0 LINE SMOOTH",
"719 0 OFFCURVE",
"723 65 OFFCURVE",
"723 344 CURVE SMOOTH",
"723 622 OFFCURVE",
"719 688 OFFCURVE",
"346 688 CURVE SMOOTH",
"58 688 LINE",
"58 0 LINE"
);
},
{
closed = 1;
nodes = (
"325 510 LINE",
"350 510 LINE SMOOTH",
"455 510 OFFCURVE",
"455 503 OFFCURVE",
"455 342 CURVE SMOOTH",
"455 188 OFFCURVE",
"455 178 OFFCURVE",
"350 178 CURVE SMOOTH",
"325 178 LINE"
);
}
);
width = 772;
},
{
anchors = (
{
name = bottom;
position = "{401, 0}";
},
{
name = center;
position = "{401, 344}";
},
{
name = top;
position = "{401, 688}";
}
);
layerId = "C6199351-AF36-494D-BF00-13EB6406F65F";
paths = (
{
closed = 1;
nodes = (
"367 0 LINE SMOOTH",
"706 0 OFFCURVE",
"717 58 OFFCURVE",
"717 344 CURVE SMOOTH",
"717 630 OFFCURVE",
"706 688 OFFCURVE",
"367 688 CURVE",
"108 688 LINE",
"108 0 LINE"
);
},
{
closed = 1;
nodes = (
"233 585 LINE",
"351 585 LINE SMOOTH",
"582 585 OFFCURVE",
"594 586 OFFCURVE",
"594 344 CURVE SMOOTH",
"594 102 OFFCURVE",
"586 103 OFFCURVE",
"351 103 CURVE SMOOTH",
"233 103 LINE"
);
}
);
width = 801;
},
{
anchors = (
{
name = bottom;
position = "{404, 0}";
},
{
name = center;
position = "{404, 344}";
},
{
name = top;
position = "{404, 688}";
}
);
layerId = "E7639064-56EC-4BF1-BEDD-A20273C7A444";
paths = (
{
closed = 1;
nodes = (
"371 0 LINE SMOOTH",
"686 0 OFFCURVE",
"702 34 OFFCURVE",
"702 344 CURVE SMOOTH",
"702 654 OFFCURVE",
"686 688 OFFCURVE",
"371 688 CURVE SMOOTH",
"135 688 LINE",
"135 0 LINE"
);
},
{
closed = 1;
nodes = (
"171 654 LINE",
"343 654 LINE SMOOTH",
"649 654 OFFCURVE",
"666 652 OFFCURVE",
"666 344 CURVE SMOOTH",
"666 36 OFFCURVE",
"654 34 OFFCURVE",
"343 34 CURVE SMOOTH",
"171 34 LINE"
);
}
);
width = 808;
}
);
leftKerningGroup = H;
rightKerningGroup = O;
unicode = 0044;
},
{
color = 6;
glyphname = Eth;
layers = (
{
layerId = UUID0;
paths = (
{
closed = 1;
nodes = (
"320 0 LINE SMOOTH",
"586 0 OFFCURVE",
"603 38 OFFCURVE",
"603 344 CURVE SMOOTH",
"603 650 OFFCURVE",
"586 688 OFFCURVE",
"320 688 CURVE SMOOTH",
"115 688 LINE",
"115 367 LINE",
"45 367 LINE",
"45 331 LINE",
"115 331 LINE",
"115 0 LINE"
);
},
{
closed = 1;
nodes = (
"151 331 LINE",
"280 331 LINE",
"280 367 LINE",
"151 367 LINE",
"151 654 LINE",
"300 654 LINE SMOOTH",
"549 654 OFFCURVE",
"567 648 OFFCURVE",
"567 344 CURVE SMOOTH",
"567 40 OFFCURVE",
"553 34 OFFCURVE",
"300 34 CURVE SMOOTH",
"151 34 LINE"
);
}
);
width = 693;
},
{
layerId = "4F93A97B-747D-4721-B098-38A63C534D7A";
paths = (
{
closed = 1;
nodes = (
"306 0 LINE SMOOTH",
"625 0 OFFCURVE",
"628 72 OFFCURVE",
"628 344 CURVE SMOOTH",
"628 616 OFFCURVE",
"625 688 OFFCURVE",
"306 688 CURVE",
"51 688 LINE",
"51 417 LINE",
"-9 417 LINE",
"-9 280 LINE",
"51 280 LINE",
"51 0 LINE"
);
},
{
closed = 1;
nodes = (
"285 280 LINE",
"347 280 LINE",
"347 417 LINE",
"285 417 LINE",
"285 521 LINE",
"309 521 LINE SMOOTH",
"393 521 OFFCURVE",
"393 516 OFFCURVE",
"393 343 CURVE SMOOTH",
"393 174 OFFCURVE",
"393 167 OFFCURVE",
"309 167 CURVE SMOOTH",
"285 167 LINE"
);
}
);
width = 670;
},
{
layerId = "E6BBBBE7-ECAD-4929-840D-43673C7BDEAF";
paths = (
{
closed = 1;
nodes = (
"235 0 LINE SMOOTH",
"416 0 OFFCURVE",
"438 38 OFFCURVE",
"438 344 CURVE SMOOTH",
"438 650 OFFCURVE",
"416 688 OFFCURVE",
"235 688 CURVE SMOOTH",
"81 688 LINE",
"81 367 LINE",
"22 367 LINE",
"22 331 LINE",
"81 331 LINE",
"81 0 LINE"
);
},
{
closed = 1;
nodes = (
"117 331 LINE",
"237 331 LINE",
"237 367 LINE",
"117 367 LINE",
"117 654 LINE",
"228 654 LINE SMOOTH",
"392 654 OFFCURVE",
"402 635 OFFCURVE",
"402 344 CURVE SMOOTH",
"402 53 OFFCURVE",
"392 34 OFFCURVE",
"228 34 CURVE SMOOTH",
"117 34 LINE"
);
}
);
width = 501;
},
{
layerId = "7836D3B9-397C-42C1-8084-A98A44B9119A";
paths = (
{
closed = 1;
nodes = (
"240 0 LINE SMOOTH",
"470 0 OFFCURVE",
"470 81 OFFCURVE",
"470 344 CURVE SMOOTH",
"470 608 OFFCURVE",
"470 688 OFFCURVE",
"240 688 CURVE SMOOTH",
"40 688 LINE",
"40 417 LINE",
"-4 417 LINE",
"-4 279 LINE",
"40 279 LINE",
"40 0 LINE"
);
},
{
closed = 1;
nodes = (
"219 279 LINE",
"262 279 LINE",
"262 417 LINE",
"219 417 LINE",
"219 540 LINE",
"241 540 LINE SMOOTH",
"290 540 OFFCURVE",
"290 539 OFFCURVE",
"290 344 CURVE SMOOTH",
"290 153 OFFCURVE",
"290 148 OFFCURVE",
"241 148 CURVE SMOOTH",
"219 148 LINE"
);
}
);
width = 501;
},
{
layerId = "374FF654-0B40-45EE-AE97-0DEB7620D1EC";
paths = (
{
closed = 1;
nodes = (
"234 0 LINE SMOOTH",
"440 0 OFFCURVE",
"447 67 OFFCURVE",
"447 344 CURVE SMOOTH",
"447 621 OFFCURVE",
"440 688 OFFCURVE",
"234 688 CURVE SMOOTH",
"64 688 LINE",
"64 388 LINE",
"9 388 LINE",
"9 309 LINE",
"64 309 LINE",
"64 0 LINE"
);
},
{
closed = 1;
nodes = (
"158 309 LINE",
"249 309 LINE",
"249 388 LINE",
"158 388 LINE",
"158 606 LINE",
"232 606 LINE SMOOTH",
"341 606 OFFCURVE",
"352 601 OFFCURVE",
"352 344 CURVE SMOOTH",
"352 87 OFFCURVE",
"342 82 OFFCURVE",
"232 82 CURVE SMOOTH",
"158 82 LINE"
);
}
);
width = 496;
},
{
layerId = "E7A95A6A-7487-49EE-B62A-BA87B06E4B57";
paths = (
{
closed = 1;
nodes = (
"317 0 LINE SMOOTH",
"609 0 OFFCURVE",
"619 64 OFFCURVE",
"619 344 CURVE SMOOTH",
"619 624 OFFCURVE",
"609 688 OFFCURVE",
"317 688 CURVE SMOOTH",
"87 688 LINE",
"87 397 LINE",
"20 397 LINE",
"20 299 LINE",
"87 299 LINE",
"87 0 LINE"
);
},
{
closed = 1;
nodes = (
"215 299 LINE",
"309 299 LINE",
"309 397 LINE",
"215 397 LINE",
"215 580 LINE",
"308 580 LINE",
"481 580 OFFCURVE",
"491 578 OFFCURVE",
"491 344 CURVE SMOOTH",
"491 109 OFFCURVE",
"483 108 OFFCURVE",
"308 108 CURVE SMOOTH",
"215 108 LINE"
);
}
);
width = 685;
},
{
layerId = "487ADAF7-57C4-4091-879E-1D750F439591";
paths = (
{
closed = 1;
nodes = (
"169 0 LINE SMOOTH",
"300 0 OFFCURVE",
"310 65 OFFCURVE",
"310 344 CURVE SMOOTH",
"310 625 OFFCURVE",
"300 688 OFFCURVE",
"169 688 CURVE SMOOTH",
"42 688 LINE",
"42 375 LINE",
"2 375 LINE",
"2 323 LINE",
"42 323 LINE",
"42 0 LINE"
);
},
{
closed = 1;
nodes = (
"119 323 LINE",
"196 323 LINE",
"196 375 LINE",
"119 375 LINE",
"119 617 LINE",
"170 617 LINE SMOOTH",
"221 617 OFFCURVE",
"232 605 OFFCURVE",
"232 344 CURVE SMOOTH",
"232 83 OFFCURVE",
"220 71 OFFCURVE",
"170 71 CURVE SMOOTH",
"119 71 LINE"
);
}
);
width = 343;
},
{
layerId = "7674DAFD-136A-491A-A3F0-195DB056B53F";
paths = (
{
closed = 1;
nodes = (
"181 0 LINE SMOOTH",
"329 0 OFFCURVE",
"328 95 OFFCURVE",
"328 344 CURVE SMOOTH",
"328 594 OFFCURVE",
"329 688 OFFCURVE",
"181 688 CURVE SMOOTH",
"29 688 LINE",
"29 383 LINE",
"1 383 LINE",
"1 319 LINE",
"29 319 LINE",
"29 0 LINE"
);
},
{
closed = 1;
nodes = (
"160 319 LINE",
"186 319 LINE",
"186 383 LINE",
"160 383 LINE",
"160 562 LINE",
"176 562 LINE SMOOTH",
"195 562 OFFCURVE",
"197 562 OFFCURVE",
"197 344 CURVE SMOOTH",
"197 126 OFFCURVE",
"194 126 OFFCURVE",
"176 126 CURVE SMOOTH",
"160 126 LINE"
);
}
);
width = 350;
},
{
layerId = "B5B62657-8F5D-48EE-9125-14A639410D02";
paths = (
{
closed = 1;
nodes = (
"159 0 LINE SMOOTH",
"274 0 OFFCURVE",
"292 49 OFFCURVE",
"292 344 CURVE SMOOTH",
"292 639 OFFCURVE",
"274 688 OFFCURVE",
"159 688 CURVE SMOOTH",
"52 688 LINE",
"52 367 LINE",
"2 367 LINE",
"2 331 LINE",
"52 331 LINE",
"52 0 LINE"
);
},
{
closed = 1;
nodes = (
"88 331 LINE",
"199 331 LINE",
"199 367 LINE",
"88 367 LINE",
"88 654 LINE",
"165 654 LINE SMOOTH",
"237 654 OFFCURVE",
"256 637 OFFCURVE",
"256 344 CURVE SMOOTH",
"256 51 OFFCURVE",
"236 34 OFFCURVE",
"165 34 CURVE SMOOTH",
"88 34 LINE"
);
}
);
width = 332;
},
{
layerId = "8EBCA172-37CB-4E59-A5FF-33FE92477777";
paths = (
{
closed = 1;
nodes = (
"346 0 LINE SMOOTH",
"719 0 OFFCURVE",
"723 65 OFFCURVE",
"723 344 CURVE SMOOTH",
"723 622 OFFCURVE",
"719 688 OFFCURVE",
"346 688 CURVE SMOOTH",
"58 688 LINE",
"58 399 LINE",
"-12 399 LINE",
"-12 299 LINE",
"58 299 LINE",
"58 0 LINE"
);
},
{
closed = 1;
nodes = (
"325 299 LINE",
"398 299 LINE",
"398 399 LINE",
"325 399 LINE",
"325 510 LINE",
"350 510 LINE SMOOTH",
"455 510 OFFCURVE",
"455 503 OFFCURVE",
"455 342 CURVE SMOOTH",
"455 188 OFFCURVE",
"455 178 OFFCURVE",
"350 178 CURVE SMOOTH",
"325 178 LINE"
);
}
);
width = 771;
},
{
layerId = "C6199351-AF36-494D-BF00-13EB6406F65F";
paths = (
{
closed = 1;
nodes = (
"367 0 LINE SMOOTH",
"706 0 OFFCURVE",
"717 58 OFFCURVE",
"717 344 CURVE SMOOTH",
"717 630 OFFCURVE",
"706 688 OFFCURVE",
"367 688 CURVE SMOOTH",
"108 688 LINE",
"108 385 LINE",
"32 385 LINE",
"32 310 LINE",
"108 310 LINE",
"108 0 LINE"
);
},
{
closed = 1;
nodes = (
"233 310 LINE",
"340 310 LINE",
"340 385 LINE",
"233 385 LINE",
"233 585 LINE",
"351 585 LINE SMOOTH",
"582 585 OFFCURVE",
"594 586 OFFCURVE",
"594 344 CURVE SMOOTH",
"594 102 OFFCURVE",
"586 103 OFFCURVE",
"351 103 CURVE SMOOTH",
"233 103 LINE"
);
}
);
width = 801;
},
{
layerId = "E7639064-56EC-4BF1-BEDD-A20273C7A444";
paths = (
{
closed = 1;
nodes = (
"371 0 LINE SMOOTH",
"686 0 OFFCURVE",
"702 34 OFFCURVE",
"702 344 CURVE SMOOTH",
"702 654 OFFCURVE",
"686 688 OFFCURVE",
"371 688 CURVE SMOOTH",
"135 688 LINE",
"135 367 LINE",
"59 367 LINE",
"59 331 LINE",
"135 331 LINE",
"135 0 LINE"
);
},
{
closed = 1;
nodes = (
"171 331 LINE",
"306 331 LINE",
"306 367 LINE",
"171 367 LINE",
"171 654 LINE",
"343 654 LINE SMOOTH",
"649 654 OFFCURVE",
"666 652 OFFCURVE",
"666 344 CURVE SMOOTH",
"666 36 OFFCURVE",
"654 34 OFFCURVE",
"343 34 CURVE SMOOTH",
"171 34 LINE"
);
}
);
width = 808;
}
);
leftKerningGroup = H;
rightKerningGroup = O;
unicode = 00D0;
},
{
color = 6;
glyphname = E;
layers = (
{
anchors = (
{
name = bottom;
position = "{333, 0}";
},
{
name = ogonek;
position = "{541, 0}";
},
{
name = top;
position = "{333, 688}";
},
{
name = topleft;
position = "{115, 688}";
}
);
layerId = UUID0;
paths = (
{
closed = 1;
nodes = (
"541 0 LINE",
"541 34 LINE",
"151 34 LINE",
"151 331 LINE",
"494 331 LINE",
"494 365 LINE",
"151 365 LINE",
"151 654 LINE",
"541 654 LINE",
"541 688 LINE",
"115 688 LINE",
"115 0 LINE"
);
}
);
width = 598;
},
{
anchors = (
{
name = bottom;
position = "{308, 0}";
},
{
name = ogonek;
position = "{555, 0}";
},
{
name = top;
position = "{308, 688}";
},
{
name = topleft;
position = "{51, 688}";
}
);
layerId = "4F93A97B-747D-4721-B098-38A63C534D7A";
paths = (
{
closed = 1;
nodes = (
"555 0 LINE",
"555 167 LINE",
"284 167 LINE",
"284 266 LINE",
"508 266 LINE",
"508 429 LINE",
"284 429 LINE",
"284 521 LINE",
"555 521 LINE",
"555 688 LINE",
"51 688 LINE",
"51 0 LINE"
);
}
);
width = 603;
},
{
anchors = (
{
name = bottom;
position = "{227, 0}";
},
{
name = ogonek;
position = "{393, 0}";
},
{
name = top;
position = "{227, 688}";
},
{
name = topleft;
position = "{81, 688}";
}
);
layerId = "E6BBBBE7-ECAD-4929-840D-43673C7BDEAF";
paths = (
{
closed = 1;
nodes = (
"393 0 LINE",
"393 34 LINE",
"118 34 LINE",
"118 331 LINE",
"359 331 LINE",
"359 365 LINE",
"118 365 LINE",
"118 654 LINE",
"393 654 LINE",
"393 688 LINE",
"81 688 LINE",
"81 0 LINE"
);
}
);
width = 432;
},
{
anchors = (
{
name = bottom;
position = "{216, 0}";
},
{
name = ogonek;
position = "{393, 0}";
},
{
name = top;
position = "{216, 688}";
},
{
name = topleft;
position = "{40, 688}";
}
);
layerId = "7836D3B9-397C-42C1-8084-A98A44B9119A";
paths = (
{
closed = 1;
nodes = (
"393 0 LINE",
"393 148 LINE",
"220 148 LINE",
"220 274 LINE",
"367 274 LINE",
"367 421 LINE",
"220 421 LINE",
"220 540 LINE",
"393 540 LINE",
"393 688 LINE",
"40 688 LINE",
"40 0 LINE"
);
}
);
width = 426;
},
{
anchors = (
{
name = bottom;
position = "{238, 0}";
},
{
name = ogonek;
position = "{392, 0}";
},
{
name = top;
position = "{238, 688}";
},
{
name = topleft;
position = "{64, 688}";
}
);
layerId = "374FF654-0B40-45EE-AE97-0DEB7620D1EC";
paths = (
{
closed = 1;
nodes = (
"392 0 LINE",
"392 82 LINE",
"158 82 LINE",
"158 307 LINE",
"361 307 LINE",
"361 389 LINE",
"158 389 LINE",
"158 606 LINE",
"392 606 LINE",
"392 688 LINE",
"64 688 LINE",
"64 0 LINE"
);
}
);
width = 430;
},
{
anchors = (
{
name = bottom;
position = "{327, 0}";
},
{
name = ogonek;
position = "{552, 0}";
},
{
name = top;
position = "{327, 688}";
},
{
name = topleft;
position = "{87, 688}";
}
);
layerId = "E7A95A6A-7487-49EE-B62A-BA87B06E4B57";
paths = (
{
closed = 1;
nodes = (
"552 0 LINE",
"552 108 LINE",
"215 108 LINE",
"215 293 LINE",
"505 293 LINE",
"505 401 LINE",
"215 401 LINE",
"215 580 LINE",
"552 580 LINE",
"552 688 LINE",
"87 688 LINE",
"87 0 LINE"
);
}
);
width = 608;
},
{
anchors = (
{
name = bottom;
position = "{154, 0}";
},
{
name = ogonek;
position = "{260, 0}";
},
{
name = top;
position = "{154, 688}";
},
{
name = topleft;
position = "{42, 688}";
}
);
layerId = "487ADAF7-57C4-4091-879E-1D750F439591";
paths = (
{
closed = 1;
nodes = (
"260 0 LINE",
"260 71 LINE",
"120 71 LINE",
"120 312 LINE",
"243 312 LINE",
"243 383 LINE",
"120 383 LINE",
"120 617 LINE",
"260 617 LINE",
"260 688 LINE",
"42 688 LINE",
"42 0 LINE"
);
}
);
width = 280;
},
{
anchors = (
{
name = bottom;
position = "{137, 0}";
},
{
name = ogonek;
position = "{247, 0}";
},
{
name = top;
position = "{137, 688}";
},
{
name = topleft;
position = "{29, 688}";
}
);
layerId = "7674DAFD-136A-491A-A3F0-195DB056B53F";
paths = (
{
closed = 1;
nodes = (
"247 0 LINE",
"247 126 LINE",
"162 126 LINE",
"162 284 LINE",
"241 284 LINE",
"241 411 LINE",
"162 411 LINE",
"162 562 LINE",
"247 562 LINE",
"247 688 LINE",
"29 688 LINE",
"29 0 LINE"
);
}
);
width = 268;
},
{
anchors = (
{
name = bottom;
position = "{160, 0}";
},
{
name = ogonek;
position = "{263, 0}";
},
{
name = top;
position = "{160, 688}";
},
{
name = topleft;
position = "{52, 688}";
}
);
layerId = "B5B62657-8F5D-48EE-9125-14A639410D02";
paths = (
{
closed = 1;
nodes = (
"263 0 LINE",
"263 34 LINE",
"89 34 LINE",
"89 331 LINE",
"240 331 LINE",
"240 365 LINE",
"89 365 LINE",
"89 654 LINE",
"263 654 LINE",
"263 688 LINE",
"52 688 LINE",
"52 0 LINE"
);
}
);
width = 286;
},
{
anchors = (
{
name = bottom;
position = "{355, 0}";
},
{
name = ogonek;
position = "{652, 0}";
},
{
name = top;
position = "{355, 688}";
},
{
name = topleft;
position = "{58, 688}";
}
);
layerId = "8EBCA172-37CB-4E59-A5FF-33FE92477777";
paths = (
{
closed = 1;
nodes = (
"652 0 LINE",
"652 178 LINE",
"322 178 LINE",
"322 261 LINE",
"593 261 LINE",
"593 434 LINE",
"322 434 LINE",
"322 510 LINE",
"652 510 LINE",
"652 688 LINE",
"58 688 LINE",
"58 0 LINE"
);
}
);
width = 709;
},
{
anchors = (
{
name = bottom;
position = "{383, 0}";
},
{
name = ogonek;
position = "{646, 0}";
},
{
name = top;
position = "{383, 688}";
},
{
name = topleft;
position = "{108, 688}";
}
);
layerId = "C6199351-AF36-494D-BF00-13EB6406F65F";
paths = (
{
closed = 1;
nodes = (
"646 0 LINE",
"646 103 LINE",
"233 103 LINE",
"233 295 LINE",
"589 295 LINE",
"589 398 LINE",
"233 398 LINE",
"233 585 LINE",
"646 585 LINE",
"646 688 LINE",
"108 688 LINE",
"108 0 LINE"
);
}
);
width = 713;
},
{
anchors = (
{
name = bottom;
position = "{380, 0}";
},
{
name = ogonek;
position = "{630, 0}";
},
{
name = top;
position = "{380, 688}";
},
{
name = topleft;
position = "{135, 688}";
}
);
layerId = "E7639064-56EC-4BF1-BEDD-A20273C7A444";
paths = (
{
closed = 1;
nodes = (
"630 0 LINE",
"630 34 LINE",
"171 34 LINE",
"171 331 LINE",
"575 331 LINE",
"575 365 LINE",
"171 365 LINE",
"171 654 LINE",
"630 654 LINE",
"630 688 LINE",
"135 688 LINE",
"135 0 LINE"
);
}
);
width = 698;
}
);
leftKerningGroup = H;
rightKerningGroup = E;
unicode = 0045;
},
{
color = 6;
glyphname = F;
layers = (
{
anchors = (
{
name = bottom;
position = "{133, 0}";
},
{
name = top;
position = "{318, 688}";
}
);
layerId = UUID0;
paths = (
{
closed = 1;
nodes = (
"151 0 LINE",
"151 317 LINE",
"484 317 LINE",
"484 351 LINE",
"151 351 LINE",
"151 654 LINE",
"521 654 LINE",
"521 688 LINE",
"115 688 LINE",
"115 0 LINE"
);
}
);
width = 561;
},
{
anchors = (
{
name = bottom;
position = "{168, 0}";
},
{
name = top;
position = "{293, 688}";
}
);
layerId = "4F93A97B-747D-4721-B098-38A63C534D7A";
paths = (
{
closed = 1;
nodes = (
"284 0 LINE",
"284 233 LINE",
"498 233 LINE",
"498 400 LINE",
"284 400 LINE",
"284 521 LINE",
"535 521 LINE",
"535 688 LINE",
"51 688 LINE",
"51 0 LINE"
);
}
);
width = 569;
},
{
anchors = (
{
name = bottom;
position = "{100, 0}";
},
{
name = top;
position = "{230, 688}";
}
);
layerId = "E6BBBBE7-ECAD-4929-840D-43673C7BDEAF";
paths = (
{
closed = 1;
nodes = (
"118 0 LINE",
"118 317 LINE",
"352 317 LINE",
"352 351 LINE",
"118 351 LINE",
"118 654 LINE",
"379 654 LINE",
"379 688 LINE",
"81 688 LINE",
"81 0 LINE"
);
}
);
width = 409;
},
{
anchors = (
{
name = bottom;
position = "{129, 0}";
},
{
name = top;
position = "{208, 688}";
}
);
layerId = "7836D3B9-397C-42C1-8084-A98A44B9119A";
paths = (
{
closed = 1;
nodes = (
"220 0 LINE",
"220 254 LINE",
"356 254 LINE",
"356 402 LINE",
"220 402 LINE",
"220 540 LINE",
"377 540 LINE",
"377 688 LINE",
"40 688 LINE",
"40 0 LINE"
);
}
);
width = 397;
},
{
anchors = (
{
name = bottom;
position = "{111, 0}";
},
{
name = top;
position = "{220, 688}";
}
);
layerId = "374FF654-0B40-45EE-AE97-0DEB7620D1EC";
paths = (
{
closed = 1;
nodes = (
"158 0 LINE",
"158 290 LINE",
"353 290 LINE",
"353 372 LINE",
"158 372 LINE",
"158 606 LINE",
"377 606 LINE",
"377 688 LINE",
"64 688 LINE",
"64 0 LINE"
);
}
);
width = 404;
},
{
anchors = (
{
name = bottom;
position = "{151, 0}";
},
{
name = top;
position = "{310, 688}";
}
);
layerId = "E7A95A6A-7487-49EE-B62A-BA87B06E4B57";
paths = (
{
closed = 1;
nodes = (
"215 0 LINE",
"215 276 LINE",
"495 276 LINE",
"495 384 LINE",
"215 384 LINE",
"215 580 LINE",
"532 580 LINE",
"532 688 LINE",
"87 688 LINE",
"87 0 LINE"
);
}
);
width = 569;
},
{
anchors = (
{
name = bottom;
position = "{132, 0}";
},
{
name = top;
position = "{132, 688}";
}
);
layerId = "487ADAF7-57C4-4091-879E-1D750F439591";
paths = (
{
closed = 1;
nodes = (
"120 0 LINE",
"120 299 LINE",
"234 299 LINE",
"234 370 LINE",
"120 370 LINE",
"120 617 LINE",
"249 617 LINE",
"249 688 LINE",
"42 688 LINE",
"42 0 LINE"
);
}
);
width = 264;
},
{
anchors = (
{
name = bottom;
position = "{122, 0}";
},
{
name = top;
position = "{122, 688}";
}
);
layerId = "7674DAFD-136A-491A-A3F0-195DB056B53F";
paths = (
{
closed = 1;
nodes = (
"162 0 LINE",
"162 278 LINE",
"228 278 LINE",
"228 404 LINE",
"162 404 LINE",
"162 562 LINE",
"237 562 LINE",
"237 688 LINE",
"29 688 LINE",
"29 0 LINE"
);
}
);
width = 244;
},
{
anchors = (
{
name = bottom;
position = "{137, 0}";
},
{
name = top;
position = "{137, 688}";
}
);
layerId = "B5B62657-8F5D-48EE-9125-14A639410D02";
paths = (
{
closed = 1;
nodes = (
"89 0 LINE",
"89 317 LINE",
"235 317 LINE",
"235 351 LINE",
"89 351 LINE",
"89 654 LINE",
"253 654 LINE",
"253 688 LINE",
"52 688 LINE",
"52 0 LINE"
);
}
);
width = 274;
},
{
anchors = (
{
name = bottom;
position = "{336, 0}";
},
{
name = top;
position = "{336, 688}";
}
);
layerId = "8EBCA172-37CB-4E59-A5FF-33FE92477777";
paths = (
{
closed = 1;
nodes = (
"322 0 LINE",
"322 216 LINE",
"583 216 LINE",
"583 395 LINE",
"322 395 LINE",
"322 510 LINE",
"630 510 LINE",
"630 688 LINE",
"58 688 LINE",
"58 0 LINE"
);
}
);
width = 672;
},
{
anchors = (
{
name = bottom;
position = "{335, 0}";
},
{
name = top;
position = "{335, 688}";
}
);
layerId = "C6199351-AF36-494D-BF00-13EB6406F65F";
paths = (
{
closed = 1;
nodes = (
"233 0 LINE",
"233 279 LINE",
"579 279 LINE",
"579 382 LINE",
"233 382 LINE",
"233 585 LINE",
"623 585 LINE",
"623 688 LINE",
"108 688 LINE",
"108 0 LINE"
);
}
);
width = 669;
},
{
anchors = (
{
name = bottom;
position = "{326, 0}";
},
{
name = top;
position = "{326, 688}";
}
);
layerId = "E7639064-56EC-4BF1-BEDD-A20273C7A444";
paths = (
{
closed = 1;
nodes = (
"171 0 LINE",
"171 317 LINE",
"563 317 LINE",
"563 351 LINE",
"171 351 LINE",
"171 654 LINE",
"606 654 LINE",
"606 688 LINE",
"135 688 LINE",
"135 0 LINE"
);
}
);
width = 652;
}
);
leftKerningGroup = H;
rightKerningGroup = F;
unicode = 0046;
},
{
color = 6;
glyphname = G;
layers = (
{
anchors = (
{
name = bottom;
position = "{362, 0}";
},
{
name = top;
position = "{362, 688}";
}
);
layerId = UUID0;
paths = (
{
closed = 1;
nodes = (
"432 -8 OFFCURVE",
"519 -1 OFFCURVE",
"583 9 CURVE",
"583 349 LINE",
"353 349 LINE",
"353 315 LINE",
"547 315 LINE",
"547 38 LINE",
"502 32 OFFCURVE",
"419 26 OFFCURVE",
"371 26 CURVE SMOOTH",
"152 26 OFFCURVE",
"126 66 OFFCURVE",
"126 344 CURVE SMOOTH",
"126 659 OFFCURVE",
"177 662 OFFCURVE",
"402 662 CURVE SMOOTH",
"446 662 OFFCURVE",
"522 655 OFFCURVE",
"580 646 CURVE",
"580 678 LINE",
"528 688 OFFCURVE",
"440 696 OFFCURVE",
"372 696 CURVE SMOOTH",
"139 696 OFFCURVE",
"90 657 OFFCURVE",
"90 344 CURVE SMOOTH",
"90 31 OFFCURVE",
"136 -8 OFFCURVE",
"372 -8 CURVE SMOOTH"
);
}
);
width = 683;
},
{
anchors = (
{
name = bottom;
position = "{356, 0}";
},
{
name = top;
position = "{356, 688}";
}
);
layerId = "4F93A97B-747D-4721-B098-38A63C534D7A";
paths = (
{
closed = 1;
nodes = (
"432 -8 OFFCURVE",
"539 1 OFFCURVE",
"614 13 CURVE",
"614 414 LINE",
"344 414 LINE",
"344 263 LINE",
"410 263 LINE",
"410 156 LINE",
"395 156 OFFCURVE",
"374 155 OFFCURVE",
"367 155 CURVE SMOOTH",
"280 155 OFFCURVE",
"271 183 OFFCURVE",
"271 344 CURVE SMOOTH",
"271 525 OFFCURVE",
"276 529 OFFCURVE",
"432 529 CURVE SMOOTH",
"468 529 OFFCURVE",
"549 523 OFFCURVE",
"611 516 CURVE",
"611 672 LINE",
"535 686 OFFCURVE",
"430 696 OFFCURVE",
"357 696 CURVE SMOOTH",
"98 696 OFFCURVE",
"42 620 OFFCURVE",
"42 344 CURVE SMOOTH",
"42 68 OFFCURVE",
"98 -8 OFFCURVE",
"357 -8 CURVE SMOOTH"
);
}
);
width = 662;
},
{
anchors = (
{
name = bottom;
position = "{264, 0}";
},
{
name = top;
position = "{264, 688}";
}
);
layerId = "E6BBBBE7-ECAD-4929-840D-43673C7BDEAF";
paths = (
{
closed = 1;
nodes = (
"313 -8 OFFCURVE",
"375 -1 OFFCURVE",
"423 9 CURVE",
"423 349 LINE",
"255 349 LINE",
"255 315 LINE",
"387 315 LINE",
"387 38 LINE",
"360 31 OFFCURVE",
"309 26 OFFCURVE",
"268 26 CURVE SMOOTH",
"114 26 OFFCURVE",
"99 76 OFFCURVE",
"99 344 CURVE SMOOTH",
"99 649 OFFCURVE",
"129 662 OFFCURVE",
"291 662 CURVE SMOOTH",
"324 662 OFFCURVE",
"380 655 OFFCURVE",
"421 646 CURVE",
"421 678 LINE",
"382 689 OFFCURVE",
"320 696 OFFCURVE",
"269 696 CURVE SMOOTH",
"97 696 OFFCURVE",
"63 646 OFFCURVE",
"63 344 CURVE SMOOTH",
"63 37 OFFCURVE",
"103 -8 OFFCURVE",
"269 -8 CURVE SMOOTH"
);
}
);
width = 488;
},
{
anchors = (
{
name = bottom;
position = "{276, 0}";
},
{
name = top;
position = "{276, 688}";
}
);
layerId = "7836D3B9-397C-42C1-8084-A98A44B9119A";
paths = (
{
closed = 1;
nodes = (
"327 -8 OFFCURVE",
"407 1 OFFCURVE",
"458 14 CURVE",
"458 413 LINE",
"256 413 LINE",
"256 272 LINE",
"299 272 LINE",
"299 137 LINE",
"291 136 OFFCURVE",
"281 135 OFFCURVE",
"271 135 CURVE SMOOTH",
"220 135 OFFCURVE",
"207 135 OFFCURVE",
"207 344 CURVE SMOOTH",
"207 548 OFFCURVE",
"217 548 OFFCURVE",
"326 548 CURVE SMOOTH",
"349 548 OFFCURVE",
"392 545 OFFCURVE",
"456 538 CURVE",
"456 675 LINE",
"404 687 OFFCURVE",
"328 696 OFFCURVE",
"276 696 CURVE SMOOTH",
"77 696 OFFCURVE",
"30 630 OFFCURVE",
"30 344 CURVE SMOOTH",
"30 60 OFFCURVE",
"73 -8 OFFCURVE",
"264 -8 CURVE SMOOTH"
);
}
);
width = 494;
},
{
anchors = (
{
name = bottom;
position = "{262, 0}";
},
{
name = top;
position = "{262, 688}";
}
);
layerId = "374FF654-0B40-45EE-AE97-0DEB7620D1EC";
paths = (
{
closed = 1;
nodes = (
"316 -8 OFFCURVE",
"383 0 OFFCURVE",
"431 11 CURVE",
"431 377 LINE",
"251 377 LINE",
"251 297 LINE",
"340 297 LINE",
"340 79 LINE",
"315 74 OFFCURVE",
"290 72 OFFCURVE",
"265 72 CURVE SMOOTH",
"158 72 OFFCURVE",
"143 109 OFFCURVE",
"143 344 CURVE SMOOTH",
"143 610 OFFCURVE",
"168 614 OFFCURVE",
"302 614 CURVE SMOOTH",
"332 614 OFFCURVE",
"374 609 OFFCURVE",
"429 600 CURVE",
"429 676 LINE",
"388 688 OFFCURVE",
"320 696 OFFCURVE",
"268 696 CURVE SMOOTH",
"89 696 OFFCURVE",
"49 634 OFFCURVE",
"49 344 CURVE SMOOTH",
"49 53 OFFCURVE",
"88 -8 OFFCURVE",
"265 -8 CURVE SMOOTH"
);
}
);
width = 484;
},
{
anchors = (
{
name = bottom;
position = "{355, 0}";
},
{
name = top;
position = "{355, 688}";
}
);
layerId = "E7A95A6A-7487-49EE-B62A-BA87B06E4B57";
paths = (
{
closed = 1;
nodes = (
"429 -8 OFFCURVE",
"523 1 OFFCURVE",
"592 14 CURVE",
"592 387 LINE",
"346 387 LINE",
"346 282 LINE",
"469 282 LINE",
"469 102 LINE",
"447 99 OFFCURVE",
"405 97 OFFCURVE",
"369 97 CURVE SMOOTH",
"214 97 OFFCURVE",
"193 131 OFFCURVE",
"193 344 CURVE SMOOTH",
"193 584 OFFCURVE",
"224 588 OFFCURVE",
"417 588 CURVE SMOOTH",
"452 588 OFFCURVE",
"519 582 OFFCURVE",
"589 573 CURVE",
"589 674 LINE",
"523 687 OFFCURVE",
"431 696 OFFCURVE",
"365 696 CURVE SMOOTH",
"118 696 OFFCURVE",
"65 624 OFFCURVE",
"65 344 CURVE SMOOTH",
"65 64 OFFCURVE",
"116 -8 OFFCURVE",
"365 -8 CURVE SMOOTH"
);
}
);
width = 670;
},
{
anchors = (
{
name = bottom;
position = "{194, 0}";
},
{
name = top;
position = "{194, 688}";
}
);
layerId = "487ADAF7-57C4-4091-879E-1D750F439591";
paths = (
{
closed = 1;
nodes = (
"220 -8 OFFCURVE",
"269 0 OFFCURVE",
"303 11 CURVE",
"303 371 LINE",
"176 371 LINE",
"176 300 LINE",
"227 300 LINE",
"227 68 LINE",
"218 64 OFFCURVE",
"203 61 OFFCURVE",
"184 61 CURVE SMOOTH",
"114 61 OFFCURVE",
"108 99 OFFCURVE",
"108 344 CURVE SMOOTH",
"108 616 OFFCURVE",
"124 625 OFFCURVE",
"212 625 CURVE SMOOTH",
"231 625 OFFCURVE",
"269 619 OFFCURVE",
"303 612 CURVE",
"303 678 LINE",
"273 690 OFFCURVE",
"226 696 OFFCURVE",
"189 696 CURVE SMOOTH",
"61 696 OFFCURVE",
"30 639 OFFCURVE",
"30 344 CURVE SMOOTH",
"30 47 OFFCURVE",
"60 -8 OFFCURVE",
"181 -8 CURVE SMOOTH"
);
}
);
width = 331;
},
{
anchors = (
{
name = bottom;
position = "{192, 0}";
},
{
name = top;
position = "{192, 688}";
}
);
layerId = "7674DAFD-136A-491A-A3F0-195DB056B53F";
paths = (
{
closed = 1;
nodes = (
"232 -8 OFFCURVE",
"288 1 OFFCURVE",
"318 14 CURVE",
"318 411 LINE",
"177 411 LINE",
"177 284 LINE",
"198 284 LINE",
"198 114 LINE",
"200 114 OFFCURVE",
"198 113 OFFCURVE",
"185 113 CURVE SMOOTH",
"153 113 OFFCURVE",
"152 128 OFFCURVE",
"152 344 CURVE SMOOTH",
"152 568 OFFCURVE",
"164 570 OFFCURVE",
"232 570 CURVE SMOOTH",
"243 570 OFFCURVE",
"281 567 OFFCURVE",
"317 562 CURVE",
"317 677 LINE",
"287 689 OFFCURVE",
"237 696 OFFCURVE",
"202 696 CURVE SMOOTH",
"60 696 OFFCURVE",
"19 634 OFFCURVE",
"19 344 CURVE SMOOTH",
"19 56 OFFCURVE",
"49 -8 OFFCURVE",
"181 -8 CURVE SMOOTH"
);
}
);
width = 343;
},
{
anchors = (
{
name = bottom;
position = "{183, 0}";
},
{
name = top;
position = "{183, 688}";
}
);
layerId = "B5B62657-8F5D-48EE-9125-14A639410D02";
paths = (
{
closed = 1;
nodes = (
"209 -8 OFFCURVE",
"250 -1 OFFCURVE",
"283 9 CURVE",
"283 349 LINE",
"169 349 LINE",
"169 315 LINE",
"247 315 LINE",
"247 38 LINE",
"232 31 OFFCURVE",
"204 26 OFFCURVE",
"178 26 CURVE SMOOTH",
"86 26 OFFCURVE",
"76 78 OFFCURVE",
"76 344 CURVE SMOOTH",
"76 647 OFFCURVE",
"95 662 OFFCURVE",
"194 662 CURVE SMOOTH",
"216 662 OFFCURVE",
"254 655 OFFCURVE",
"282 646 CURVE",
"282 678 LINE",
"254 689 OFFCURVE",
"212 696 OFFCURVE",
"179 696 CURVE SMOOTH",
"62 696 OFFCURVE",
"40 638 OFFCURVE",
"40 344 CURVE SMOOTH",
"40 43 OFFCURVE",
"69 -8 OFFCURVE",
"179 -8 CURVE SMOOTH"
);
}
);
width = 315;
},
{
anchors = (
{
name = bottom;
position = "{410, 0}";
},
{
name = top;
position = "{410, 688}";
}
);
layerId = "8EBCA172-37CB-4E59-A5FF-33FE92477777";
paths = (
{
closed = 1;
nodes = (
"496 -8 OFFCURVE",
"618 1 OFFCURVE",
"708 12 CURVE",
"708 415 LINE",
"397 415 LINE",
"397 258 LINE",
"477 258 LINE",
"477 168 LINE",
"457 168 OFFCURVE",
"430 167 OFFCURVE",
"425 167 CURVE SMOOTH",
"321 167 OFFCURVE",
"309 199 OFFCURVE",
"309 344 CURVE SMOOTH",
"309 512 OFFCURVE",
"312 518 OFFCURVE",
"496 518 CURVE SMOOTH",
"539 518 OFFCURVE",
"634 511 OFFCURVE",
"704 503 CURVE",
"704 670 LINE",
"614 685 OFFCURVE",
"491 696 OFFCURVE",
"406 696 CURVE SMOOTH",
"112 696 OFFCURVE",
"49 616 OFFCURVE",
"49 344 CURVE SMOOTH",
"49 71 OFFCURVE",
"114 -8 OFFCURVE",
"413 -8 CURVE SMOOTH"
);
}
);
width = 763;
},
{
anchors = (
{
name = bottom;
position = "{412, 0}";
},
{
name = top;
position = "{412, 688}";
}
);
layerId = "C6199351-AF36-494D-BF00-13EB6406F65F";
paths = (
{
closed = 1;
nodes = (
"497 -8 OFFCURVE",
"604 2 OFFCURVE",
"687 14 CURVE",
"687 382 LINE",
"406 382 LINE",
"406 282 LINE",
"568 282 LINE",
"568 97 LINE",
"540 95 OFFCURVE",
"479 92 OFFCURVE",
"432 92 CURVE SMOOTH",
"232 92 OFFCURVE",
"205 124 OFFCURVE",
"205 344 CURVE SMOOTH",
"205 591 OFFCURVE",
"247 593 OFFCURVE",
"482 593 CURVE SMOOTH",
"524 593 OFFCURVE",
"599 587 OFFCURVE",
"684 577 CURVE",
"684 674 LINE",
"607 686 OFFCURVE",
"500 696 OFFCURVE",
"424 696 CURVE SMOOTH",
"142 696 OFFCURVE",
"80 626 OFFCURVE",
"80 344 CURVE SMOOTH",
"80 63 OFFCURVE",
"139 -8 OFFCURVE",
"427 -8 CURVE SMOOTH"
);
}
);
width = 784;
},
{
anchors = (
{
name = bottom;
position = "{419, 0}";
},
{
name = top;
position = "{419, 688}";
}
);
layerId = "E7639064-56EC-4BF1-BEDD-A20273C7A444";
paths = (
{
closed = 1;
nodes = (
"503 -8 OFFCURVE",
"605 -1 OFFCURVE",
"679 9 CURVE",
"679 349 LINE",
"412 349 LINE",
"412 315 LINE",
"643 315 LINE",
"643 38 LINE",
"588 33 OFFCURVE",
"487 26 OFFCURVE",
"433 26 CURVE SMOOTH",
"173 26 OFFCURVE",
"142 62 OFFCURVE",
"142 344 CURVE SMOOTH",
"142 663 OFFCURVE",
"203 662 OFFCURVE",
"469 662 CURVE SMOOTH",
"519 662 OFFCURVE",
"607 655 OFFCURVE",
"675 646 CURVE",
"675 678 LINE",
"616 687 OFFCURVE",
"513 696 OFFCURVE",
"434 696 CURVE SMOOTH",
"164 696 OFFCURVE",
"106 663 OFFCURVE",
"106 344 CURVE SMOOTH",
"106 27 OFFCURVE",
"158 -8 OFFCURVE",
"434 -8 CURVE SMOOTH"
);
}
);
width = 800;
}
);
leftKerningGroup = O;
rightKerningGroup = G;
unicode = 0047;
},
{
color = 6;
glyphname = H;
layers = (
{
anchors = (
{
name = bottom;
position = "{369, 0}";
},
{
name = center;
position = "{369, 510}";
},
{
name = top;
position = "{369, 688}";
},
{
name = topleft;
position = "{115, 688}";
}
);
layerId = UUID0;
paths = (
{
closed = 1;
nodes = (
"151 0 LINE",
"151 331 LINE",
"587 331 LINE",
"587 0 LINE",
"623 0 LINE",
"623 688 LINE",
"587 688 LINE",
"587 365 LINE",
"151 365 LINE",
"151 688 LINE",
"115 688 LINE",
"115 0 LINE"
);
}
);
width = 738;
},
{
anchors = (
{
name = bottom;
position = "{349, 0}";
},
{
name = center;
position = "{349, 510}";
},
{
name = top;
position = "{349, 688}";
},
{
name = topleft;
position = "{51, 688}";
}
);
layerId = "4F93A97B-747D-4721-B098-38A63C534D7A";
paths = (
{
closed = 1;
nodes = (
"285 0 LINE",
"285 251 LINE",
"412 251 LINE",
"412 0 LINE",
"646 0 LINE",
"646 688 LINE",
"412 688 LINE",
"412 438 LINE",
"285 438 LINE",
"285 688 LINE",
"51 688 LINE",
"51 0 LINE"
);
}
);
width = 697;
},
{
anchors = (
{
name = bottom;
position = "{267, 0}";
},
{
name = center;
position = "{267, 510}";
},
{
name = top;
position = "{267, 688}";
},
{
name = topleft;
position = "{81, 688}";
}
);
layerId = "E6BBBBE7-ECAD-4929-840D-43673C7BDEAF";
paths = (
{
closed = 1;
nodes = (
"117 0 LINE",
"117 331 LINE",
"416 331 LINE",
"416 0 LINE",
"452 0 LINE",
"452 688 LINE",
"416 688 LINE",
"416 365 LINE",
"117 365 LINE",
"117 688 LINE",
"81 688 LINE",
"81 0 LINE"
);
}
);
width = 534;
},
{
anchors = (
{
name = bottom;
position = "{260, 0}";
},
{
name = center;
position = "{260, 510}";
},
{
name = top;
position = "{260, 688}";
},
{
name = topleft;
position = "{40, 688}";
}
);
layerId = "7836D3B9-397C-42C1-8084-A98A44B9119A";
paths = (
{
closed = 1;
nodes = (
"220 0 LINE",
"220 266 LINE",
"300 266 LINE",
"300 0 LINE",
"480 0 LINE",
"480 688 LINE",
"300 688 LINE",
"300 426 LINE",
"220 426 LINE",
"220 688 LINE",
"40 688 LINE",
"40 0 LINE"
);
}
);
width = 520;
},
{
anchors = (
{
name = bottom;
position = "{262, 0}";
},
{
name = center;
position = "{262, 510}";
},
{
name = top;
position = "{262, 688}";
},
{
name = topleft;
position = "{64, 688}";
}
);
layerId = "374FF654-0B40-45EE-AE97-0DEB7620D1EC";
paths = (
{
closed = 1;
nodes = (
"158 0 LINE",
"158 304 LINE",
"365 304 LINE",
"365 0 LINE",
"460 0 LINE",
"460 688 LINE",
"365 688 LINE",
"365 390 LINE",
"158 390 LINE",
"158 688 LINE",
"64 688 LINE",
"64 0 LINE"
);
}
);
width = 523;
},
{
anchors = (
{
name = bottom;
position = "{363, 0}";
},
{
name = center;
position = "{363, 510}";
},
{
name = top;
position = "{363, 688}";
},
{
name = topleft;
position = "{87, 688}";
}
);
layerId = "E7A95A6A-7487-49EE-B62A-BA87B06E4B57";
paths = (
{
closed = 1;
nodes = (
"215 0 LINE",
"215 290 LINE",
"511 290 LINE",
"511 0 LINE",
"639 0 LINE",
"639 688 LINE",
"511 688 LINE",
"511 402 LINE",
"215 402 LINE",
"215 688 LINE",
"87 688 LINE",
"87 0 LINE"
);
}
);
width = 726;
},
{
anchors = (
{
name = bottom;
position = "{182, 0}";
},
{
name = center;
position = "{182, 344}";
},
{
name = top;
position = "{182, 688}";
},
{
name = topleft;
position = "{44, 688}";
}
);
layerId = "487ADAF7-57C4-4091-879E-1D750F439591";
paths = (
{
closed = 1;
nodes = (
"122 0 LINE",
"122 310 LINE",
"241 310 LINE",
"241 0 LINE",
"319 0 LINE",
"319 688 LINE",
"241 688 LINE",
"241 386 LINE",
"122 386 LINE",
"122 688 LINE",
"44 688 LINE",
"44 0 LINE"
);
}
);
width = 363;
},
{
anchors = (
{
name = bottom;
position = "{181, 0}";
},
{
name = center;
position = "{181, 344}";
},
{
name = top;
position = "{181, 688}";
},
{
name = topleft;
position = "{29, 688}";
}
);
layerId = "7674DAFD-136A-491A-A3F0-195DB056B53F";
paths = (
{
closed = 1;
nodes = (
"162 0 LINE",
"162 283 LINE",
"199 283 LINE",
"199 0 LINE",
"332 0 LINE",
"332 688 LINE",
"199 688 LINE",
"199 412 LINE",
"162 412 LINE",
"162 688 LINE",
"29 688 LINE",
"29 0 LINE"
);
}
);
width = 362;
},
{
anchors = (
{
name = bottom;
position = "{177, 0}";
},
{
name = center;
position = "{177, 344}";
},
{
name = top;
position = "{177, 688}";
},
{
name = topleft;
position = "{52, 688}";
}
);
layerId = "B5B62657-8F5D-48EE-9125-14A639410D02";
paths = (
{
closed = 1;
nodes = (
"88 0 LINE",
"88 331 LINE",
"267 331 LINE",
"267 0 LINE",
"303 0 LINE",
"303 688 LINE",
"267 688 LINE",
"267 365 LINE",
"88 365 LINE",
"88 688 LINE",
"52 688 LINE",
"52 0 LINE"
);
}
);
width = 354;
},
{
anchors = (
{
name = bottom;
position = "{402, 0}";
},
{
name = center;
position = "{402, 344}";
},
{
name = top;
position = "{402, 688}";
},
{
name = topleft;
position = "{58, 688}";
}
);
layerId = "8EBCA172-37CB-4E59-A5FF-33FE92477777";
paths = (
{
closed = 1;
nodes = (
"324 0 LINE",
"324 242 LINE",
"479 242 LINE",
"479 0 LINE",
"745 0 LINE",
"745 688 LINE",
"479 688 LINE",
"479 445 LINE",
"324 445 LINE",
"324 688 LINE",
"58 688 LINE",
"58 0 LINE"
);
}
);
width = 803;
},
{
anchors = (
{
name = bottom;
position = "{425, 0}";
},
{
name = center;
position = "{425, 344}";
},
{
name = top;
position = "{425, 688}";
},
{
name = topleft;
position = "{108, 688}";
}
);
layerId = "C6199351-AF36-494D-BF00-13EB6406F65F";
paths = (
{
closed = 1;
nodes = (
"233 0 LINE",
"233 293 LINE",
"618 293 LINE",
"618 0 LINE",
"741 0 LINE",
"741 688 LINE",
"618 688 LINE",
"618 399 LINE",
"233 399 LINE",
"233 688 LINE",
"108 688 LINE",
"108 0 LINE"
);
}
);
width = 850;
},
{
anchors = (
{
name = bottom;
position = "{430, 0}";
},
{
name = center;
position = "{430, 344}";
},
{
name = top;
position = "{430, 688}";
},
{
name = topleft;
position = "{135, 688}";
}
);
layerId = "E7639064-56EC-4BF1-BEDD-A20273C7A444";
paths = (
{
closed = 1;
nodes = (
"171 0 LINE",
"171 331 LINE",
"690 331 LINE",
"690 0 LINE",
"726 0 LINE",
"726 688 LINE",
"690 688 LINE",
"690 365 LINE",
"171 365 LINE",
"171 688 LINE",
"135 688 LINE",
"135 0 LINE"
);
}
);
width = 860;
}
);
leftKerningGroup = H;
rightKerningGroup = H;
unicode = 0048;
},
{
color = 6;
glyphname = Hbar;
layers = (
{
layerId = UUID0;
paths = (
{
closed = 1;
nodes = (
"151 0 LINE",
"151 311 LINE",
"587 311 LINE",
"587 0 LINE",
"623 0 LINE",
"623 688 LINE",
"587 688 LINE",
"587 530 LINE",
"151 530 LINE",
"151 688 LINE",
"115 688 LINE",
"115 0 LINE"
);
},
{
closed = 1;
nodes = (
"151 496 LINE",
"587 496 LINE",
"587 345 LINE",
"151 345 LINE"
);
}
);
width = 738;
},
{
layerId = "E7A95A6A-7487-49EE-B62A-BA87B06E4B57";
paths = (
{
closed = 1;
nodes = (
"215 0 LINE",
"215 250 LINE",
"511 250 LINE",
"511 0 LINE",
"639 0 LINE",
"639 688 LINE",
"511 688 LINE",
"511 570 LINE",
"215 570 LINE",
"215 688 LINE",
"87 688 LINE",
"87 0 LINE"
);
},
{
closed = 1;
nodes = (
"215 472 LINE",
"511 472 LINE",
"511 362 LINE",
"215 362 LINE"
);
}
);
width = 726;
},
{
layerId = "4F93A97B-747D-4721-B098-38A63C534D7A";
paths = (
{
closed = 1;
nodes = (
"285 0 LINE",
"285 211 LINE",
"412 211 LINE",
"412 0 LINE",
"646 0 LINE",
"646 688 LINE",
"412 688 LINE",
"412 611 LINE",
"285 611 LINE",
"285 688 LINE",
"51 688 LINE",
"51 0 LINE"
);
},
{
closed = 1;
nodes = (
"285 474 LINE",
"412 474 LINE",
"412 398 LINE",
"285 398 LINE"
);
}
);
width = 697;
},
{
layerId = "E6BBBBE7-ECAD-4929-840D-43673C7BDEAF";
paths = (
{
closed = 1;
nodes = (
"117 0 LINE",
"117 311 LINE",
"416 311 LINE",
"416 0 LINE",
"452 0 LINE",
"452 688 LINE",
"416 688 LINE",
"416 529 LINE",
"117 529 LINE",
"117 688 LINE",
"81 688 LINE",
"81 0 LINE"
);
},
{
closed = 1;
nodes = (
"117 495 LINE",
"416 495 LINE",
"416 345 LINE",
"117 345 LINE"
);
}
);
width = 534;
},
{
layerId = "374FF654-0B40-45EE-AE97-0DEB7620D1EC";
paths = (
{
closed = 1;
nodes = (
"158 0 LINE",
"158 272 LINE",
"365 272 LINE",
"365 0 LINE",
"460 0 LINE",
"460 688 LINE",
"365 688 LINE",
"365 558 LINE",
"158 558 LINE",
"158 688 LINE",
"64 688 LINE",
"64 0 LINE"
);
},
{
closed = 1;
nodes = (
"158 480 LINE",
"365 480 LINE",
"365 357 LINE",
"158 357 LINE"
);
}
);
width = 523;
},
{
layerId = "7836D3B9-397C-42C1-8084-A98A44B9119A";
paths = (
{
closed = 1;
nodes = (
"220 0 LINE",
"220 226 LINE",
"300 226 LINE",
"300 0 LINE",
"480 0 LINE",
"480 688 LINE",
"300 688 LINE",
"300 612 LINE",
"220 612 LINE",
"220 688 LINE",
"40 688 LINE",
"40 0 LINE"
);
},
{
closed = 1;
nodes = (
"220 473 LINE",
"300 473 LINE",
"300 386 LINE",
"220 386 LINE"
);
}
);
width = 520;
},
{
layerId = "487ADAF7-57C4-4091-879E-1D750F439591";
paths = (
{
closed = 1;
nodes = (
"122 0 LINE",
"122 286 LINE",
"241 286 LINE",
"241 0 LINE",
"319 0 LINE",
"319 688 LINE",
"241 688 LINE",
"241 549 LINE",
"122 549 LINE",
"122 688 LINE",
"44 688 LINE",
"44 0 LINE"
);
},
{
closed = 1;
nodes = (
"122 497 LINE",
"241 497 LINE",
"241 362 LINE",
"122 362 LINE"
);
}
);
width = 361;
},
{
layerId = "7674DAFD-136A-491A-A3F0-195DB056B53F";
paths = (
{
closed = 1;
nodes = (
"162 0 LINE",
"162 243 LINE",
"199 243 LINE",
"199 0 LINE",
"332 0 LINE",
"332 688 LINE",
"199 688 LINE",
"199 577 LINE",
"162 577 LINE",
"162 688 LINE",
"29 688 LINE",
"29 0 LINE"
);
},
{
closed = 1;
nodes = (
"162 513 LINE",
"199 513 LINE",
"199 372 LINE",
"162 372 LINE"
);
}
);
width = 362;
},
{
layerId = "B5B62657-8F5D-48EE-9125-14A639410D02";
paths = (
{
closed = 1;
nodes = (
"88 0 LINE",
"88 311 LINE",
"267 311 LINE",
"267 0 LINE",
"303 0 LINE",
"303 688 LINE",
"267 688 LINE",
"267 529 LINE",
"88 529 LINE",
"88 688 LINE",
"52 688 LINE",
"52 0 LINE"
);
},
{
closed = 1;
nodes = (
"88 495 LINE",
"267 495 LINE",
"267 345 LINE",
"88 345 LINE"
);
}
);
width = 354;
},
{
layerId = "8EBCA172-37CB-4E59-A5FF-33FE92477777";
paths = (
{
closed = 1;
nodes = (
"324 0 LINE",
"324 202 LINE",
"479 202 LINE",
"479 0 LINE",
"745 0 LINE",
"745 688 LINE",
"479 688 LINE",
"479 592 LINE",
"324 592 LINE",
"324 688 LINE",
"58 688 LINE",
"58 0 LINE"
);
},
{
closed = 1;
nodes = (
"324 492 LINE",
"479 492 LINE",
"479 405 LINE",
"324 405 LINE"
);
}
);
width = 803;
},
{
layerId = "C6199351-AF36-494D-BF00-13EB6406F65F";
paths = (
{
closed = 1;
nodes = (
"233 0 LINE",
"233 255 LINE",
"618 255 LINE",
"618 0 LINE",
"741 0 LINE",
"741 688 LINE",
"618 688 LINE",
"618 565 LINE",
"233 565 LINE",
"233 688 LINE",
"108 688 LINE",
"108 0 LINE"
);
},
{
closed = 1;
nodes = (
"233 475 LINE",
"618 475 LINE",
"618 361 LINE",
"233 361 LINE"
);
}
);
width = 850;
},
{
layerId = "E7639064-56EC-4BF1-BEDD-A20273C7A444";
paths = (
{
closed = 1;
nodes = (
"171 0 LINE",
"171 311 LINE",
"690 311 LINE",
"690 0 LINE",
"726 0 LINE",
"726 688 LINE",
"690 688 LINE",
"690 528 LINE",
"171 528 LINE",
"171 688 LINE",
"135 688 LINE",
"135 0 LINE"
);
},
{
closed = 1;
nodes = (
"171 494 LINE",
"690 494 LINE",
"690 345 LINE",
"171 345 LINE"
);
}
);
width = 860;
}
);
leftKerningGroup = H;
rightKerningGroup = H;
unicode = 0126;
},
{
color = 6;
glyphname = I;
layers = (
{
anchors = (
{
name = bottom;
position = "{133, 0}";
},
{
name = ogonek;
position = "{151, 0}";
},
{
name = top;
position = "{133, 688}";
},
{
name = topleft;
position = "{115, 688}";
}
);
layerId = UUID0;
paths = (
{
closed = 1;
nodes = (
"151 0 LINE",
"151 688 LINE",
"115 688 LINE",
"115 0 LINE"
);
}
);
width = 266;
},
{
anchors = (
{
name = bottom;
position = "{168, 0}";
},
{
name = ogonek;
position = "{285, 0}";
},
{
name = top;
position = "{168, 688}";
},
{
name = topleft;
position = "{51, 688}";
}
);
layerId = "4F93A97B-747D-4721-B098-38A63C534D7A";
paths = (
{
closed = 1;
nodes = (
"285 0 LINE",
"285 688 LINE",
"51 688 LINE",
"51 0 LINE"
);
}
);
width = 336;
},
{
anchors = (
{
name = bottom;
position = "{103, 0}";
},
{
name = ogonek;
position = "{121, 0}";
},
{
name = top;
position = "{103, 688}";
},
{
name = topleft;
position = "{85, 688}";
}
);
layerId = "E6BBBBE7-ECAD-4929-840D-43673C7BDEAF";
paths = (
{
closed = 1;
nodes = (
"121 0 LINE",
"121 688 LINE",
"85 688 LINE",
"85 0 LINE"
);
}
);
width = 206;
},
{
anchors = (
{
name = bottom;
position = "{130, 0}";
},
{
name = ogonek;
position = "{220, 0}";
},
{
name = top;
position = "{130, 688}";
},
{
name = topleft;
position = "{40, 688}";
}
);
layerId = "7836D3B9-397C-42C1-8084-A98A44B9119A";
paths = (
{
closed = 1;
nodes = (
"220 0 LINE",
"220 688 LINE",
"40 688 LINE",
"40 0 LINE"
);
}
);
width = 260;
},
{
anchors = (
{
name = bottom;
position = "{113, 0}";
},
{
name = ogonek;
position = "{161, 0}";
},
{
name = top;
position = "{113, 688}";
},
{
name = topleft;
position = "{66, 688}";
}
);
layerId = "374FF654-0B40-45EE-AE97-0DEB7620D1EC";
paths = (
{
closed = 1;
nodes = (
"161 0 LINE",
"161 688 LINE",
"66 688 LINE",
"66 0 LINE"
);
}
);
width = 227;
},
{
anchors = (
{
name = bottom;
position = "{151, 0}";
},
{
name = ogonek;
position = "{215, 0}";
},
{
name = top;
position = "{151, 688}";
},
{
name = topleft;
position = "{87, 688}";
}
);
layerId = "E7A95A6A-7487-49EE-B62A-BA87B06E4B57";
paths = (
{
closed = 1;
nodes = (
"215 0 LINE",
"215 688 LINE",
"87 688 LINE",
"87 0 LINE"
);
}
);
width = 302;
},
{
anchors = (
{
name = bottom;
position = "{85, 0}";
},
{
name = ogonek;
position = "{124, 0}";
},
{
name = top;
position = "{85, 688}";
},
{
name = topleft;
position = "{46, 688}";
}
);
layerId = "487ADAF7-57C4-4091-879E-1D750F439591";
paths = (
{
closed = 1;
nodes = (
"124 0 LINE",
"124 688 LINE",
"46 688 LINE",
"46 0 LINE"
);
}
);
width = 170;
},
{
anchors = (
{
name = bottom;
position = "{96, 0}";
},
{
name = ogonek;
position = "{162, 0}";
},
{
name = top;
position = "{96, 688}";
},
{
name = topleft;
position = "{29, 688}";
}
);
layerId = "7674DAFD-136A-491A-A3F0-195DB056B53F";
paths = (
{
closed = 1;
nodes = (
"162 0 LINE",
"162 688 LINE",
"29 688 LINE",
"29 0 LINE"
);
}
);
width = 192;
},
{
anchors = (
{
name = bottom;
position = "{76, 0}";
},
{
name = ogonek;
position = "{94, 0}";
},
{
name = top;
position = "{76, 688}";
},
{
name = topleft;
position = "{58, 688}";
}
);
layerId = "B5B62657-8F5D-48EE-9125-14A639410D02";
paths = (
{
closed = 1;
nodes = (
"94 0 LINE",
"94 688 LINE",
"58 688 LINE",
"58 0 LINE"
);
}
);
width = 152;
},
{
anchors = (
{
name = bottom;
position = "{191, 0}";
},
{
name = ogonek;
position = "{324, 0}";
},
{
name = top;
position = "{191, 688}";
},
{
name = topleft;
position = "{58, 688}";
}
);
layerId = "8EBCA172-37CB-4E59-A5FF-33FE92477777";
paths = (
{
closed = 1;
nodes = (
"324 0 LINE",
"324 688 LINE",
"58 688 LINE",
"58 0 LINE"
);
}
);
width = 382;
},
{
anchors = (
{
name = bottom;
position = "{168, 0}";
},
{
name = ogonek;
position = "{231, 0}";
},
{
name = top;
position = "{168, 688}";
},
{
name = topleft;
position = "{106, 688}";
}
);
layerId = "C6199351-AF36-494D-BF00-13EB6406F65F";
paths = (
{
closed = 1;
nodes = (
"231 0 LINE",
"231 688 LINE",
"106 688 LINE",
"106 0 LINE"
);
}
);
width = 336;
},
{
anchors = (
{
name = bottom;
position = "{151, 0}";
},
{
name = ogonek;
position = "{169, 0}";
},
{
name = top;
position = "{151, 688}";
},
{
name = topleft;
position = "{133, 688}";
}
);
layerId = "E7639064-56EC-4BF1-BEDD-A20273C7A444";
paths = (
{
closed = 1;
nodes = (
"169 0 LINE",
"169 688 LINE",
"133 688 LINE",
"133 0 LINE"
);
}
);
width = 302;
}
);
leftKerningGroup = H;
rightKerningGroup = H;
unicode = 0049;
},
{
color = 6;
glyphname = J;
layers = (
{
anchors = (
{
name = bottom;
position = "{162, 0}";
},
{
name = top;
position = "{201, 688}";
}
);
layerId = UUID0;
paths = (
{
closed = 1;
nodes = (
"212 3 OFFCURVE",
"219 13 OFFCURVE",
"219 264 CURVE SMOOTH",
"219 688 LINE",
"183 688 LINE",
"183 246 LINE SMOOTH",
"183 42 OFFCURVE",
"180 38 OFFCURVE",
"40 34 CURVE",
"40 0 LINE"
);
}
);
width = 324;
},
{
anchors = (
{
name = bottom;
position = "{219, 0}";
},
{
name = top;
position = "{270, 688}";
}
);
layerId = "4F93A97B-747D-4721-B098-38A63C534D7A";
paths = (
{
closed = 1;
nodes = (
"373 0 OFFCURVE",
"387 13 OFFCURVE",
"387 328 CURVE SMOOTH",
"387 688 LINE",
"153 688 LINE",
"153 271 LINE SMOOTH",
"153 163 OFFCURVE",
"148 158 OFFCURVE",
"18 158 CURVE",
"18 0 LINE"
);
}
);
width = 438;
},
{
anchors = (
{
name = bottom;
position = "{89, 0}";
},
{
name = top;
position = "{132, 688}";
}
);
layerId = "E6BBBBE7-ECAD-4929-840D-43673C7BDEAF";
paths = (
{
closed = 1;
nodes = (
"143 3 OFFCURVE",
"150 15 OFFCURVE",
"150 224 CURVE SMOOTH",
"150 688 LINE",
"114 688 LINE",
"114 226 LINE SMOOTH",
"114 41 OFFCURVE",
"113 38 OFFCURVE",
"20 34 CURVE",
"20 0 LINE"
);
}
);
width = 225;
},
{
anchors = (
{
name = bottom;
position = "{135, 0}";
},
{
name = top;
position = "{200, 688}";
}
);
layerId = "7836D3B9-397C-42C1-8084-A98A44B9119A";
paths = (
{
closed = 1;
nodes = (
"275 0 OFFCURVE",
"289 16 OFFCURVE",
"289 328 CURVE SMOOTH",
"289 688 LINE",
"108 688 LINE",
"108 250 LINE SMOOTH",
"108 146 OFFCURVE",
"101 139 OFFCURVE",
"9 139 CURVE",
"9 0 LINE"
);
}
);
width = 326;
},
{
anchors = (
{
name = bottom;
position = "{142, 0}";
},
{
name = top;
position = "{157, 688}";
}
);
layerId = "374FF654-0B40-45EE-AE97-0DEB7620D1EC";
paths = (
{
closed = 1;
nodes = (
"198 1 OFFCURVE",
"204 16 OFFCURVE",
"204 269 CURVE SMOOTH",
"204 688 LINE",
"109 688 LINE",
"109 239 LINE SMOOTH",
"109 89 OFFCURVE",
"109 80 OFFCURVE",
"14 78 CURVE",
"14 0 LINE"
);
}
);
width = 264;
},
{
anchors = (
{
name = bottom;
position = "{191, 0}";
},
{
name = top;
position = "{235, 688}";
}
);
layerId = "E7A95A6A-7487-49EE-B62A-BA87B06E4B57";
paths = (
{
closed = 1;
nodes = (
"288 1 OFFCURVE",
"299 9 OFFCURVE",
"299 294 CURVE SMOOTH",
"299 688 LINE",
"171 688 LINE",
"171 258 LINE SMOOTH",
"171 113 OFFCURVE",
"171 104 OFFCURVE",
"28 102 CURVE",
"28 0 LINE"
);
}
);
width = 381;
},
{
anchors = (
{
name = bottom;
position = "{98, 0}";
},
{
name = top;
position = "{98, 688}";
}
);
layerId = "487ADAF7-57C4-4091-879E-1D750F439591";
paths = (
{
closed = 1;
nodes = (
"125 0 OFFCURVE",
"138 13 OFFCURVE",
"138 241 CURVE SMOOTH",
"138 688 LINE",
"60 688 LINE",
"60 208 LINE SMOOTH",
"60 73 OFFCURVE",
"57 71 OFFCURVE",
"2 71 CURVE",
"2 0 LINE"
);
}
);
width = 175;
},
{
anchors = (
{
name = bottom;
position = "{133, 0}";
},
{
name = top;
position = "{133, 688}";
}
);
layerId = "7674DAFD-136A-491A-A3F0-195DB056B53F";
paths = (
{
closed = 1;
nodes = (
"190 0 OFFCURVE",
"201 17 OFFCURVE",
"201 328 CURVE SMOOTH",
"201 688 LINE",
"68 688 LINE",
"68 227 LINE SMOOTH",
"68 128 OFFCURVE",
"62 118 OFFCURVE",
"0 118 CURVE",
"0 0 LINE"
);
}
);
width = 225;
},
{
anchors = (
{
name = bottom;
position = "{73, 0}";
},
{
name = top;
position = "{73, 688}";
}
);
layerId = "B5B62657-8F5D-48EE-9125-14A639410D02";
paths = (
{
closed = 1;
nodes = (
"85 3 OFFCURVE",
"91 16 OFFCURVE",
"91 214 CURVE SMOOTH",
"91 688 LINE",
"55 688 LINE",
"55 220 LINE SMOOTH",
"55 41 OFFCURVE",
"54 38 OFFCURVE",
"2 34 CURVE",
"2 0 LINE"
);
}
);
width = 139;
},
{
anchors = (
{
name = bottom;
position = "{313, 0}";
},
{
name = top;
position = "{313, 688}";
}
);
layerId = "8EBCA172-37CB-4E59-A5FF-33FE92477777";
paths = (
{
closed = 1;
nodes = (
"431 0 OFFCURVE",
"446 12 OFFCURVE",
"446 328 CURVE SMOOTH",
"446 688 LINE",
"180 688 LINE",
"180 292 LINE SMOOTH",
"180 181 OFFCURVE",
"175 177 OFFCURVE",
"23 177 CURVE",
"23 0 LINE"
);
}
);
width = 505;
},
{
anchors = (
{
name = bottom;
position = "{269, 0}";
},
{
name = top;
position = "{269, 688}";
}
);
layerId = "C6199351-AF36-494D-BF00-13EB6406F65F";
paths = (
{
closed = 1;
nodes = (
"322 1 OFFCURVE",
"334 7 OFFCURVE",
"334 298 CURVE SMOOTH",
"334 688 LINE",
"210 688 LINE",
"210 266 LINE SMOOTH",
"210 108 OFFCURVE",
"210 99 OFFCURVE",
"39 98 CURVE",
"39 0 LINE"
);
}
);
width = 435;
},
{
anchors = (
{
name = bottom;
position = "{242, 0}";
},
{
name = top;
position = "{242, 688}";
}
);
layerId = "E7639064-56EC-4BF1-BEDD-A20273C7A444";
paths = (
{
closed = 1;
nodes = (
"253 3 OFFCURVE",
"260 12 OFFCURVE",
"260 280 CURVE SMOOTH",
"260 688 LINE",
"224 688 LINE",
"224 254 LINE SMOOTH",
"224 43 OFFCURVE",
"220 38 OFFCURVE",
"52 34 CURVE",
"52 0 LINE"
);
}
);
width = 383;
}
);
leftKerningGroup = J;
rightKerningGroup = U;
unicode = 004A;
},
{
color = 6;
glyphname = K;
layers = (
{
anchors = (
{
name = bottom;
position = "{333, 0}";
},
{
name = top;
position = "{333, 688}";
}
);
layerId = UUID0;
paths = (
{
closed = 1;
nodes = (
"151 0 LINE",
"151 332 LINE",
"324 332 LINE",
"582 0 LINE",
"625 0 LINE",
"354 349 LINE",
"622 688 LINE",
"580 688 LINE",
"324 366 LINE",
"151 366 LINE",
"151 688 LINE",
"115 688 LINE",
"115 0 LINE"
);
}
);
width = 665;
},
{
anchors = (
{
name = bottom;
position = "{348, 0}";
},
{
name = top;
position = "{348, 688}";
}
);
layerId = "4F93A97B-747D-4721-B098-38A63C534D7A";
paths = (
{
closed = 1;
nodes = (
"285 0 LINE",
"285 268 LINE",
"295 268 LINE",
"441 0 LINE",
"696 0 LINE",
"486 365 LINE",
"693 688 LINE",
"444 688 LINE",
"295 431 LINE",
"285 431 LINE",
"285 688 LINE",
"51 688 LINE",
"51 0 LINE"
);
}
);
width = 696;
},
{
anchors = (
{
name = bottom;
position = "{239, 0}";
},
{
name = top;
position = "{239, 688}";
}
);
layerId = "E6BBBBE7-ECAD-4929-840D-43673C7BDEAF";
paths = (
{
closed = 1;
nodes = (
"117 0 LINE",
"117 332 LINE",
"231 332 LINE",
"414 0 LINE",
"454 0 LINE",
"261 349 LINE",
"452 688 LINE",
"413 688 LINE",
"231 366 LINE",
"117 366 LINE",
"117 688 LINE",
"81 688 LINE",
"81 0 LINE"
);
}
);
width = 478;
},
{
anchors = (
{
name = bottom;
position = "{255, 0}";
},
{
name = top;
position = "{255, 688}";
}
);
layerId = "7836D3B9-397C-42C1-8084-A98A44B9119A";
paths = (
{
closed = 1;
nodes = (
"220 0 LINE",
"220 273 LINE",
"233 273 LINE",
"316 0 LINE",
"507 0 LINE",
"376 360 LINE",
"505 688 LINE",
"319 688 LINE",
"233 425 LINE",
"220 425 LINE",
"220 688 LINE",
"40 688 LINE",
"40 0 LINE"
);
}
);
width = 509;
},
{
anchors = (
{
name = bottom;
position = "{248, 0}";
},
{
name = top;
position = "{248, 688}";
}
);
layerId = "374FF654-0B40-45EE-AE97-0DEB7620D1EC";
paths = (
{
closed = 1;
nodes = (
"158 0 LINE",
"158 308 LINE",
"224 308 LINE",
"368 0 LINE",
"471 0 LINE",
"302 356 LINE",
"469 688 LINE",
"370 688 LINE",
"224 390 LINE",
"158 390 LINE",
"158 688 LINE",
"64 688 LINE",
"64 0 LINE"
);
}
);
width = 485;
},
{
anchors = (
{
name = bottom;
position = "{338, 0}";
},
{
name = top;
position = "{338, 688}";
}
);
layerId = "E7A95A6A-7487-49EE-B62A-BA87B06E4B57";
paths = (
{
closed = 1;
nodes = (
"215 0 LINE",
"215 296 LINE",
"297 296 LINE",
"510 0 LINE",
"659 0 LINE",
"400 358 LINE",
"656 688 LINE",
"515 688 LINE",
"297 404 LINE",
"215 404 LINE",
"215 688 LINE",
"87 688 LINE",
"87 0 LINE"
);
}
);
width = 675;
},
{
anchors = (
{
name = bottom;
position = "{165, 0}";
},
{
name = top;
position = "{165, 688}";
}
);
layerId = "487ADAF7-57C4-4091-879E-1D750F439591";
paths = (
{
closed = 1;
nodes = (
"120 0 LINE",
"120 311 LINE",
"164 311 LINE",
"243 0 LINE",
"324 0 LINE",
"231 351 LINE",
"322 688 LINE",
"246 688 LINE",
"167 387 LINE",
"120 387 LINE",
"120 688 LINE",
"42 688 LINE",
"42 0 LINE"
);
}
);
width = 330;
},
{
anchors = (
{
name = bottom;
position = "{171, 0}";
},
{
name = top;
position = "{171, 688}";
}
);
layerId = "7674DAFD-136A-491A-A3F0-195DB056B53F";
paths = (
{
closed = 1;
nodes = (
"158 0 LINE",
"158 278 LINE",
"171 278 LINE",
"203 0 LINE",
"339 0 LINE",
"279 355 LINE",
"339 688 LINE",
"206 688 LINE",
"171 418 LINE",
"158 418 LINE",
"158 688 LINE",
"29 688 LINE",
"29 0 LINE"
);
}
);
width = 342;
},
{
anchors = (
{
name = bottom;
position = "{156, 0}";
},
{
name = top;
position = "{156, 688}";
}
);
layerId = "B5B62657-8F5D-48EE-9125-14A639410D02";
paths = (
{
closed = 1;
nodes = (
"88 0 LINE",
"88 332 LINE",
"148 332 LINE",
"266 0 LINE",
"305 0 LINE",
"180 349 LINE",
"303 688 LINE",
"265 688 LINE",
"148 366 LINE",
"88 366 LINE",
"88 688 LINE",
"52 688 LINE",
"52 0 LINE"
);
}
);
width = 312;
},
{
anchors = (
{
name = bottom;
position = "{404, 0}";
},
{
name = top;
position = "{404, 688}";
}
);
layerId = "8EBCA172-37CB-4E59-A5FF-33FE92477777";
paths = (
{
closed = 1;
nodes = (
"324 0 LINE",
"324 265 LINE",
"332 265 LINE",
"516 0 LINE",
"814 0 LINE",
"560 368 LINE",
"806 688 LINE",
"519 688 LINE",
"332 435 LINE",
"324 435 LINE",
"324 688 LINE",
"58 688 LINE",
"58 0 LINE"
);
}
);
width = 808;
},
{
anchors = (
{
name = bottom;
position = "{394, 0}";
},
{
name = top;
position = "{394, 688}";
}
);
layerId = "C6199351-AF36-494D-BF00-13EB6406F65F";
paths = (
{
closed = 1;
nodes = (
"233 0 LINE",
"233 299 LINE",
"364 299 LINE",
"611 0 LINE",
"764 0 LINE",
"466 358 LINE",
"761 688 LINE",
"615 688 LINE",
"364 402 LINE",
"233 402 LINE",
"233 688 LINE",
"108 688 LINE",
"108 0 LINE"
);
}
);
width = 788;
},
{
anchors = (
{
name = bottom;
position = "{389, 0}";
},
{
name = top;
position = "{389, 688}";
}
);
layerId = "E7639064-56EC-4BF1-BEDD-A20273C7A444";
paths = (
{
closed = 1;
nodes = (
"171 0 LINE",
"171 332 LINE",
"378 332 LINE",
"681 0 LINE",
"728 0 LINE",
"410 349 LINE",
"724 688 LINE",
"678 688 LINE",
"378 366 LINE",
"171 366 LINE",
"171 688 LINE",
"135 688 LINE",
"135 0 LINE"
);
}
);
width = 777;
}
);
leftKerningGroup = H;
rightKerningGroup = X;
unicode = 004B;
},
{
color = 6;
glyphname = L;
layers = (
{
anchors = (
{
name = bottom;
position = "{316, 0}";
},
{
name = center;
position = "{133, 344}";
},
{
name = top;
position = "{133, 688}";
},
{
name = topright;
position = "{290, 510}";
}
);
layerId = UUID0;
paths = (
{
closed = 1;
nodes = (
"501 0 LINE",
"501 34 LINE",
"151 34 LINE",
"151 688 LINE",
"115 688 LINE",
"115 0 LINE"
);
}
);
width = 536;
},
{
anchors = (
{
name = bottom;
position = "{291, 0}";
},
{
name = center;
position = "{168, 344}";
},
{
name = top;
position = "{168, 688}";
},
{
name = topright;
position = "{330, 510}";
}
);
layerId = "4F93A97B-747D-4721-B098-38A63C534D7A";
paths = (
{
closed = 1;
nodes = (
"515 0 LINE",
"515 176 LINE",
"285 176 LINE",
"285 688 LINE",
"51 688 LINE",
"51 0 LINE"
);
}
);
width = 533;
},
{
anchors = (
{
name = bottom;
position = "{225, 0}";
},
{
name = center;
position = "{100, 344}";
},
{
name = top;
position = "{100, 688}";
},
{
name = topright;
position = "{200, 510}";
}
);
layerId = "E6BBBBE7-ECAD-4929-840D-43673C7BDEAF";
paths = (
{
closed = 1;
nodes = (
"364 0 LINE",
"364 34 LINE",
"118 34 LINE",
"118 688 LINE",
"81 688 LINE",
"81 0 LINE"
);
}
);
width = 379;
},
{
anchors = (
{
name = bottom;
position = "{206, 0}";
},
{
name = center;
position = "{130, 344}";
},
{
name = top;
position = "{130, 688}";
},
{
name = topright;
position = "{230, 510}";
}
);
layerId = "7836D3B9-397C-42C1-8084-A98A44B9119A";
paths = (
{
closed = 1;
nodes = (
"372 0 LINE",
"372 153 LINE",
"220 153 LINE",
"220 688 LINE",
"40 688 LINE",
"40 0 LINE"
);
}
);
width = 385;
},
{
anchors = (
{
name = bottom;
position = "{218, 0}";
},
{
name = center;
position = "{113, 344}";
},
{
name = top;
position = "{113, 688}";
},
{
name = topright;
position = "{200, 510}";
}
);
layerId = "374FF654-0B40-45EE-AE97-0DEB7620D1EC";
paths = (
{
closed = 1;
nodes = (
"366 0 LINE",
"366 84 LINE",
"159 84 LINE",
"159 688 LINE",
"64 688 LINE",
"64 0 LINE"
);
}
);
width = 379;
},
{
anchors = (
{
name = bottom;
position = "{316, 0}";
},
{
name = center;
position = "{151, 344}";
},
{
name = top;
position = "{151, 688}";
},
{
name = topright;
position = "{300, 510}";
}
);
layerId = "E7A95A6A-7487-49EE-B62A-BA87B06E4B57";
paths = (
{
closed = 1;
nodes = (
"512 0 LINE",
"512 112 LINE",
"215 112 LINE",
"215 688 LINE",
"87 688 LINE",
"87 0 LINE"
);
}
);
width = 539;
},
{
anchors = (
{
name = bottom;
position = "{145, 0}";
},
{
name = center;
position = "{124, 344}";
},
{
name = top;
position = "{84, 688}";
},
{
name = topright;
position = "{117, 510}";
}
);
layerId = "487ADAF7-57C4-4091-879E-1D750F439591";
paths = (
{
closed = 1;
nodes = (
"246 0 LINE",
"246 73 LINE",
"121 73 LINE",
"121 688 LINE",
"42 688 LINE",
"42 0 LINE"
);
}
);
width = 247;
},
{
anchors = (
{
name = bottom;
position = "{135, 0}";
},
{
name = center;
position = "{126, 344}";
},
{
name = top;
position = "{96, 688}";
},
{
name = topright;
position = "{141, 510}";
}
);
layerId = "7674DAFD-136A-491A-A3F0-195DB056B53F";
paths = (
{
closed = 1;
nodes = (
"244 0 LINE",
"244 127 LINE",
"162 127 LINE",
"162 688 LINE",
"29 688 LINE",
"29 0 LINE"
);
}
);
width = 252;
},
{
anchors = (
{
name = bottom;
position = "{149, 0}";
},
{
name = center;
position = "{120, 344}";
},
{
name = top;
position = "{71, 688}";
},
{
name = topright;
position = "{120, 510}";
}
);
layerId = "B5B62657-8F5D-48EE-9125-14A639410D02";
paths = (
{
closed = 1;
nodes = (
"243 0 LINE",
"243 34 LINE",
"89 34 LINE",
"89 688 LINE",
"52 688 LINE",
"52 0 LINE"
);
}
);
width = 240;
},
{
anchors = (
{
name = bottom;
position = "{315, 0}";
},
{
name = center;
position = "{311, 344}";
},
{
name = top;
position = "{191, 688}";
},
{
name = topright;
position = "{400, 510}";
}
);
guideLines = (
{
angle = 270;
position = "{601, 95}";
}
);
layerId = "8EBCA172-37CB-4E59-A5FF-33FE92477777";
paths = (
{
closed = 1;
nodes = (
"601 0 LINE",
"601 190 LINE",
"324 190 LINE",
"324 688 LINE",
"58 688 LINE",
"58 0 LINE"
);
}
);
width = 622;
},
{
anchors = (
{
name = bottom;
position = "{360, 0}";
},
{
name = center;
position = "{318, 344}";
},
{
name = top;
position = "{171, 688}";
},
{
name = topright;
position = "{360, 510}";
}
);
guideLines = (
{
angle = 270;
position = "{597, 95}";
}
);
layerId = "C6199351-AF36-494D-BF00-13EB6406F65F";
paths = (
{
closed = 1;
nodes = (
"597 0 LINE",
"597 106 LINE",
"233 106 LINE",
"233 688 LINE",
"108 688 LINE",
"108 0 LINE"
);
}
);
width = 635;
},
{
anchors = (
{
name = bottom;
position = "{360, 0}";
},
{
name = center;
position = "{315, 344}";
},
{
name = top;
position = "{153, 688}";
},
{
name = topright;
position = "{340, 510}";
}
);
guideLines = (
{
angle = 270;
position = "{583, 95}";
}
);
layerId = "E7639064-56EC-4BF1-BEDD-A20273C7A444";
paths = (
{
closed = 1;
nodes = (
"583 0 LINE",
"583 34 LINE",
"171 34 LINE",
"171 688 LINE",
"135 688 LINE",
"135 0 LINE"
);
}
);
width = 630;
}
);
leftKerningGroup = H;
rightKerningGroup = L;
unicode = 004C;
},
{
color = 3;
glyphname = Lslash;
layers = (
{
components = (
{
name = L;
}
);
layerId = UUID0;
paths = (
{
closed = 1;
nodes = (
"364 401 LINE",
"364 435 LINE",
"46 319 LINE",
"46 285 LINE"
);
}
);
width = 536;
},
{
components = (
{
name = L;
}
);
layerId = "4F93A97B-747D-4721-B098-38A63C534D7A";
paths = (
{
closed = 1;
nodes = (
"408 379 LINE",
"408 521 LINE",
"-1 372 LINE",
"-1 230 LINE"
);
}
);
width = 533;
},
{
components = (
{
name = L;
}
);
layerId = "E6BBBBE7-ECAD-4929-840D-43673C7BDEAF";
paths = (
{
closed = 1;
nodes = (
"276 368 LINE",
"276 402 LINE",
"29 312 LINE",
"29 278 LINE"
);
}
);
width = 379;
},
{
components = (
{
name = L;
}
);
layerId = "7836D3B9-397C-42C1-8084-A98A44B9119A";
paths = (
{
closed = 1;
nodes = (
"310 348 LINE",
"310 481 LINE",
"0 366 LINE",
"0 233 LINE"
);
}
);
width = 385;
},
{
components = (
{
name = L;
}
);
layerId = "374FF654-0B40-45EE-AE97-0DEB7620D1EC";
paths = (
{
closed = 1;
nodes = (
"287 358 LINE",
"287 433 LINE",
"16 333 LINE",
"16 258 LINE"
);
}
);
width = 379;
},
{
components = (
{
name = L;
}
);
layerId = "E7A95A6A-7487-49EE-B62A-BA87B06E4B57";
paths = (
{
closed = 1;
nodes = (
"385 384 LINE",
"385 479 LINE",
"27 345 LINE",
"27 250 LINE"
);
}
);
width = 539;
},
{
components = (
{
name = L;
}
);
layerId = "487ADAF7-57C4-4091-879E-1D750F439591";
paths = (
{
closed = 1;
nodes = (
"211 334 LINE",
"211 404 LINE",
"7 328 LINE",
"7 260 LINE"
);
}
);
width = 247;
},
{
components = (
{
name = L;
}
);
layerId = "7674DAFD-136A-491A-A3F0-195DB056B53F";
paths = (
{
closed = 1;
nodes = (
"222 312 LINE",
"222 434 LINE",
"0 359 LINE",
"0 235 LINE"
);
}
);
width = 252;
},
{
components = (
{
name = L;
}
);
layerId = "B5B62657-8F5D-48EE-9125-14A639410D02";
paths = (
{
closed = 1;
nodes = (
"199 339 LINE",
"199 373 LINE",
"13 305 LINE",
"13 271 LINE"
);
}
);
width = 240;
},
{
components = (
{
name = L;
}
);
layerId = "8EBCA172-37CB-4E59-A5FF-33FE92477777";
paths = (
{
closed = 1;
nodes = (
"467 398 LINE",
"467 544 LINE",
"-2 376 LINE",
"-2 228 LINE"
);
}
);
width = 622;
},
{
components = (
{
name = L;
}
);
layerId = "C6199351-AF36-494D-BF00-13EB6406F65F";
paths = (
{
closed = 1;
nodes = (
"438 405 LINE",
"438 494 LINE",
"37 345 LINE",
"37 256 LINE"
);
}
);
width = 635;
},
{
components = (
{
name = L;
}
);
layerId = "E7639064-56EC-4BF1-BEDD-A20273C7A444";
paths = (
{
closed = 1;
nodes = (
"417 421 LINE",
"417 455 LINE",
"56 323 LINE",
"56 289 LINE"
);
}
);
width = 630;
}
);
leftKerningGroup = H;
rightKerningGroup = L;
rightMetricsKey = L;
unicode = 0141;
},
{
color = 6;
glyphname = M;
layers = (
{
anchors = (
{
name = bottom;
position = "{458, 0}";
},
{
name = top;
position = "{458, 688}";
}
);
layerId = UUID0;
paths = (
{
closed = 1;
nodes = (
"150 0 LINE",
"150 618 LINE",
"154 618 LINE",
"441 0 LINE",
"473 0 LINE",
"760 618 LINE",
"764 618 LINE",
"764 0 LINE",
"800 0 LINE",
"800 688 LINE",
"755 688 LINE",
"460 53 LINE",
"455 53 LINE",
"161 688 LINE",
"115 688 LINE",
"115 0 LINE"
);
}
);
width = 915;
},
{
anchors = (
{
name = bottom;
position = "{452, 0}";
},
{
name = top;
position = "{452, 688}";
}
);
layerId = "4F93A97B-747D-4721-B098-38A63C534D7A";
paths = (
{
closed = 1;
nodes = (
"268 0 LINE",
"268 387 LINE",
"279 387 LINE",
"371 0 LINE",
"526 0 LINE",
"618 387 LINE",
"629 387 LINE",
"629 0 LINE",
"852 0 LINE",
"852 688 LINE",
"533 688 LINE",
"457 365 LINE",
"448 365 LINE",
"371 688 LINE",
"51 688 LINE",
"51 0 LINE"
);
}
);
width = 903;
},
{
anchors = (
{
name = bottom;
position = "{332, 0}";
},
{
name = top;
position = "{332, 688}";
}
);
layerId = "E6BBBBE7-ECAD-4929-840D-43673C7BDEAF";
paths = (
{
closed = 1;
nodes = (
"116 0 LINE",
"116 603 LINE",
"120 603 LINE",
"311 0 LINE",
"350 0 LINE",
"542 603 LINE",
"546 603 LINE",
"546 0 LINE",
"582 0 LINE",
"582 688 LINE",
"533 688 LINE",
"334 66 LINE",
"329 66 LINE",
"131 688 LINE",
"81 688 LINE",
"81 0 LINE"
);
}
);
width = 664;
},
{
anchors = (
{
name = bottom;
position = "{362, 0}";
},
{
name = top;
position = "{362, 688}";
}
);
layerId = "7836D3B9-397C-42C1-8084-A98A44B9119A";
paths = (
{
closed = 1;
nodes = (
"208 0 LINE",
"208 467 LINE",
"218 467 LINE",
"283 0 LINE",
"436 0 LINE",
"502 467 LINE",
"511 467 LINE",
"511 0 LINE",
"684 0 LINE",
"684 688 LINE",
"421 688 LINE",
"368 270 LINE",
"360 270 LINE",
"306 688 LINE",
"40 688 LINE",
"40 0 LINE"
);
}
);
width = 723;
},
{
anchors = (
{
name = bottom;
position = "{336, 0}";
},
{
name = top;
position = "{336, 688}";
}
);
layerId = "374FF654-0B40-45EE-AE97-0DEB7620D1EC";
paths = (
{
closed = 1;
nodes = (
"153 0 LINE",
"153 539 LINE",
"159 539 LINE",
"291 0 LINE",
"378 0 LINE",
"512 539 LINE",
"517 539 LINE",
"517 0 LINE",
"608 0 LINE",
"608 688 LINE",
"471 688 LINE",
"340 157 LINE",
"334 157 LINE",
"203 688 LINE",
"64 688 LINE",
"64 0 LINE"
);
}
);
width = 672;
},
{
anchors = (
{
name = bottom;
position = "{449, 0}";
},
{
name = top;
position = "{449, 688}";
}
);
layerId = "E7A95A6A-7487-49EE-B62A-BA87B06E4B57";
paths = (
{
closed = 1;
nodes = (
"207 0 LINE",
"207 493 LINE",
"211 493 LINE",
"402 0 LINE",
"491 0 LINE",
"683 493 LINE",
"687 493 LINE",
"687 0 LINE",
"811 0 LINE",
"811 688 LINE",
"636 688 LINE",
"452 214 LINE",
"447 214 LINE",
"263 688 LINE",
"87 688 LINE",
"87 0 LINE"
);
}
);
width = 898;
},
{
anchors = (
{
name = bottom;
position = "{250, 0}";
},
{
name = top;
position = "{250, 688}";
}
);
layerId = "487ADAF7-57C4-4091-879E-1D750F439591";
paths = (
{
closed = 1;
nodes = (
"116 0 LINE",
"116 571 LINE",
"123 571 LINE",
"201 0 LINE",
"298 0 LINE",
"374 571 LINE",
"382 571 LINE",
"382 0 LINE",
"458 0 LINE",
"458 688 LINE",
"326 688 LINE",
"253 119 LINE",
"249 119 LINE",
"173 688 LINE",
"42 688 LINE",
"42 0 LINE"
);
}
);
width = 500;
},
{
anchors = (
{
name = bottom;
position = "{282, 0}";
},
{
name = top;
position = "{282, 688}";
}
);
layerId = "7674DAFD-136A-491A-A3F0-195DB056B53F";
paths = (
{
closed = 1;
nodes = (
"156 0 LINE",
"156 563 LINE",
"164 563 LINE",
"204 0 LINE",
"357 0 LINE",
"398 563 LINE",
"405 563 LINE",
"405 0 LINE",
"533 0 LINE",
"533 688 LINE",
"320 688 LINE",
"289 158 LINE",
"281 158 LINE",
"248 688 LINE",
"29 688 LINE",
"29 0 LINE"
);
}
);
width = 563;
},
{
anchors = (
{
name = bottom;
position = "{222, 0}";
},
{
name = top;
position = "{222, 688}";
}
);
layerId = "B5B62657-8F5D-48EE-9125-14A639410D02";
paths = (
{
closed = 1;
nodes = (
"87 0 LINE",
"87 589 LINE",
"91 589 LINE",
"198 0 LINE",
"242 0 LINE",
"351 589 LINE",
"355 589 LINE",
"355 0 LINE",
"391 0 LINE",
"391 688 LINE",
"336 688 LINE",
"224 79 LINE",
"219 79 LINE",
"106 688 LINE",
"52 688 LINE",
"52 0 LINE"
);
}
);
width = 443;
},
{
anchors = (
{
name = bottom;
position = "{506, 0}";
},
{
name = top;
position = "{506, 688}";
}
);
layerId = "8EBCA172-37CB-4E59-A5FF-33FE92477777";
paths = (
{
closed = 1;
nodes = (
"304 0 LINE",
"304 345 LINE",
"316 345 LINE",
"424 0 LINE",
"580 0 LINE",
"688 345 LINE",
"700 345 LINE",
"700 0 LINE",
"953 0 LINE",
"953 688 LINE",
"600 688 LINE",
"510 415 LINE",
"501 415 LINE",
"410 688 LINE",
"58 688 LINE",
"58 0 LINE"
);
}
);
width = 1011;
},
{
anchors = (
{
name = bottom;
position = "{517, 0}";
},
{
name = top;
position = "{517, 688}";
}
);
layerId = "C6199351-AF36-494D-BF00-13EB6406F65F";
paths = (
{
closed = 1;
nodes = (
"226 0 LINE",
"226 505 LINE",
"230 505 LINE",
"465 0 LINE",
"563 0 LINE",
"801 505 LINE",
"804 505 LINE",
"804 0 LINE",
"926 0 LINE",
"926 688 LINE",
"763 688 LINE",
"521 174 LINE",
"514 174 LINE",
"270 688 LINE",
"108 688 LINE",
"108 0 LINE"
);
}
);
width = 1034;
},
{
anchors = (
{
name = bottom;
position = "{533, 0}";
},
{
name = top;
position = "{533, 688}";
}
);
layerId = "E7639064-56EC-4BF1-BEDD-A20273C7A444";
paths = (
{
closed = 1;
nodes = (
"170 0 LINE",
"170 622 LINE",
"174 622 LINE",
"519 0 LINE",
"547 0 LINE",
"891 622 LINE",
"895 622 LINE",
"895 0 LINE",
"931 0 LINE",
"931 688 LINE",
"887 688 LINE",
"535 50 LINE",
"531 50 LINE",
"178 688 LINE",
"135 688 LINE",
"135 0 LINE"
);
}
);
width = 1066;
}
);
leftKerningGroup = H;
rightKerningGroup = H;
unicode = 004D;
},
{
color = 6;
glyphname = N;
layers = (
{
anchors = (
{
name = bottom;
position = "{379, 0}";
},
{
name = top;
position = "{379, 688}";
}
);
layerId = UUID0;
paths = (
{
closed = 1;
nodes = (
"150 0 LINE",
"150 622 LINE",
"154 622 LINE",
"588 0 LINE",
"623 0 LINE",
"623 688 LINE",
"588 688 LINE",
"588 66 LINE",
"584 66 LINE",
"150 688 LINE",
"115 688 LINE",
"115 0 LINE"
);
}
);
width = 738;
},
{
anchors = (
{
name = bottom;
position = "{358, 0}";
},
{
name = top;
position = "{358, 688}";
}
);
layerId = "4F93A97B-747D-4721-B098-38A63C534D7A";
paths = (
{
closed = 1;
nodes = (
"274 0 LINE",
"274 321 LINE",
"280 321 LINE",
"439 0 LINE",
"654 0 LINE",
"654 688 LINE",
"431 688 LINE",
"431 422 LINE",
"424 422 LINE",
"290 688 LINE",
"51 688 LINE",
"51 0 LINE"
);
}
);
width = 705;
},
{
anchors = (
{
name = bottom;
position = "{267, 0}";
},
{
name = top;
position = "{267, 688}";
}
);
layerId = "E6BBBBE7-ECAD-4929-840D-43673C7BDEAF";
paths = (
{
closed = 1;
nodes = (
"116 0 LINE",
"116 604 LINE",
"120 604 LINE",
"412 0 LINE",
"452 0 LINE",
"452 688 LINE",
"417 688 LINE",
"417 84 LINE",
"413 84 LINE",
"122 688 LINE",
"81 688 LINE",
"81 0 LINE"
);
}
);
width = 534;
},
{
anchors = (
{
name = bottom;
position = "{263, 0}";
},
{
name = top;
position = "{263, 688}";
}
);
layerId = "7836D3B9-397C-42C1-8084-A98A44B9119A";
paths = (
{
closed = 1;
nodes = (
"211 0 LINE",
"211 310 LINE",
"216 310 LINE",
"327 0 LINE",
"486 0 LINE",
"486 688 LINE",
"315 688 LINE",
"315 421 LINE",
"309 421 LINE",
"213 688 LINE",
"40 688 LINE",
"40 0 LINE"
);
}
);
width = 526;
},
{
anchors = (
{
name = bottom;
position = "{263, 0}";
},
{
name = top;
position = "{263, 688}";
}
);
layerId = "374FF654-0B40-45EE-AE97-0DEB7620D1EC";
paths = (
{
closed = 1;
nodes = (
"155 0 LINE",
"155 487 LINE",
"159 487 LINE",
"370 0 LINE",
"461 0 LINE",
"461 688 LINE",
"370 688 LINE",
"370 217 LINE",
"366 217 LINE",
"162 688 LINE",
"64 688 LINE",
"64 0 LINE"
);
}
);
width = 525;
},
{
anchors = (
{
name = bottom;
position = "{373, 0}";
},
{
name = top;
position = "{373, 688}";
}
);
layerId = "E7A95A6A-7487-49EE-B62A-BA87B06E4B57";
paths = (
{
closed = 1;
nodes = (
"210 0 LINE",
"210 466 LINE",
"214 466 LINE",
"516 0 LINE",
"639 0 LINE",
"639 688 LINE",
"516 688 LINE",
"516 240 LINE",
"512 240 LINE",
"220 688 LINE",
"87 688 LINE",
"87 0 LINE"
);
}
);
width = 726;
},
{
anchors = (
{
name = bottom;
position = "{182, 0}";
},
{
name = top;
position = "{182, 688}";
}
);
layerId = "487ADAF7-57C4-4091-879E-1D750F439591";
paths = (
{
closed = 1;
nodes = (
"117 0 LINE",
"117 473 LINE",
"120 473 LINE",
"236 0 LINE",
"319 0 LINE",
"319 688 LINE",
"246 688 LINE",
"246 230 LINE",
"243 230 LINE",
"131 688 LINE",
"44 688 LINE",
"44 0 LINE"
);
}
);
width = 363;
},
{
anchors = (
{
name = bottom;
position = "{183, 0}";
},
{
name = top;
position = "{183, 688}";
}
);
layerId = "7674DAFD-136A-491A-A3F0-195DB056B53F";
paths = (
{
closed = 1;
nodes = (
"155 0 LINE",
"155 296 LINE",
"158 296 LINE",
"226 0 LINE",
"337 0 LINE",
"337 688 LINE",
"211 688 LINE",
"211 422 LINE",
"205 422 LINE",
"145 688 LINE",
"29 688 LINE",
"29 0 LINE"
);
}
);
width = 366;
},
{
anchors = (
{
name = bottom;
position = "{177, 0}";
},
{
name = top;
position = "{177, 688}";
}
);
layerId = "B5B62657-8F5D-48EE-9125-14A639410D02";
paths = (
{
closed = 1;
nodes = (
"87 0 LINE",
"87 588 LINE",
"91 588 LINE",
"256 0 LINE",
"303 0 LINE",
"303 688 LINE",
"268 688 LINE",
"268 100 LINE",
"264 100 LINE",
"98 688 LINE",
"52 688 LINE",
"52 0 LINE"
);
}
);
width = 354;
},
{
anchors = (
{
name = bottom;
position = "{406, 0}";
},
{
name = top;
position = "{406, 688}";
}
);
layerId = "8EBCA172-37CB-4E59-A5FF-33FE92477777";
paths = (
{
closed = 1;
nodes = (
"312 0 LINE",
"312 328 LINE",
"318 328 LINE",
"506 0 LINE",
"755 0 LINE",
"755 688 LINE",
"501 688 LINE",
"501 422 LINE",
"493 422 LINE",
"340 688 LINE",
"58 688 LINE",
"58 0 LINE"
);
}
);
width = 812;
},
{
anchors = (
{
name = bottom;
position = "{424, 0}";
},
{
name = top;
position = "{424, 688}";
}
);
layerId = "C6199351-AF36-494D-BF00-13EB6406F65F";
paths = (
{
closed = 1;
nodes = (
"226 0 LINE",
"226 502 LINE",
"230 502 LINE",
"621 0 LINE",
"740 0 LINE",
"740 688 LINE",
"622 688 LINE",
"622 201 LINE",
"618 201 LINE",
"238 688 LINE",
"108 688 LINE",
"108 0 LINE"
);
}
);
width = 848;
},
{
anchors = (
{
name = bottom;
position = "{430, 0}";
},
{
name = top;
position = "{430, 688}";
}
);
layerId = "E7639064-56EC-4BF1-BEDD-A20273C7A444";
paths = (
{
closed = 1;
nodes = (
"170 0 LINE",
"170 626 LINE",
"174 626 LINE",
"694 0 LINE",
"726 0 LINE",
"726 688 LINE",
"691 688 LINE",
"691 62 LINE",
"687 62 LINE",
"167 688 LINE",
"135 688 LINE",
"135 0 LINE"
);
}
);
width = 860;
}
);
leftKerningGroup = H;
rightKerningGroup = H;
unicode = 004E;
},
{
color = 6;
glyphname = Nhookleft;
layers = (
{
anchors = (
{
name = bottom;
position = "{369, 0}";
},
{
name = top;
position = "{369, 688}";
}
);
layerId = UUID0;
paths = (
{
closed = 1;
nodes = (
"106 -200 OFFCURVE",
"150 -195 OFFCURVE",
"150 -103 CURVE SMOOTH",
"150 622 LINE",
"154 622 LINE",
"588 0 LINE",
"623 0 LINE",
"623 688 LINE",
"588 688 LINE",
"588 66 LINE",
"584 66 LINE",
"150 688 LINE",
"115 688 LINE",
"115 -113 LINE SMOOTH",
"115 -158 OFFCURVE",
"106 -170 OFFCURVE",
"13 -170 CURVE",
"13 -200 LINE"
);
}
);
width = 738;
},
{
anchors = (
{
name = bottom;
position = "{363, 0}";
},
{
name = top;
position = "{363, 688}";
}
);
layerId = "E7A95A6A-7487-49EE-B62A-BA87B06E4B57";
paths = (
{
closed = 1;
nodes = (
"165 -200 OFFCURVE",
"210 -186 OFFCURVE",
"210 -29 CURVE SMOOTH",
"210 466 LINE",
"214 466 LINE",
"516 0 LINE",
"639 0 LINE",
"639 688 LINE",
"516 688 LINE",
"516 240 LINE",
"512 240 LINE",
"220 688 LINE",
"87 688 LINE",
"87 -54 LINE SMOOTH",
"87 -95 OFFCURVE",
"81 -108 OFFCURVE",
"-3 -108 CURVE",
"-3 -200 LINE"
);
}
);
width = 726;
},
{
anchors = (
{
name = bottom;
position = "{353, 0}";
},
{
name = top;
position = "{353, 688}";
}
);
layerId = "4F93A97B-747D-4721-B098-38A63C534D7A";
paths = (
{
closed = 1;
nodes = (
"230 -199 OFFCURVE",
"274 -179 OFFCURVE",
"274 37 CURVE SMOOTH",
"274 321 LINE",
"280 321 LINE",
"439 0 LINE",
"654 0 LINE",
"654 688 LINE",
"431 688 LINE",
"431 422 LINE",
"424 422 LINE",
"290 688 LINE",
"51 688 LINE",
"51 -10 LINE SMOOTH",
"51 -45 OFFCURVE",
"48 -61 OFFCURVE",
"-21 -61 CURVE",
"-21 -199 LINE"
);
}
);
width = 705;
},
{
anchors = (
{
name = bottom;
position = "{267, 0}";
},
{
name = top;
position = "{267, 688}";
}
);
layerId = "E6BBBBE7-ECAD-4929-840D-43673C7BDEAF";
paths = (
{
closed = 1;
nodes = (
"82 -193 OFFCURVE",
"116 -188 OFFCURVE",
"116 -96 CURVE SMOOTH",
"116 604 LINE",
"120 604 LINE",
"412 0 LINE",
"452 0 LINE",
"452 688 LINE",
"417 688 LINE",
"417 84 LINE",
"413 84 LINE",
"122 688 LINE",
"81 688 LINE",
"81 -106 LINE SMOOTH",
"81 -151 OFFCURVE",
"75 -163 OFFCURVE",
"7 -163 CURVE",
"7 -193 LINE"
);
}
);
width = 534;
},
{
anchors = (
{
name = bottom;
position = "{263, 0}";
},
{
name = top;
position = "{263, 688}";
}
);
layerId = "374FF654-0B40-45EE-AE97-0DEB7620D1EC";
paths = (
{
closed = 1;
nodes = (
"124 -193 OFFCURVE",
"155 -179 OFFCURVE",
"155 -41 CURVE SMOOTH",
"155 487 LINE",
"159 487 LINE",
"370 0 LINE",
"461 0 LINE",
"461 688 LINE",
"370 688 LINE",
"370 217 LINE",
"366 217 LINE",
"162 688 LINE",
"64 688 LINE",
"64 -69 LINE SMOOTH",
"64 -108 OFFCURVE",
"62 -124 OFFCURVE",
"-2 -124 CURVE",
"-2 -193 LINE"
);
}
);
width = 525;
},
{
anchors = (
{
name = bottom;
position = "{263, 0}";
},
{
name = top;
position = "{263, 688}";
}
);
layerId = "7836D3B9-397C-42C1-8084-A98A44B9119A";
paths = (
{
closed = 1;
nodes = (
"170 -198 OFFCURVE",
"211 -179 OFFCURVE",
"211 35 CURVE SMOOTH",
"211 310 LINE",
"216 310 LINE",
"327 0 LINE",
"486 0 LINE",
"486 688 LINE",
"315 688 LINE",
"315 421 LINE",
"309 421 LINE",
"213 688 LINE",
"40 688 LINE",
"40 -29 LINE SMOOTH",
"40 -64 OFFCURVE",
"40 -80 OFFCURVE",
"-15 -80 CURVE",
"-15 -198 LINE"
);
}
);
width = 526;
},
{
anchors = (
{
name = bottom;
position = "{177, 0}";
},
{
name = top;
position = "{177, 688}";
}
);
layerId = "B5B62657-8F5D-48EE-9125-14A639410D02";
paths = (
{
closed = 1;
nodes = (
"81 -187 OFFCURVE",
"87 -174 OFFCURVE",
"87 0 CURVE SMOOTH",
"87 588 LINE",
"91 588 LINE",
"256 0 LINE",
"303 0 LINE",
"303 688 LINE",
"268 688 LINE",
"268 100 LINE",
"264 100 LINE",
"98 688 LINE",
"52 688 LINE",
"52 0 LINE SMOOTH",
"52 -153 OFFCURVE",
"51 -156 OFFCURVE",
"0 -160 CURVE",
"0 -190 LINE"
);
}
);
width = 354;
},
{
anchors = (
{
name = bottom;
position = "{182, 0}";
},
{
name = top;
position = "{182, 688}";
}
);
layerId = "487ADAF7-57C4-4091-879E-1D750F439591";
paths = (
{
closed = 1;
nodes = (
"97 -193 OFFCURVE",
"117 -182 OFFCURVE",
"117 0 CURVE SMOOTH {name = \"2.2 \";}",
"117 473 LINE",
"120 473 LINE",
"236 0 LINE",
"319 0 LINE",
"319 688 LINE",
"246 688 LINE",
"246 230 LINE",
"243 230 LINE",
"131 688 LINE",
"44 688 LINE",
"44 0 LINE SMOOTH",
"44 -120 OFFCURVE",
"42 -122 OFFCURVE",
"-4 -122 CURVE",
"-4 -193 LINE"
);
}
);
width = 363;
},
{
anchors = (
{
name = bottom;
position = "{184, 0}";
},
{
name = top;
position = "{184, 688}";
}
);
layerId = "7674DAFD-136A-491A-A3F0-195DB056B53F";
paths = (
{
closed = 1;
nodes = (
"145 -198 OFFCURVE",
"155 -151 OFFCURVE",
"155 40 CURVE SMOOTH",
"155 296 LINE",
"158 296 LINE",
"226 0 LINE",
"337 0 LINE",
"337 688 LINE",
"211 688 LINE",
"211 422 LINE",
"205 422 LINE",
"145 688 LINE",
"29 688 LINE",
"29 1 LINE SMOOTH",
"29 -70 OFFCURVE",
"25 -80 OFFCURVE",
"-17 -80 CURVE",
"-17 -198 LINE"
);
}
);
width = 366;
},
{
anchors = (
{
name = bottom;
position = "{430, 0}";
},
{
name = top;
position = "{430, 688}";
}
);
layerId = "E7639064-56EC-4BF1-BEDD-A20273C7A444";
paths = (
{
closed = 1;
nodes = (
"164 -200 OFFCURVE",
"170 -188 OFFCURVE",
"170 53 CURVE SMOOTH {name = \"0.7 \";}",
"170 626 LINE",
"174 626 LINE",
"694 0 LINE",
"726 0 LINE",
"726 688 LINE",
"691 688 LINE",
"691 62 LINE",
"687 62 LINE",
"167 688 LINE",
"135 688 LINE",
"135 53 LINE SMOOTH",
"135 -161 OFFCURVE",
"132 -170 OFFCURVE",
"0 -170 CURVE",
"0 -200 LINE"
);
}
);
width = 860;
},
{
anchors = (
{
name = bottom;
position = "{425, 0}";
},
{
name = top;
position = "{425, 688}";
}
);
layerId = "C6199351-AF36-494D-BF00-13EB6406F65F";
paths = (
{
closed = 1;
nodes = (
"216 -200 OFFCURVE",
"226 -194 OFFCURVE",
"226 97 CURVE SMOOTH",
"226 502 LINE",
"230 502 LINE",
"621 0 LINE",
"740 0 LINE",
"740 688 LINE",
"622 688 LINE",
"622 201 LINE",
"618 201 LINE",
"238 688 LINE",
"108 688 LINE",
"108 65 LINE SMOOTH",
"108 -93 OFFCURVE",
"108 -102 OFFCURVE",
"-20 -103 CURVE",
"-20 -201 LINE"
);
}
);
width = 848;
},
{
anchors = (
{
name = bottom;
position = "{407, 0}";
},
{
name = top;
position = "{407, 688}";
}
);
layerId = "8EBCA172-37CB-4E59-A5FF-33FE92477777";
paths = (
{
closed = 1;
nodes = (
"297 -248 OFFCURVE",
"312 -236 OFFCURVE",
"312 80 CURVE SMOOTH",
"312 328 LINE",
"318 328 LINE",
"506 0 LINE",
"755 0 LINE",
"755 688 LINE",
"501 688 LINE",
"501 422 LINE",
"493 422 LINE",
"340 688 LINE",
"58 688 LINE",
"58 44 LINE SMOOTH",
"58 -67 OFFCURVE",
"53 -71 OFFCURVE",
"-99 -71 CURVE",
"-99 -248 LINE"
);
}
);
width = 812;
}
);
leftKerningGroup = j;
rightKerningGroup = H;
rightMetricsKey = N;
unicode = 019D;
},
{
color = 6;
glyphname = Eng;
layers = (
{
layerId = UUID0;
paths = (
{
closed = 1;
nodes = (
"579 -200 OFFCURVE",
"623 -195 OFFCURVE",
"623 -103 CURVE SMOOTH",
"623 688 LINE",
"588 688 LINE",
"588 66 LINE",
"584 66 LINE",
"150 688 LINE",
"115 688 LINE",
"115 0 LINE",
"150 0 LINE",
"150 622 LINE",
"154 622 LINE",
"588 0 LINE",
"588 -113 LINE SMOOTH",
"588 -158 OFFCURVE",
"579 -170 OFFCURVE",
"486 -170 CURVE",
"486 -200 LINE"
);
}
);
width = 738;
},
{
layerId = "E7A95A6A-7487-49EE-B62A-BA87B06E4B57";
paths = (
{
closed = 1;
nodes = (
"594 -200 OFFCURVE",
"639 -186 OFFCURVE",
"639 -29 CURVE SMOOTH",
"639 688 LINE",
"516 688 LINE",
"516 240 LINE",
"512 240 LINE",
"220 688 LINE",
"87 688 LINE",
"87 0 LINE",
"210 0 LINE",
"210 466 LINE",
"214 466 LINE",
"516 0 LINE",
"516 -54 LINE SMOOTH",
"516 -95 OFFCURVE",
"510 -108 OFFCURVE",
"426 -108 CURVE",
"426 -200 LINE"
);
}
);
width = 726;
},
{
layerId = "4F93A97B-747D-4721-B098-38A63C534D7A";
paths = (
{
closed = 1;
nodes = (
"610 -199 OFFCURVE",
"654 -179 OFFCURVE",
"654 37 CURVE SMOOTH",
"654 688 LINE",
"431 688 LINE",
"431 422 LINE",
"424 422 LINE",
"290 688 LINE",
"51 688 LINE",
"51 0 LINE",
"274 0 LINE",
"274 321 LINE",
"280 321 LINE",
"431 16 LINE",
"431 -10 LINE SMOOTH",
"431 -45 OFFCURVE",
"428 -61 OFFCURVE",
"359 -61 CURVE",
"359 -199 LINE"
);
}
);
width = 705;
},
{
layerId = "E6BBBBE7-ECAD-4929-840D-43673C7BDEAF";
paths = (
{
closed = 1;
nodes = (
"418 -193 OFFCURVE",
"452 -188 OFFCURVE",
"452 -96 CURVE SMOOTH",
"452 688 LINE",
"417 688 LINE",
"417 90 LINE",
"413 90 LINE",
"122 688 LINE",
"81 688 LINE",
"81 0 LINE",
"116 0 LINE",
"116 604 LINE",
"120 604 LINE",
"417 0 LINE",
"417 -106 LINE SMOOTH",
"417 -151 OFFCURVE",
"411 -163 OFFCURVE",
"343 -163 CURVE",
"343 -193 LINE"
);
}
);
width = 534;
},
{
layerId = "374FF654-0B40-45EE-AE97-0DEB7620D1EC";
paths = (
{
closed = 1;
nodes = (
"429 -193 OFFCURVE",
"461 -179 OFFCURVE",
"461 -41 CURVE SMOOTH",
"461 688 LINE",
"370 688 LINE",
"370 217 LINE",
"366 217 LINE",
"162 688 LINE",
"64 688 LINE",
"64 0 LINE",
"155 0 LINE",
"155 487 LINE",
"159 487 LINE",
"370 0 LINE",
"370 -69 LINE SMOOTH",
"370 -106 OFFCURVE",
"366 -124 OFFCURVE",
"305 -124 CURVE",
"305 -193 LINE"
);
}
);
width = 525;
},
{
layerId = "7836D3B9-397C-42C1-8084-A98A44B9119A";
paths = (
{
closed = 1;
nodes = (
"432 -198 OFFCURVE",
"486 -181 OFFCURVE",
"486 0 CURVE SMOOTH",
"486 688 LINE",
"315 688 LINE",
"315 421 LINE",
"309 421 LINE",
"213 688 LINE",
"40 688 LINE",
"40 0 LINE",
"211 0 LINE",
"211 310 LINE",
"216 310 LINE",
"316 33 LINE",
"316 -29 LINE SMOOTH",
"316 -67 OFFCURVE",
"316 -80 OFFCURVE",
"260 -80 CURVE",
"260 -198 LINE"
);
}
);
width = 526;
},
{
layerId = "487ADAF7-57C4-4091-879E-1D750F439591";
paths = (
{
closed = 1;
nodes = (
"296 -194 OFFCURVE",
"319 -185 OFFCURVE",
"319 -68 CURVE SMOOTH",
"319 688 LINE",
"246 688 LINE",
"246 256 LINE",
"243 256 LINE",
"128 688 LINE",
"44 688 LINE",
"44 0 LINE",
"117 0 LINE",
"117 473 LINE",
"120 473 LINE",
"246 4 LINE",
"246 -83 LINE SMOOTH",
"246 -124 OFFCURVE",
"246 -139 OFFCURVE",
"200 -139 CURVE",
"200 -194 LINE"
);
}
);
width = 363;
},
{
layerId = "7674DAFD-136A-491A-A3F0-195DB056B53F";
paths = (
{
closed = 1;
nodes = (
"290 -199 OFFCURVE",
"337 -182 OFFCURVE",
"337 -17 CURVE SMOOTH",
"337 688 LINE",
"211 688 LINE",
"211 422 LINE",
"205 422 LINE",
"145 688 LINE",
"29 688 LINE",
"29 0 LINE",
"155 0 LINE",
"155 296 LINE",
"158 296 LINE",
"212 61 LINE",
"212 -54 LINE SMOOTH",
"212 -94 OFFCURVE",
"206 -103 OFFCURVE",
"172 -103 CURVE",
"172 -199 LINE"
);
}
);
width = 366;
},
{
layerId = "B5B62657-8F5D-48EE-9125-14A639410D02";
paths = (
{
closed = 1;
nodes = (
"276 -188 OFFCURVE",
"303 -183 OFFCURVE",
"303 -91 CURVE SMOOTH",
"303 688 LINE",
"268 688 LINE",
"268 134 LINE",
"264 134 LINE",
"97 688 LINE",
"52 688 LINE",
"52 0 LINE",
"87 0 LINE",
"87 588 LINE",
"91 588 LINE",
"268 0 LINE",
"268 -101 LINE SMOOTH",
"268 -146 OFFCURVE",
"263 -158 OFFCURVE",
"217 -158 CURVE",
"217 -188 LINE"
);
}
);
width = 354;
},
{
layerId = "8EBCA172-37CB-4E59-A5FF-33FE92477777";
paths = (
{
closed = 1;
nodes = (
"711 -200 OFFCURVE",
"755 -178 OFFCURVE",
"755 52 CURVE SMOOTH",
"755 688 LINE",
"501 688 LINE",
"501 422 LINE",
"493 422 LINE",
"340 688 LINE",
"58 688 LINE",
"58 0 LINE",
"312 0 LINE",
"312 328 LINE",
"318 328 LINE",
"506 0 LINE",
"506 -9 LINE SMOOTH",
"506 -38 OFFCURVE",
"489 -50 OFFCURVE",
"418 -50 CURVE",
"418 -200 LINE"
);
}
);
width = 812;
},
{
layerId = "C6199351-AF36-494D-BF00-13EB6406F65F";
paths = (
{
closed = 1;
nodes = (
"691 -202 OFFCURVE",
"740 -190 OFFCURVE",
"740 -42 CURVE SMOOTH",
"740 688 LINE",
"622 688 LINE",
"622 201 LINE",
"618 201 LINE",
"238 688 LINE",
"108 688 LINE",
"108 0 LINE",
"226 0 LINE",
"226 502 LINE",
"230 502 LINE",
"621 0 LINE",
"621 -60 LINE SMOOTH",
"621 -101 OFFCURVE",
"613 -114 OFFCURVE",
"514 -114 CURVE",
"514 -202 LINE"
);
}
);
width = 848;
},
{
layerId = "E7639064-56EC-4BF1-BEDD-A20273C7A444";
paths = (
{
closed = 1;
nodes = (
"676 -200 OFFCURVE",
"726 -195 OFFCURVE",
"726 -103 CURVE SMOOTH",
"726 688 LINE",
"691 688 LINE",
"691 62 LINE",
"687 62 LINE",
"167 688 LINE",
"135 688 LINE",
"135 0 LINE",
"170 0 LINE",
"170 626 LINE",
"174 626 LINE",
"691 3 LINE",
"691 -113 LINE SMOOTH",
"691 -158 OFFCURVE",
"680 -170 OFFCURVE",
"572 -170 CURVE",
"572 -200 LINE"
);
}
);
width = 860;
}
);
leftKerningGroup = H;
rightKerningGroup = H;
unicode = 014A;
},
{
color = 6;
glyphname = O;
layers = (
{
anchors = (
{
name = bottom;
position = "{363, 0}";
},
{
name = center;
position = "{363, 344}";
},
{
name = ogonek;
position = "{399, 0}";
},
{
name = top;
position = "{363, 688}";
},
{
name = topleft;
position = "{20, 688}";
},
{
name = topright;
position = "{497, 688}";
}
);
guideLines = (
{
angle = -0.0082;
position = "{618, 342.712}";
showMeasurement = 1;
}
);
layerId = UUID0;
paths = (
{
closed = 1;
nodes = (
"620 -8 OFFCURVE",
"636 31 OFFCURVE",
"636 344 CURVE SMOOTH",
"636 657 OFFCURVE",
"620 696 OFFCURVE",
"363 696 CURVE SMOOTH",
"106 696 OFFCURVE",
"90 657 OFFCURVE",
"90 344 CURVE SMOOTH",
"90 31 OFFCURVE",
"106 -8 OFFCURVE",
"363 -8 CURVE SMOOTH"
);
},
{
closed = 1;
nodes = (
"146 26 OFFCURVE",
"126 32 OFFCURVE",
"126 344 CURVE SMOOTH",
"126 656 OFFCURVE",
"146 662 OFFCURVE",
"363 662 CURVE SMOOTH",
"580 662 OFFCURVE",
"600 656 OFFCURVE",
"600 344 CURVE SMOOTH",
"600 32 OFFCURVE",
"580 26 OFFCURVE",
"363 26 CURVE SMOOTH"
);
}
);
width = 726;
},
{
anchors = (
{
name = bottom;
position = "{348, 0}";
},
{
name = center;
position = "{348, 344}";
},
{
name = ogonek;
position = "{440, 0}";
},
{
name = top;
position = "{348, 688}";
},
{
name = topleft;
position = "{20, 688}";
},
{
name = topright;
position = "{460, 688}";
}
);
layerId = "4F93A97B-747D-4721-B098-38A63C534D7A";
paths = (
{
closed = 1;
nodes = (
"649 -8 OFFCURVE",
"653 73 OFFCURVE",
"653 344 CURVE SMOOTH",
"653 615 OFFCURVE",
"649 696 OFFCURVE",
"347 696 CURVE SMOOTH",
"45 696 OFFCURVE",
"42 615 OFFCURVE",
"42 344 CURVE SMOOTH",
"42 73 OFFCURVE",
"45 -8 OFFCURVE",
"347 -8 CURVE SMOOTH"
);
},
{
closed = 1;
nodes = (
"277 159 OFFCURVE",
"277 163 OFFCURVE",
"277 344 CURVE SMOOTH",
"277 525 OFFCURVE",
"277 529 OFFCURVE",
"347 529 CURVE SMOOTH",
"417 529 OFFCURVE",
"418 525 OFFCURVE",
"418 344 CURVE SMOOTH",
"418 163 OFFCURVE",
"417 159 OFFCURVE",
"347 159 CURVE SMOOTH"
);
}
);
width = 695;
},
{
anchors = (
{
name = bottom;
position = "{263, 0}";
},
{
name = center;
position = "{263, 344}";
},
{
name = ogonek;
position = "{304, 0}";
},
{
name = top;
position = "{263, 688}";
},
{
name = topleft;
position = "{167, 688}";
},
{
name = topright;
position = "{359, 688}";
}
);
layerId = "E6BBBBE7-ECAD-4929-840D-43673C7BDEAF";
paths = (
{
closed = 1;
nodes = (
"441 -8 OFFCURVE",
"463 31 OFFCURVE",
"463 344 CURVE SMOOTH",
"463 657 OFFCURVE",
"441 696 OFFCURVE",
"262 696 CURVE SMOOTH",
"85 696 OFFCURVE",
"63 657 OFFCURVE",
"63 344 CURVE SMOOTH",
"63 31 OFFCURVE",
"85 -8 OFFCURVE",
"262 -8 CURVE SMOOTH"
);
},
{
closed = 1;
nodes = (
"110 26 OFFCURVE",
"99 48 OFFCURVE",
"99 344 CURVE SMOOTH",
"99 640 OFFCURVE",
"110 662 OFFCURVE",
"262 662 CURVE SMOOTH",
"415 662 OFFCURVE",
"427 640 OFFCURVE",
"427 344 CURVE SMOOTH",
"427 48 OFFCURVE",
"415 26 OFFCURVE",
"262 26 CURVE SMOOTH"
);
}
);
width = 526;
},
{
anchors = (
{
name = bottom;
position = "{255, 0}";
},
{
name = center;
position = "{255, 344}";
},
{
name = ogonek;
position = "{331, 0}";
},
{
name = top;
position = "{255, 688}";
},
{
name = topleft;
position = "{176, 688}";
},
{
name = topright;
position = "{334, 688}";
}
);
layerId = "7836D3B9-397C-42C1-8084-A98A44B9119A";
paths = (
{
closed = 1;
nodes = (
"452 -8 OFFCURVE",
"479 34 OFFCURVE",
"479 344 CURVE SMOOTH",
"479 654 OFFCURVE",
"452 696 OFFCURVE",
"254 696 CURVE SMOOTH",
"57 696 OFFCURVE",
"30 654 OFFCURVE",
"30 344 CURVE SMOOTH",
"30 34 OFFCURVE",
"57 -8 OFFCURVE",
"254 -8 CURVE SMOOTH"
);
},
{
closed = 1;
nodes = (
"212 140 OFFCURVE",
"211 144 OFFCURVE",
"211 344 CURVE SMOOTH",
"211 544 OFFCURVE",
"212 548 OFFCURVE",
"254 548 CURVE SMOOTH",
"297 548 OFFCURVE",
"298 544 OFFCURVE",
"298 344 CURVE SMOOTH",
"298 144 OFFCURVE",
"297 140 OFFCURVE",
"254 140 CURVE SMOOTH"
);
}
);
width = 509;
},
{
anchors = (
{
name = bottom;
position = "{258, 0}";
},
{
name = center;
position = "{258, 344}";
},
{
name = ogonek;
position = "{324, 0}";
},
{
name = top;
position = "{258, 688}";
},
{
name = topleft;
position = "{190, 688}";
},
{
name = topright;
position = "{326, 688}";
}
);
layerId = "374FF654-0B40-45EE-AE97-0DEB7620D1EC";
paths = (
{
closed = 1;
nodes = (
"440 -8 OFFCURVE",
"465 34 OFFCURVE",
"465 344 CURVE SMOOTH",
"465 654 OFFCURVE",
"440 696 OFFCURVE",
"257 696 CURVE SMOOTH",
"74 696 OFFCURVE",
"49 654 OFFCURVE",
"49 344 CURVE SMOOTH",
"49 34 OFFCURVE",
"74 -8 OFFCURVE",
"257 -8 CURVE SMOOTH"
);
},
{
closed = 1;
nodes = (
"151 74 OFFCURVE",
"144 90 OFFCURVE",
"144 344 CURVE SMOOTH",
"144 598 OFFCURVE",
"151 614 OFFCURVE",
"257 614 CURVE SMOOTH",
"364 614 OFFCURVE",
"371 598 OFFCURVE",
"371 344 CURVE SMOOTH",
"371 90 OFFCURVE",
"364 74 OFFCURVE",
"257 74 CURVE SMOOTH"
);
}
);
width = 515;
},
{
anchors = (
{
name = bottom;
position = "{355, 0}";
},
{
name = center;
position = "{355, 344}";
},
{
name = ogonek;
position = "{429, 0}";
},
{
name = top;
position = "{355, 688}";
},
{
name = topleft;
position = "{20, 688}";
},
{
name = topright;
position = "{458, 688}";
}
);
layerId = "E7A95A6A-7487-49EE-B62A-BA87B06E4B57";
paths = (
{
closed = 1;
nodes = (
"631 -8 OFFCURVE",
"644 64 OFFCURVE",
"644 344 CURVE SMOOTH",
"644 624 OFFCURVE",
"631 696 OFFCURVE",
"354 696 CURVE SMOOTH",
"77 696 OFFCURVE",
"65 624 OFFCURVE",
"65 344 CURVE SMOOTH",
"65 64 OFFCURVE",
"77 -8 OFFCURVE",
"354 -8 CURVE SMOOTH"
);
},
{
closed = 1;
nodes = (
"199 100 OFFCURVE",
"193 105 OFFCURVE",
"193 344 CURVE SMOOTH",
"193 583 OFFCURVE",
"199 588 OFFCURVE",
"354 588 CURVE SMOOTH",
"509 588 OFFCURVE",
"516 583 OFFCURVE",
"516 344 CURVE SMOOTH",
"516 105 OFFCURVE",
"509 100 OFFCURVE",
"354 100 CURVE SMOOTH"
);
}
);
width = 709;
},
{
anchors = (
{
name = bottom;
position = "{176, 0}";
},
{
name = center;
position = "{176, 344}";
},
{
name = ogonek;
position = "{215, 0}";
},
{
name = top;
position = "{176, 688}";
},
{
name = topleft;
position = "{20, 688}";
},
{
name = topright;
position = "{205, 688}";
}
);
layerId = "487ADAF7-57C4-4091-879E-1D750F439591";
paths = (
{
closed = 1;
nodes = (
"310 -8 OFFCURVE",
"320 56 OFFCURVE",
"320 344 CURVE SMOOTH",
"320 632 OFFCURVE",
"310 696 OFFCURVE",
"175 696 CURVE SMOOTH",
"40 696 OFFCURVE",
"30 632 OFFCURVE",
"30 344 CURVE SMOOTH",
"30 56 OFFCURVE",
"40 -8 OFFCURVE",
"175 -8 CURVE SMOOTH"
);
},
{
closed = 1;
nodes = (
"121 63 OFFCURVE",
"108 74 OFFCURVE",
"108 344 CURVE SMOOTH",
"108 614 OFFCURVE",
"121 625 OFFCURVE",
"175 625 CURVE SMOOTH",
"229 625 OFFCURVE",
"242 614 OFFCURVE",
"242 344 CURVE SMOOTH",
"242 74 OFFCURVE",
"229 63 OFFCURVE",
"175 63 CURVE SMOOTH"
);
}
);
width = 351;
},
{
anchors = (
{
name = bottom;
position = "{171, 0}";
},
{
name = center;
position = "{171, 344}";
},
{
name = ogonek;
position = "{218, 0}";
},
{
name = top;
position = "{171, 688}";
},
{
name = topleft;
position = "{20, 688}";
},
{
name = topright;
position = "{169, 688}";
}
);
layerId = "7674DAFD-136A-491A-A3F0-195DB056B53F";
paths = (
{
closed = 1;
nodes = (
"322 -8 OFFCURVE",
"323 85 OFFCURVE",
"323 344 CURVE SMOOTH",
"323 603 OFFCURVE",
"322 696 OFFCURVE",
"171 696 CURVE SMOOTH",
"20 696 OFFCURVE",
"19 603 OFFCURVE",
"19 344 CURVE SMOOTH",
"19 85 OFFCURVE",
"20 -8 OFFCURVE",
"171 -8 CURVE SMOOTH"
);
},
{
closed = 1;
nodes = (
"152 118 OFFCURVE",
"152 119 OFFCURVE",
"152 344 CURVE SMOOTH",
"152 569 OFFCURVE",
"152 570 OFFCURVE",
"171 570 CURVE SMOOTH",
"190 570 OFFCURVE",
"190 569 OFFCURVE",
"190 344 CURVE SMOOTH",
"190 119 OFFCURVE",
"190 118 OFFCURVE",
"171 118 CURVE SMOOTH"
);
}
);
width = 342;
},
{
anchors = (
{
name = bottom;
position = "{175, 0}";
},
{
name = center;
position = "{175, 344}";
},
{
name = ogonek;
position = "{213, 0}";
},
{
name = top;
position = "{175, 688}";
},
{
name = topleft;
position = "{20, 688}";
},
{
name = topright;
position = "{212, 688}";
}
);
layerId = "B5B62657-8F5D-48EE-9125-14A639410D02";
paths = (
{
closed = 1;
nodes = (
"292 -8 OFFCURVE",
"310 42 OFFCURVE",
"310 344 CURVE SMOOTH",
"310 646 OFFCURVE",
"292 696 OFFCURVE",
"175 696 CURVE SMOOTH",
"58 696 OFFCURVE",
"40 646 OFFCURVE",
"40 344 CURVE SMOOTH",
"40 42 OFFCURVE",
"58 -8 OFFCURVE",
"175 -8 CURVE SMOOTH"
);
},
{
closed = 1;
nodes = (
"95 26 OFFCURVE",
"76 43 OFFCURVE",
"76 344 CURVE SMOOTH",
"76 645 OFFCURVE",
"95 662 OFFCURVE",
"175 662 CURVE SMOOTH",
"256 662 OFFCURVE",
"274 645 OFFCURVE",
"274 344 CURVE SMOOTH",
"274 43 OFFCURVE",
"256 26 OFFCURVE",
"175 26 CURVE SMOOTH"
);
}
);
width = 350;
},
{
anchors = (
{
name = bottom;
position = "{404, 0}";
},
{
name = center;
position = "{404, 344}";
},
{
name = ogonek;
position = "{526, 0}";
},
{
name = top;
position = "{404, 688}";
},
{
name = topleft;
position = "{20, 688}";
},
{
name = topright;
position = "{451, 688}";
}
);
layerId = "8EBCA172-37CB-4E59-A5FF-33FE92477777";
paths = (
{
closed = 1;
nodes = (
"752 -8 OFFCURVE",
"757 69 OFFCURVE",
"757 343 CURVE SMOOTH",
"757 617 OFFCURVE",
"752 696 OFFCURVE",
"403 696 CURVE SMOOTH",
"54 696 OFFCURVE",
"49 617 OFFCURVE",
"49 343 CURVE SMOOTH",
"49 69 OFFCURVE",
"54 -8 OFFCURVE",
"403 -8 CURVE SMOOTH"
);
},
{
closed = 1;
nodes = (
"318 174 OFFCURVE",
"316 178 OFFCURVE",
"316 343 CURVE SMOOTH",
"316 508 OFFCURVE",
"318 514 OFFCURVE",
"403 514 CURVE SMOOTH",
"488 514 OFFCURVE",
"490 508 OFFCURVE",
"490 343 CURVE SMOOTH",
"490 178 OFFCURVE",
"488 174 OFFCURVE",
"403 174 CURVE SMOOTH"
);
}
);
width = 807;
},
{
anchors = (
{
name = bottom;
position = "{415, 0}";
},
{
name = center;
position = "{415, 344}";
},
{
name = ogonek;
position = "{467, 0}";
},
{
name = top;
position = "{415, 688}";
},
{
name = topleft;
position = "{20, 688}";
},
{
name = topright;
position = "{507, 688}";
}
);
layerId = "C6199351-AF36-494D-BF00-13EB6406F65F";
paths = (
{
closed = 1;
nodes = (
"735 -8 OFFCURVE",
"750 60 OFFCURVE",
"750 344 CURVE SMOOTH",
"750 628 OFFCURVE",
"735 696 OFFCURVE",
"416 696 CURVE SMOOTH",
"97 696 OFFCURVE",
"80 628 OFFCURVE",
"80 344 CURVE SMOOTH",
"80 60 OFFCURVE",
"97 -8 OFFCURVE",
"416 -8 CURVE SMOOTH"
);
},
{
closed = 1;
nodes = (
"214 95 OFFCURVE",
"205 105 OFFCURVE",
"205 344 CURVE SMOOTH",
"205 583 OFFCURVE",
"214 593 OFFCURVE",
"416 593 CURVE SMOOTH",
"618 593 OFFCURVE",
"625 583 OFFCURVE",
"625 344 CURVE SMOOTH",
"625 105 OFFCURVE",
"618 95 OFFCURVE",
"416 95 CURVE SMOOTH"
);
}
);
width = 830;
},
{
anchors = (
{
name = bottom;
position = "{423, 0}";
},
{
name = center;
position = "{423, 344}";
},
{
name = ogonek;
position = "{453, 0}";
},
{
name = top;
position = "{423, 688}";
},
{
name = topleft;
position = "{20, 688}";
},
{
name = topright;
position = "{588, 688}";
}
);
layerId = "E7639064-56EC-4BF1-BEDD-A20273C7A444";
paths = (
{
closed = 1;
nodes = (
"724 -8 OFFCURVE",
"740 27 OFFCURVE",
"740 344 CURVE SMOOTH",
"740 661 OFFCURVE",
"724 696 OFFCURVE",
"423 696 CURVE SMOOTH",
"122 696 OFFCURVE",
"106 661 OFFCURVE",
"106 344 CURVE SMOOTH",
"106 27 OFFCURVE",
"122 -8 OFFCURVE",
"423 -8 CURVE SMOOTH"
);
},
{
closed = 1;
nodes = (
"164 26 OFFCURVE",
"142 28 OFFCURVE",
"142 344 CURVE SMOOTH",
"142 660 OFFCURVE",
"164 662 OFFCURVE",
"423 662 CURVE SMOOTH",
"682 662 OFFCURVE",
"704 660 OFFCURVE",
"704 344 CURVE SMOOTH",
"704 28 OFFCURVE",
"682 26 OFFCURVE",
"423 26 CURVE SMOOTH"
);
}
);
width = 846;
}
);
leftKerningGroup = O;
rightKerningGroup = O;
unicode = 004F;
},
{
color = 3;
glyphname = Ohorn;
layers = (
{
anchors = (
{
name = _topright;
position = "{497, 688}";
},
{
name = bottom;
position = "{363, 0}";
},
{
name = top;
position = "{363, 688}";
},
{
name = topright;
position = "{497, 786}";
}
);
components = (
{
name = O;
}
);
layerId = UUID0;
paths = (
{
closed = 1;
nodes = (
"556 660 LINE SMOOTH",
"623 660 OFFCURVE",
"639 680 OFFCURVE",
"639 758 CURVE SMOOTH",
"639 786 LINE",
"606 786 LINE",
"606 751 LINE SMOOTH",
"606 702 OFFCURVE",
"601 688 OFFCURVE",
"556 688 CURVE SMOOTH",
"497 688 LINE",
"497 660 LINE"
);
}
);
width = 726;
},
{
anchors = (
{
name = _topright;
position = "{458, 688}";
},
{
name = bottom;
position = "{355, 0}";
},
{
name = top;
position = "{355, 688}";
},
{
name = topright;
position = "{458, 779}";
}
);
components = (
{
name = O;
}
);
layerId = "E7A95A6A-7487-49EE-B62A-BA87B06E4B57";
paths = (
{
closed = 1;
nodes = (
"530 639 LINE SMOOTH",
"653 639 OFFCURVE",
"672 665 OFFCURVE",
"672 759 CURVE SMOOTH",
"672 779 LINE",
"591 779 LINE",
"591 751 LINE SMOOTH",
"591 702 OFFCURVE",
"584 688 OFFCURVE",
"530 688 CURVE SMOOTH",
"458 688 LINE",
"458 639 LINE"
);
}
);
width = 709;
},
{
anchors = (
{
name = _topright;
position = "{460, 688}";
},
{
name = bottom;
position = "{348, 0}";
},
{
name = top;
position = "{348, 688}";
},
{
name = topright;
position = "{460, 776}";
}
);
components = (
{
name = O;
}
);
layerId = "4F93A97B-747D-4721-B098-38A63C534D7A";
paths = (
{
closed = 1;
nodes = (
"486 616 LINE SMOOTH",
"669 616 OFFCURVE",
"691 649 OFFCURVE",
"691 763 CURVE SMOOTH",
"691 776 LINE",
"556 776 LINE",
"556 754 LINE SMOOTH",
"556 704 OFFCURVE",
"549 688 OFFCURVE",
"486 688 CURVE SMOOTH",
"460 688 LINE",
"460 616 LINE"
);
}
);
width = 695;
},
{
anchors = (
{
name = _topright;
position = "{359, 688}";
},
{
name = bottom;
position = "{263, 0}";
},
{
name = top;
position = "{263, 688}";
},
{
name = topright;
position = "{359, 786}";
}
);
components = (
{
name = O;
}
);
layerId = "E6BBBBE7-ECAD-4929-840D-43673C7BDEAF";
paths = (
{
closed = 1;
nodes = (
"400 660 LINE SMOOTH",
"461 660 OFFCURVE",
"475 679 OFFCURVE",
"475 751 CURVE SMOOTH",
"475 786 LINE",
"444 786 LINE",
"444 744 LINE SMOOTH",
"444 705 OFFCURVE",
"442 688 OFFCURVE",
"400 688 CURVE SMOOTH",
"359 688 LINE",
"359 660 LINE"
);
}
);
width = 526;
},
{
anchors = (
{
name = _topright;
position = "{326, 688}";
},
{
name = bottom;
position = "{258, 0}";
},
{
name = top;
position = "{258, 688}";
},
{
name = topright;
position = "{326, 779}";
}
);
components = (
{
name = O;
}
);
layerId = "374FF654-0B40-45EE-AE97-0DEB7620D1EC";
paths = (
{
closed = 1;
nodes = (
"375 639 LINE SMOOTH",
"502 639 OFFCURVE",
"517 661 OFFCURVE",
"517 745 CURVE SMOOTH",
"517 779 LINE",
"448 779 LINE",
"448 730 LINE SMOOTH",
"448 695 OFFCURVE",
"436 688 OFFCURVE",
"405 688 CURVE SMOOTH",
"326 688 LINE",
"326 639 LINE"
);
}
);
width = 515;
},
{
anchors = (
{
name = _topright;
position = "{334, 688}";
},
{
name = bottom;
position = "{255, 0}";
},
{
name = top;
position = "{255, 688}";
},
{
name = topright;
position = "{334, 776}";
}
);
components = (
{
name = O;
}
);
layerId = "7836D3B9-397C-42C1-8084-A98A44B9119A";
paths = (
{
closed = 1;
nodes = (
"386 624 LINE SMOOTH",
"514 624 OFFCURVE",
"528 655 OFFCURVE",
"528 762 CURVE SMOOTH",
"528 776 LINE",
"436 776 LINE",
"436 744 LINE SMOOTH",
"436 702 OFFCURVE",
"427 688 OFFCURVE",
"386 688 CURVE SMOOTH",
"334 688 LINE",
"334 624 LINE"
);
}
);
width = 509;
},
{
anchors = (
{
name = _topright;
position = "{205, 688}";
},
{
name = bottom;
position = "{176, 0}";
},
{
name = top;
position = "{176, 688}";
},
{
name = topright;
position = "{205, 779}";
}
);
components = (
{
name = O;
}
);
layerId = "487ADAF7-57C4-4091-879E-1D750F439591";
paths = (
{
closed = 1;
nodes = (
"254 644 LINE SMOOTH",
"317 644 OFFCURVE",
"335 671 OFFCURVE",
"335 749 CURVE SMOOTH",
"335 779 LINE",
"280 779 LINE",
"280 756 LINE SMOOTH",
"280 709 OFFCURVE",
"279 688 OFFCURVE",
"250 688 CURVE SMOOTH",
"205 688 LINE",
"205 644 LINE"
);
}
);
width = 351;
},
{
anchors = (
{
name = _topright;
position = "{169, 688}";
},
{
name = bottom;
position = "{171, 0}";
},
{
name = top;
position = "{171, 688}";
},
{
name = topright;
position = "{169, 776}";
}
);
components = (
{
name = O;
}
);
layerId = "7674DAFD-136A-491A-A3F0-195DB056B53F";
paths = (
{
closed = 1;
nodes = (
"236 626 LINE SMOOTH",
"358 626 OFFCURVE",
"372 657 OFFCURVE",
"372 752 CURVE SMOOTH",
"372 776 LINE",
"291 776 LINE",
"291 740 LINE SMOOTH",
"291 701 OFFCURVE",
"281 688 OFFCURVE",
"247 688 CURVE SMOOTH",
"169 688 LINE",
"169 626 LINE"
);
}
);
width = 342;
},
{
anchors = (
{
name = _topright;
position = "{212, 688}";
},
{
name = bottom;
position = "{175, 0}";
},
{
name = top;
position = "{175, 688}";
},
{
name = topright;
position = "{212, 786}";
}
);
components = (
{
name = O;
}
);
layerId = "B5B62657-8F5D-48EE-9125-14A639410D02";
paths = (
{
closed = 1;
nodes = (
"253 660 LINE SMOOTH",
"307 660 OFFCURVE",
"320 679 OFFCURVE",
"320 751 CURVE SMOOTH",
"320 786 LINE",
"289 786 LINE",
"289 744 LINE SMOOTH",
"289 705 OFFCURVE",
"287 688 OFFCURVE",
"253 688 CURVE SMOOTH",
"212 688 LINE",
"212 660 LINE"
);
}
);
width = 350;
},
{
anchors = (
{
name = _topright;
position = "{451, 688}";
},
{
name = bottom;
position = "{404, 0}";
},
{
name = top;
position = "{404, 688}";
},
{
name = topright;
position = "{451, 776}";
}
);
components = (
{
name = O;
}
);
layerId = "8EBCA172-37CB-4E59-A5FF-33FE92477777";
paths = (
{
closed = 1;
nodes = (
"663 613 LINE SMOOTH",
"762 613 OFFCURVE",
"799 647 OFFCURVE",
"799 763 CURVE SMOOTH",
"799 776 LINE",
"647 776 LINE",
"647 758 LINE SMOOTH",
"647 707 OFFCURVE",
"640 688 OFFCURVE",
"577 688 CURVE SMOOTH",
"451 688 LINE",
"451 613 LINE"
);
}
);
width = 807;
},
{
anchors = (
{
name = _topright;
position = "{507, 688}";
},
{
name = bottom;
position = "{415, 0}";
},
{
name = top;
position = "{415, 688}";
},
{
name = topright;
position = "{507, 779}";
}
);
components = (
{
name = O;
}
);
layerId = "C6199351-AF36-494D-BF00-13EB6406F65F";
paths = (
{
closed = 1;
nodes = (
"637 641 LINE SMOOTH",
"753 641 OFFCURVE",
"773 668 OFFCURVE",
"773 766 CURVE SMOOTH",
"773 779 LINE",
"692 779 LINE",
"692 764 LINE SMOOTH",
"692 704 OFFCURVE",
"686 688 OFFCURVE",
"637 688 CURVE SMOOTH",
"507 688 LINE",
"507 641 LINE"
);
}
);
width = 830;
},
{
anchors = (
{
name = _topright;
position = "{588, 688}";
},
{
name = bottom;
position = "{423, 0}";
},
{
name = top;
position = "{423, 688}";
},
{
name = topright;
position = "{588, 786}";
}
);
components = (
{
name = O;
}
);
layerId = "E7639064-56EC-4BF1-BEDD-A20273C7A444";
paths = (
{
closed = 1;
nodes = (
"654 660 LINE SMOOTH",
"724 660 OFFCURVE",
"740 681 OFFCURVE",
"740 761 CURVE SMOOTH",
"740 786 LINE",
"707 786 LINE",
"707 754 LINE SMOOTH",
"707 701 OFFCURVE",
"700 688 OFFCURVE",
"654 688 CURVE SMOOTH",
"588 688 LINE",
"588 660 LINE"
);
}
);
width = 846;
}
);
leftKerningGroup = O;
rightKerningGroup = O;
unicode = 01A0;
},
{
color = 3;
glyphname = Oslash;
layers = (
{
anchors = (
{
name = bottom;
position = "{363, 0}";
},
{
name = top;
position = "{363, 688}";
}
);
components = (
{
name = O;
}
);
layerId = UUID0;
paths = (
{
closed = 1;
nodes = (
"127 -55 LINE",
"636 743 LINE",
"598 743 LINE",
"90 -55 LINE"
);
}
);
width = 726;
},
{
anchors = (
{
name = bottom;
position = "{348, 0}";
},
{
name = top;
position = "{348, 688}";
}
);
components = (
{
name = O;
}
);
layerId = "4F93A97B-747D-4721-B098-38A63C534D7A";
paths = (
{
closed = 1;
nodes = (
"215 -55 LINE",
"653 743 LINE",
"479 743 LINE",
"42 -55 LINE"
);
}
);
width = 695;
},
{
anchors = (
{
name = bottom;
position = "{263, 0}";
},
{
name = top;
position = "{263, 688}";
}
);
components = (
{
name = O;
}
);
layerId = "E6BBBBE7-ECAD-4929-840D-43673C7BDEAF";
paths = (
{
closed = 1;
nodes = (
"99 -55 LINE",
"463 743 LINE",
"427 743 LINE",
"63 -55 LINE"
);
}
);
width = 526;
},
{
anchors = (
{
name = bottom;
position = "{255, 0}";
},
{
name = top;
position = "{255, 688}";
}
);
components = (
{
name = O;
}
);
layerId = "7836D3B9-397C-42C1-8084-A98A44B9119A";
paths = (
{
closed = 1;
nodes = (
"173 -55 LINE",
"479 743 LINE",
"336 743 LINE",
"30 -55 LINE"
);
}
);
width = 509;
},
{
anchors = (
{
name = bottom;
position = "{257, 0}";
},
{
name = top;
position = "{257, 688}";
}
);
components = (
{
name = O;
}
);
layerId = "374FF654-0B40-45EE-AE97-0DEB7620D1EC";
paths = (
{
closed = 1;
nodes = (
"129 -55 LINE",
"465 743 LINE",
"385 743 LINE",
"49 -55 LINE"
);
}
);
width = 515;
},
{
anchors = (
{
name = bottom;
position = "{355, 0}";
},
{
name = top;
position = "{355, 688}";
}
);
components = (
{
name = O;
}
);
layerId = "E7A95A6A-7487-49EE-B62A-BA87B06E4B57";
paths = (
{
closed = 1;
nodes = (
"171 -55 LINE",
"644 743 LINE",
"537 743 LINE",
"65 -55 LINE"
);
}
);
width = 709;
},
{
anchors = (
{
name = bottom;
position = "{363, 0}";
},
{
name = top;
position = "{363, 688}";
}
);
associatedMasterId = UUID0;
background = {
anchors = (
{
name = bottom;
position = "{363, 0}";
},
{
name = top;
position = "{363, 688}";
}
);
paths = (
{
closed = 1;
nodes = (
"127 -55 LINE",
"636 743 LINE",
"598 743 LINE",
"90 -55 LINE"
);
},
{
closed = 1;
nodes = (
"620 -8 OFFCURVE",
"636 31 OFFCURVE",
"636 344 CURVE SMOOTH",
"636 657 OFFCURVE",
"620 696 OFFCURVE",
"363 696 CURVE SMOOTH",
"106 696 OFFCURVE",
"90 657 OFFCURVE",
"90 344 CURVE SMOOTH",
"90 31 OFFCURVE",
"106 -8 OFFCURVE",
"363 -8 CURVE SMOOTH"
);
},
{
closed = 1;
nodes = (
"146 26 OFFCURVE",
"126 32 OFFCURVE",
"126 344 CURVE SMOOTH",
"126 656 OFFCURVE",
"146 662 OFFCURVE",
"363 662 CURVE SMOOTH",
"580 662 OFFCURVE",
"600 656 OFFCURVE",
"600 344 CURVE SMOOTH",
"600 32 OFFCURVE",
"580 26 OFFCURVE",
"363 26 CURVE SMOOTH"
);
}
);
};
components = (
{
name = O;
}
);
layerId = "F252AAC5-571F-4C68-A538-CBB3134555B5";
name = "[86]";
paths = (
{
closed = 1;
nodes = (
"636 743 LINE",
"598 743 LINE",
"543 656 LINE",
"568 637 LINE"
);
},
{
closed = 1;
nodes = (
"127 -55 LINE",
"181 30 LINE",
"155 46 LINE",
"90 -55 LINE"
);
}
);
width = 726;
},
{
anchors = (
{
name = bottom;
position = "{358, 0}";
},
{
name = top;
position = "{358, 688}";
}
);
associatedMasterId = "E7A95A6A-7487-49EE-B62A-BA87B06E4B57";
components = (
{
alignment = -1;
name = O;
}
);
layerId = "983A0C49-7F3B-4795-A9BF-954360171FBE";
name = "[86]";
paths = (
{
closed = 1;
nodes = (
"546 581 LINE",
"643 743 LINE",
"550 743 LINE",
"480 627 LINE"
);
},
{
closed = 1;
nodes = (
"165 -55 LINE",
"240 71 LINE",
"162 94 LINE",
"73 -55 LINE"
);
}
);
width = 709;
},
{
anchors = (
{
name = bottom;
position = "{352, 0}";
},
{
name = top;
position = "{352, 688}";
}
);
associatedMasterId = "4F93A97B-747D-4721-B098-38A63C534D7A";
components = (
{
name = O;
}
);
layerId = "9FC3188A-CEA2-436B-BC69-6AE14685B844";
name = "[86]";
paths = (
{
closed = 1;
nodes = (
"500 472 LINE",
"675 743 LINE",
"482 743 LINE",
"384 592 LINE"
);
},
{
closed = 1;
nodes = (
"213 -55 LINE",
"297 74 LINE",
"146 137 LINE",
"22 -55 LINE"
);
}
);
width = 697;
},
{
anchors = (
{
name = bottom;
position = "{263, 0}";
},
{
name = top;
position = "{263, 688}";
}
);
associatedMasterId = "E6BBBBE7-ECAD-4929-840D-43673C7BDEAF";
background = {
anchors = (
{
name = bottom;
position = "{214, 0}";
},
{
name = top;
position = "{214, 688}";
}
);
};
components = (
{
name = O;
}
);
layerId = "86DA39BA-72D1-41EE-AA06-AEDD9DC3F055";
name = "[86]";
paths = (
{
closed = 1;
nodes = (
"414 635 LINE",
"463 743 LINE",
"427 743 LINE",
"387 656 LINE"
);
},
{
closed = 1;
nodes = (
"99 -55 LINE",
"140 35 LINE",
"115 59 LINE",
"63 -55 LINE"
);
}
);
width = 526;
},
{
anchors = (
{
name = bottom;
position = "{257, 0}";
},
{
name = top;
position = "{257, 688}";
}
);
associatedMasterId = "374FF654-0B40-45EE-AE97-0DEB7620D1EC";
components = (
{
name = O;
}
);
layerId = "E7323BDC-5D2A-4CC5-9F25-CE333B91E3AC";
name = "[86]";
paths = (
{
closed = 1;
nodes = (
"405 600 LINE",
"465 743 LINE",
"385 743 LINE",
"344 646 LINE"
);
},
{
closed = 1;
nodes = (
"129 -55 LINE",
"174 51 LINE",
"116 103 LINE",
"49 -55 LINE"
);
}
);
width = 515;
},
{
anchors = (
{
name = bottom;
position = "{255, 0}";
},
{
name = top;
position = "{255, 688}";
}
);
associatedMasterId = "7836D3B9-397C-42C1-8084-A98A44B9119A";
components = (
{
name = O;
}
);
layerId = "51E77474-5D64-4D46-91F3-301B8417FF19";
name = "[86]";
paths = (
{
closed = 1;
nodes = (
"398 532 LINE",
"479 743 LINE",
"336 743 LINE",
"288 617 LINE"
);
},
{
closed = 1;
nodes = (
"173 -55 LINE",
"220 67 LINE",
"97 119 LINE",
"30 -55 LINE"
);
}
);
width = 509;
},
{
anchors = (
{
name = bottom;
position = "{176, 0}";
},
{
name = top;
position = "{176, 688}";
}
);
components = (
{
name = O;
}
);
layerId = "487ADAF7-57C4-4091-879E-1D750F439591";
paths = (
{
closed = 1;
nodes = (
"115 -55 LINE",
"307 743 LINE",
"235 743 LINE",
"44 -55 LINE"
);
}
);
width = 351;
},
{
anchors = (
{
name = bottom;
position = "{171, 0}";
},
{
name = top;
position = "{171, 688}";
}
);
components = (
{
name = O;
}
);
layerId = "7674DAFD-136A-491A-A3F0-195DB056B53F";
paths = (
{
closed = 1;
nodes = (
"135 -55 LINE",
"322 743 LINE",
"206 743 LINE",
"19 -55 LINE"
);
}
);
width = 342;
},
{
anchors = (
{
name = bottom;
position = "{175, 0}";
},
{
name = top;
position = "{175, 688}";
}
);
components = (
{
name = O;
}
);
layerId = "B5B62657-8F5D-48EE-9125-14A639410D02";
paths = (
{
closed = 1;
nodes = (
"119 -55 LINE",
"263 743 LINE",
"231 743 LINE",
"87 -55 LINE"
);
}
);
width = 350;
},
{
anchors = (
{
name = bottom;
position = "{404, 0}";
},
{
name = top;
position = "{404, 688}";
}
);
components = (
{
name = O;
}
);
layerId = "8EBCA172-37CB-4E59-A5FF-33FE92477777";
paths = (
{
closed = 1;
nodes = (
"240 -55 LINE",
"757 743 LINE",
"564 743 LINE",
"49 -55 LINE"
);
}
);
width = 807;
},
{
anchors = (
{
name = bottom;
position = "{415, 0}";
},
{
name = top;
position = "{415, 688}";
}
);
components = (
{
name = O;
}
);
layerId = "C6199351-AF36-494D-BF00-13EB6406F65F";
paths = (
{
closed = 1;
nodes = (
"183 -55 LINE",
"749 743 LINE",
"644 743 LINE",
"80 -55 LINE"
);
}
);
width = 830;
},
{
anchors = (
{
name = bottom;
position = "{423, 0}";
},
{
name = top;
position = "{423, 688}";
}
);
components = (
{
name = O;
}
);
layerId = "E7639064-56EC-4BF1-BEDD-A20273C7A444";
paths = (
{
closed = 1;
nodes = (
"146 -55 LINE",
"739 743 LINE",
"697 743 LINE",
"106 -55 LINE"
);
}
);
width = 846;
},
{
anchors = (
{
name = bottom;
position = "{175, 0}";
},
{
name = top;
position = "{175, 688}";
}
);
associatedMasterId = "B5B62657-8F5D-48EE-9125-14A639410D02";
components = (
{
name = O;
}
);
layerId = "5153E588-DACE-47AF-BED2-7460F191AD02";
name = "[86]";
paths = (
{
closed = 1;
nodes = (
"249 663 LINE",
"263 743 LINE",
"231 743 LINE",
"219 676 LINE"
);
},
{
closed = 1;
nodes = (
"119 -55 LINE",
"132 15 LINE",
"102 30 LINE",
"87 -55 LINE"
);
}
);
width = 350;
},
{
anchors = (
{
name = bottom;
position = "{176, 0}";
},
{
name = top;
position = "{176, 688}";
}
);
associatedMasterId = "487ADAF7-57C4-4091-879E-1D750F439591";
components = (
{
name = O;
}
);
layerId = "B39C3823-8399-4122-B0F2-B655A1863810";
name = "[86]";
paths = (
{
closed = 1;
nodes = (
"273 603 LINE",
"307 743 LINE",
"235 743 LINE",
"212 649 LINE"
);
},
{
closed = 1;
nodes = (
"115 -55 LINE",
"135 29 LINE",
"74 72 LINE",
"44 -55 LINE"
);
}
);
width = 350;
},
{
anchors = (
{
name = bottom;
position = "{171, 0}";
},
{
name = top;
position = "{171, 688}";
}
);
associatedMasterId = "7674DAFD-136A-491A-A3F0-195DB056B53F";
components = (
{
alignment = -1;
name = O;
}
);
layerId = "2208204E-F2E5-46B4-8A03-93659FC96874";
name = "[86]";
paths = (
{
closed = 1;
nodes = (
"282 574 LINE",
"322 743 LINE",
"207 743 LINE",
"182 638 LINE"
);
},
{
closed = 1;
nodes = (
"135 -55 LINE",
"163 64 LINE",
"61 122 LINE",
"19 -55 LINE"
);
}
);
width = 342;
},
{
anchors = (
{
name = bottom;
position = "{425, 0}";
},
{
name = top;
position = "{425, 688}";
}
);
associatedMasterId = "E7639064-56EC-4BF1-BEDD-A20273C7A444";
components = (
{
alignment = -1;
name = O;
}
);
layerId = "76A04E60-48D8-4415-9C5C-C8E9D5B4B032";
name = "[86]";
paths = (
{
closed = 1;
nodes = (
"662 638 LINE",
"742 743 LINE",
"713 743 LINE",
"642 650 LINE"
);
},
{
closed = 1;
nodes = (
"134 -55 LINE",
"203 35 LINE",
"177 38 LINE",
"107 -55 LINE"
);
}
);
width = 848;
},
{
anchors = (
{
name = bottom;
position = "{415, 0}";
},
{
name = top;
position = "{415, 688}";
}
);
associatedMasterId = "C6199351-AF36-494D-BF00-13EB6406F65F";
components = (
{
name = O;
transform = "{1, 0, 0, 1, 1, 0}";
}
);
layerId = "374DB267-D65F-479B-B29F-3183BEE58473";
name = "[86]";
paths = (
{
closed = 1;
nodes = (
"702 594 LINE",
"798 743 LINE",
"605 743 LINE",
"543 646 LINE"
);
},
{
closed = 1;
nodes = (
"241 -55 LINE",
"309 50 LINE",
"160 115 LINE",
"50 -55 LINE"
);
}
);
width = 838;
},
{
anchors = (
{
name = bottom;
position = "{404, 0}";
},
{
name = top;
position = "{404, 688}";
}
);
associatedMasterId = "8EBCA172-37CB-4E59-A5FF-33FE92477777";
components = (
{
name = O;
}
);
layerId = "89ABA9B9-19D5-4370-B2D9-8B33377F322F";
name = "[86]";
paths = (
{
closed = 1;
nodes = (
"627 543 LINE",
"757 743 LINE",
"564 743 LINE",
"493 633 LINE"
);
},
{
closed = 1;
nodes = (
"240 -55 LINE",
"336 93 LINE",
"196 173 LINE",
"49 -55 LINE"
);
}
);
width = 807;
}
);
leftKerningGroup = O;
rightKerningGroup = O;
unicode = 00D8;
},
{
color = 3;
glyphname = Oslashacute;
layers = (
{
anchors = (
{
name = bottom;
position = "{363, 0}";
},
{
name = center;
position = "{363, 344}";
},
{
name = ogonek;
position = "{399, 0}";
},
{
name = top;
position = "{363, 688}";
},
{
name = topleft;
position = "{20, 688}";
},
{
name = topright;
position = "{497, 688}";
}
);
components = (
{
name = O;
},
{
name = acutecomb.case;
transform = "{1, 0, 0, 1, 328, 178}";
}
);
layerId = UUID0;
paths = (
{
closed = 1;
nodes = (
"127 -55 LINE",
"636 743 LINE",
"598 743 LINE",
"90 -55 LINE"
);
}
);
width = 726;
},
{
anchors = (
{
name = bottom;
position = "{355, 0}";
},
{
name = center;
position = "{355, 344}";
},
{
name = ogonek;
position = "{429, 0}";
},
{
name = top;
position = "{355, 688}";
},
{
name = topleft;
position = "{20, 688}";
},
{
name = topright;
position = "{458, 688}";
}
);
components = (
{
name = O;
},
{
name = acutecomb.case;
transform = "{1, 0, 0, 1, 287, 178}";
}
);
layerId = "E7A95A6A-7487-49EE-B62A-BA87B06E4B57";
paths = (
{
closed = 1;
nodes = (
"171 -55 LINE",
"644 743 LINE",
"537 743 LINE",
"65 -55 LINE"
);
}
);
width = 709;
},
{
anchors = (
{
name = bottom;
position = "{348, 0}";
},
{
name = center;
position = "{348, 344}";
},
{
name = ogonek;
position = "{440, 0}";
},
{
name = top;
position = "{348, 688}";
},
{
name = topleft;
position = "{20, 688}";
},
{
name = topright;
position = "{460, 688}";
}
);
components = (
{
name = O;
},
{
name = acutecomb.case;
transform = "{1, 0, 0, 1, 242, 178}";
}
);
layerId = "4F93A97B-747D-4721-B098-38A63C534D7A";
paths = (
{
closed = 1;
nodes = (
"215 -55 LINE",
"653 743 LINE",
"479 743 LINE",
"42 -55 LINE"
);
}
);
width = 695;
},
{
anchors = (
{
name = bottom;
position = "{263, 0}";
},
{
name = center;
position = "{263, 344}";
},
{
name = ogonek;
position = "{304, 0}";
},
{
name = top;
position = "{263, 688}";
},
{
name = topleft;
position = "{167, 688}";
},
{
name = topright;
position = "{359, 688}";
}
);
components = (
{
name = O;
},
{
name = acutecomb.case;
transform = "{1, 0, 0, 1, 239, 178}";
}
);
layerId = "E6BBBBE7-ECAD-4929-840D-43673C7BDEAF";
paths = (
{
closed = 1;
nodes = (
"99 -55 LINE",
"463 743 LINE",
"427 743 LINE",
"63 -55 LINE"
);
}
);
width = 526;
},
{
anchors = (
{
name = bottom;
position = "{257, 0}";
},
{
name = center;
position = "{258, 344}";
},
{
name = ogonek;
position = "{324, 0}";
},
{
name = top;
position = "{257, 688}";
},
{
name = topleft;
position = "{190, 688}";
},
{
name = topright;
position = "{326, 688}";
}
);
components = (
{
name = O;
},
{
name = acutecomb.case;
transform = "{1, 0, 0, 1, 210, 178}";
}
);
layerId = "374FF654-0B40-45EE-AE97-0DEB7620D1EC";
paths = (
{
closed = 1;
nodes = (
"129 -55 LINE",
"465 743 LINE",
"385 743 LINE",
"49 -55 LINE"
);
}
);
width = 515;
},
{
anchors = (
{
name = bottom;
position = "{255, 0}";
},
{
name = center;
position = "{255, 344}";
},
{
name = ogonek;
position = "{331, 0}";
},
{
name = top;
position = "{255, 688}";
},
{
name = topleft;
position = "{176, 688}";
},
{
name = topright;
position = "{334, 688}";
}
);
components = (
{
name = O;
},
{
name = acutecomb.case;
transform = "{1, 0, 0, 1, 184, 178}";
}
);
layerId = "7836D3B9-397C-42C1-8084-A98A44B9119A";
paths = (
{
closed = 1;
nodes = (
"173 -55 LINE",
"479 743 LINE",
"336 743 LINE",
"30 -55 LINE"
);
}
);
width = 509;
},
{
anchors = (
{
name = bottom;
position = "{175, 0}";
},
{
name = center;
position = "{175, 344}";
},
{
name = ogonek;
position = "{213, 0}";
},
{
name = top;
position = "{175, 688}";
},
{
name = topleft;
position = "{20, 688}";
},
{
name = topright;
position = "{212, 688}";
}
);
components = (
{
name = O;
},
{
name = acutecomb.case;
transform = "{1, 0, 0, 1, 159, 178}";
}
);
layerId = "B5B62657-8F5D-48EE-9125-14A639410D02";
paths = (
{
closed = 1;
nodes = (
"119 -55 LINE",
"263 743 LINE",
"231 743 LINE",
"87 -55 LINE"
);
}
);
width = 350;
},
{
anchors = (
{
name = bottom;
position = "{176, 0}";
},
{
name = center;
position = "{176, 344}";
},
{
name = ogonek;
position = "{215, 0}";
},
{
name = top;
position = "{176, 688}";
},
{
name = topleft;
position = "{20, 688}";
},
{
name = topright;
position = "{205, 688}";
}
);
components = (
{
name = O;
},
{
name = acutecomb.case;
transform = "{1, 0, 0, 1, 142, 178}";
}
);
layerId = "487ADAF7-57C4-4091-879E-1D750F439591";
paths = (
{
closed = 1;
nodes = (
"115 -55 LINE",
"307 743 LINE",
"235 743 LINE",
"44 -55 LINE"
);
}
);
width = 351;
},
{
anchors = (
{
name = bottom;
position = "{171, 0}";
},
{
name = center;
position = "{171, 344}";
},
{
name = ogonek;
position = "{218, 0}";
},
{
name = top;
position = "{171, 688}";
},
{
name = topleft;
position = "{20, 688}";
},
{
name = topright;
position = "{169, 688}";
}
);
components = (
{
name = O;
},
{
name = acutecomb.case;
transform = "{1, 0, 0, 1, 113, 178}";
}
);
layerId = "7674DAFD-136A-491A-A3F0-195DB056B53F";
paths = (
{
closed = 1;
nodes = (
"135 -55 LINE",
"322 743 LINE",
"206 743 LINE",
"19 -55 LINE"
);
}
);
width = 342;
},
{
anchors = (
{
name = bottom;
position = "{423, 0}";
},
{
name = center;
position = "{423, 344}";
},
{
name = ogonek;
position = "{453, 0}";
},
{
name = top;
position = "{423, 688}";
},
{
name = topleft;
position = "{20, 688}";
},
{
name = topright;
position = "{588, 688}";
}
);
components = (
{
name = O;
},
{
name = acutecomb.case;
transform = "{1, 0, 0, 1, 347, 178}";
}
);
layerId = "E7639064-56EC-4BF1-BEDD-A20273C7A444";
paths = (
{
closed = 1;
nodes = (
"146 -55 LINE",
"739 743 LINE",
"697 743 LINE",
"106 -55 LINE"
);
}
);
width = 846;
},
{
anchors = (
{
name = bottom;
position = "{415, 0}";
},
{
name = center;
position = "{415, 344}";
},
{
name = ogonek;
position = "{467, 0}";
},
{
name = top;
position = "{415, 688}";
},
{
name = topleft;
position = "{20, 688}";
},
{
name = topright;
position = "{507, 688}";
}
);
components = (
{
name = O;
},
{
name = acutecomb.case;
transform = "{1, 0, 0, 1, 317, 178}";
}
);
layerId = "C6199351-AF36-494D-BF00-13EB6406F65F";
paths = (
{
closed = 1;
nodes = (
"183 -55 LINE",
"749 743 LINE",
"644 743 LINE",
"80 -55 LINE"
);
}
);
width = 830;
},
{
anchors = (
{
name = bottom;
position = "{404, 0}";
},
{
name = center;
position = "{404, 344}";
},
{
name = ogonek;
position = "{526, 0}";
},
{
name = top;
position = "{404, 688}";
},
{
name = topleft;
position = "{20, 688}";
},
{
name = topright;
position = "{451, 688}";
}
);
components = (
{
name = O;
},
{
name = acutecomb.case;
transform = "{1, 0, 0, 1, 275, 178}";
}
);
layerId = "8EBCA172-37CB-4E59-A5FF-33FE92477777";
paths = (
{
closed = 1;
nodes = (
"240 -55 LINE",
"757 743 LINE",
"564 743 LINE",
"49 -55 LINE"
);
}
);
width = 807;
},
{
anchors = (
{
name = bottom;
position = "{363, 0}";
},
{
name = center;
position = "{363, 344}";
},
{
name = ogonek;
position = "{399, 0}";
},
{
name = top;
position = "{363, 688}";
},
{
name = topleft;
position = "{20, 688}";
},
{
name = topright;
position = "{497, 688}";
}
);
associatedMasterId = UUID0;
components = (
{
name = O;
},
{
name = acutecomb.case;
transform = "{1, 0, 0, 1, 328, 178}";
}
);
layerId = "6A720096-F797-494A-A294-4CABAC2E19A6";
name = "[86]";
paths = (
{
closed = 1;
nodes = (
"636 743 LINE",
"598 743 LINE",
"543 656 LINE",
"568 637 LINE"
);
},
{
closed = 1;
nodes = (
"127 -55 LINE",
"181 30 LINE",
"155 46 LINE",
"90 -55 LINE"
);
}
);
width = 726;
},
{
anchors = (
{
name = bottom;
position = "{358, 0}";
},
{
name = center;
position = "{355, 344}";
},
{
name = ogonek;
position = "{429, 0}";
},
{
name = top;
position = "{358, 688}";
},
{
name = topleft;
position = "{20, 688}";
},
{
name = topright;
position = "{458, 688}";
}
);
associatedMasterId = "E7A95A6A-7487-49EE-B62A-BA87B06E4B57";
components = (
{
name = O;
},
{
name = acutecomb.case;
transform = "{1, 0, 0, 1, 290, 178}";
}
);
layerId = "5BF50523-25F7-4FE0-B141-DCD8C2E38643";
name = "[86]";
paths = (
{
closed = 1;
nodes = (
"546 581 LINE",
"643 743 LINE",
"550 743 LINE",
"480 627 LINE"
);
},
{
closed = 1;
nodes = (
"165 -55 LINE",
"240 71 LINE",
"162 94 LINE",
"73 -55 LINE"
);
}
);
width = 709;
},
{
anchors = (
{
name = bottom;
position = "{352, 0}";
},
{
name = center;
position = "{348, 344}";
},
{
name = ogonek;
position = "{440, 0}";
},
{
name = top;
position = "{352, 688}";
},
{
name = topleft;
position = "{20, 688}";
},
{
name = topright;
position = "{460, 688}";
}
);
associatedMasterId = "4F93A97B-747D-4721-B098-38A63C534D7A";
components = (
{
name = O;
},
{
name = acutecomb.case;
transform = "{1, 0, 0, 1, 246, 178}";
}
);
layerId = "64E1A5F8-8FC0-4402-8CF0-B381763C11C1";
name = "[86]";
paths = (
{
closed = 1;
nodes = (
"500 472 LINE",
"675 743 LINE",
"482 743 LINE",
"384 592 LINE"
);
},
{
closed = 1;
nodes = (
"213 -55 LINE",
"297 74 LINE",
"146 137 LINE",
"22 -55 LINE"
);
}
);
width = 697;
},
{
anchors = (
{
name = bottom;
position = "{263, 0}";
},
{
name = center;
position = "{263, 344}";
},
{
name = ogonek;
position = "{304, 0}";
},
{
name = top;
position = "{263, 688}";
},
{
name = topleft;
position = "{167, 688}";
},
{
name = topright;
position = "{359, 688}";
}
);
associatedMasterId = "E6BBBBE7-ECAD-4929-840D-43673C7BDEAF";
components = (
{
name = O;
},
{
name = acutecomb.case;
transform = "{1, 0, 0, 1, 239, 178}";
}
);
layerId = "44D8DBBE-007A-441E-AEE1-93220C5F21D0";
name = "[86]";
paths = (
{
closed = 1;
nodes = (
"414 635 LINE",
"463 743 LINE",
"427 743 LINE",
"387 656 LINE"
);
},
{
closed = 1;
nodes = (
"99 -55 LINE",
"140 35 LINE",
"115 59 LINE",
"63 -55 LINE"
);
}
);
width = 526;
},
{
anchors = (
{
name = bottom;
position = "{257, 0}";
},
{
name = center;
position = "{258, 344}";
},
{
name = ogonek;
position = "{324, 0}";
},
{
name = top;
position = "{257, 688}";
},
{
name = topleft;
position = "{190, 688}";
},
{
name = topright;
position = "{326, 688}";
}
);
associatedMasterId = "374FF654-0B40-45EE-AE97-0DEB7620D1EC";
components = (
{
name = O;
},
{
name = acutecomb.case;
transform = "{1, 0, 0, 1, 211, 178}";
}
);
layerId = "8F8FA18A-0BF2-4C42-AAC3-DE52D4712EF3";
name = "[86]";
paths = (
{
closed = 1;
nodes = (
"405 600 LINE",
"465 743 LINE",
"385 743 LINE",
"344 646 LINE"
);
},
{
closed = 1;
nodes = (
"129 -55 LINE",
"174 51 LINE",
"116 103 LINE",
"49 -55 LINE"
);
}
);
width = 515;
},
{
anchors = (
{
name = bottom;
position = "{255, 0}";
},
{
name = center;
position = "{255, 344}";
},
{
name = ogonek;
position = "{331, 0}";
},
{
name = top;
position = "{255, 688}";
},
{
name = topleft;
position = "{176, 688}";
},
{
name = topright;
position = "{334, 688}";
}
);
associatedMasterId = "7836D3B9-397C-42C1-8084-A98A44B9119A";
components = (
{
name = O;
},
{
name = acutecomb.case;
transform = "{1, 0, 0, 1, 184, 178}";
}
);
layerId = "7F28C9E5-5F35-45DF-AF0D-7E07D87902C0";
name = "[86]";
paths = (
{
closed = 1;
nodes = (
"398 532 LINE",
"479 743 LINE",
"336 743 LINE",
"288 617 LINE"
);
},
{
closed = 1;
nodes = (
"173 -55 LINE",
"220 67 LINE",
"97 119 LINE",
"30 -55 LINE"
);
}
);
width = 509;
},
{
anchors = (
{
name = bottom;
position = "{175, 0}";
},
{
name = center;
position = "{175, 344}";
},
{
name = ogonek;
position = "{213, 0}";
},
{
name = top;
position = "{175, 688}";
},
{
name = topleft;
position = "{20, 688}";
},
{
name = topright;
position = "{212, 688}";
}
);
associatedMasterId = "B5B62657-8F5D-48EE-9125-14A639410D02";
components = (
{
name = O;
},
{
name = acutecomb.case;
transform = "{1, 0, 0, 1, 159, 178}";
}
);
layerId = "84E970F6-1AD7-48D5-B4C2-A6B8DE7F7811";
name = "[86]";
paths = (
{
closed = 1;
nodes = (
"249 663 LINE",
"263 743 LINE",
"231 743 LINE",
"219 676 LINE"
);
},
{
closed = 1;
nodes = (
"119 -55 LINE",
"132 15 LINE",
"102 30 LINE",
"87 -55 LINE"
);
}
);
width = 350;
},
{
anchors = (
{
name = bottom;
position = "{176, 0}";
},
{
name = center;
position = "{176, 344}";
},
{
name = ogonek;
position = "{215, 0}";
},
{
name = top;
position = "{176, 688}";
},
{
name = topleft;
position = "{20, 688}";
},
{
name = topright;
position = "{205, 688}";
}
);
associatedMasterId = "487ADAF7-57C4-4091-879E-1D750F439591";
components = (
{
name = O;
},
{
name = acutecomb.case;
transform = "{1, 0, 0, 1, 142, 178}";
}
);
layerId = "5524237A-E927-4582-980A-F7DB79C8CC4D";
name = "[86]";
paths = (
{
closed = 1;
nodes = (
"273 603 LINE",
"307 743 LINE",
"235 743 LINE",
"212 649 LINE"
);
},
{
closed = 1;
nodes = (
"115 -55 LINE",
"135 29 LINE",
"74 72 LINE",
"44 -55 LINE"
);
}
);
width = 350;
},
{
anchors = (
{
name = bottom;
position = "{171, 0}";
},
{
name = center;
position = "{171, 344}";
},
{
name = ogonek;
position = "{218, 0}";
},
{
name = top;
position = "{171, 688}";
},
{
name = topleft;
position = "{20, 688}";
},
{
name = topright;
position = "{169, 688}";
}
);
associatedMasterId = "7674DAFD-136A-491A-A3F0-195DB056B53F";
components = (
{
name = O;
},
{
alignment = -1;
name = acutecomb.case;
transform = "{1, 0, 0, 1, 93, 178}";
}
);
layerId = "1992F0A9-2812-41BC-87D1-9667C56B85CE";
name = "[86]";
paths = (
{
closed = 1;
nodes = (
"302 574 LINE",
"342 743 LINE",
"227 743 LINE",
"202 638 LINE"
);
},
{
closed = 1;
nodes = (
"135 -55 LINE",
"163 64 LINE",
"61 122 LINE",
"19 -55 LINE"
);
}
);
width = 342;
},
{
anchors = (
{
name = bottom;
position = "{425, 0}";
},
{
name = center;
position = "{423, 344}";
},
{
name = ogonek;
position = "{453, 0}";
},
{
name = top;
position = "{425, 688}";
},
{
name = topleft;
position = "{20, 688}";
},
{
name = topright;
position = "{588, 688}";
}
);
associatedMasterId = "E7639064-56EC-4BF1-BEDD-A20273C7A444";
components = (
{
name = O;
},
{
alignment = -1;
name = acutecomb.case;
transform = "{1, 0, 0, 1, 357, 178}";
}
);
layerId = "6C6D618D-88DC-48C0-99B5-2874B3910D68";
name = "[86]";
paths = (
{
closed = 1;
nodes = (
"662 638 LINE",
"742 743 LINE",
"713 743 LINE",
"642 650 LINE"
);
},
{
closed = 1;
nodes = (
"134 -55 LINE",
"203 35 LINE",
"177 38 LINE",
"107 -55 LINE"
);
}
);
width = 848;
},
{
anchors = (
{
name = bottom;
position = "{415, 0}";
},
{
name = center;
position = "{416, 344}";
},
{
name = ogonek;
position = "{468, 0}";
},
{
name = top;
position = "{415, 688}";
},
{
name = topleft;
position = "{21, 688}";
},
{
name = topright;
position = "{508, 688}";
}
);
associatedMasterId = "C6199351-AF36-494D-BF00-13EB6406F65F";
components = (
{
name = O;
transform = "{1, 0, 0, 1, 1, 0}";
},
{
name = acutecomb.case;
transform = "{1, 0, 0, 1, 317, 178}";
}
);
layerId = "B4CDA43E-E962-40C5-AA59-32C2E25C85FF";
name = "[86]";
paths = (
{
closed = 1;
nodes = (
"702 594 LINE",
"798 743 LINE",
"605 743 LINE",
"543 646 LINE"
);
},
{
closed = 1;
nodes = (
"241 -55 LINE",
"309 50 LINE",
"160 115 LINE",
"50 -55 LINE"
);
}
);
width = 838;
},
{
anchors = (
{
name = bottom;
position = "{404, 0}";
},
{
name = center;
position = "{404, 344}";
},
{
name = ogonek;
position = "{526, 0}";
},
{
name = top;
position = "{404, 688}";
},
{
name = topleft;
position = "{20, 688}";
},
{
name = topright;
position = "{451, 688}";
}
);
associatedMasterId = "8EBCA172-37CB-4E59-A5FF-33FE92477777";
components = (
{
name = O;
},
{
name = acutecomb.case;
transform = "{1, 0, 0, 1, 275, 178}";
}
);
layerId = "2EFA5F2F-53A8-4E4B-8DDE-2B5BB0CCF45F";
name = "[86]";
paths = (
{
closed = 1;
nodes = (
"627 543 LINE",
"757 743 LINE",
"564 743 LINE",
"493 633 LINE"
);
},
{
closed = 1;
nodes = (
"240 -55 LINE",
"336 93 LINE",
"196 173 LINE",
"49 -55 LINE"
);
}
);
width = 807;
}
);
leftKerningGroup = O;
rightKerningGroup = O;
unicode = 01FE;
},
{
color = 6;
glyphname = OE;
layers = (
{
anchors = (
{
name = bottom;
position = "{537, 0}";
},
{
name = top;
position = "{537, 688}";
}
);
layerId = UUID0;
paths = (
{
closed = 1;
nodes = (
"1016 0 LINE",
"1016 34 LINE",
"636 34 LINE SMOOTH",
"605 34 OFFCURVE",
"576 32 OFFCURVE",
"563 30 CURVE",
"628 70 OFFCURVE",
"635 156 OFFCURVE",
"636 331 CURVE",
"969 331 LINE",
"969 365 LINE",
"636 365 LINE",
"635 534 OFFCURVE",
"627 618 OFFCURVE",
"563 658 CURVE",
"576 656 OFFCURVE",
"605 654 OFFCURVE",
"636 654 CURVE SMOOTH",
"1016 654 LINE",
"1016 688 LINE",
"363 688 LINE SMOOTH",
"106 688 OFFCURVE",
"90 650 OFFCURVE",
"90 344 CURVE SMOOTH",
"90 38 OFFCURVE",
"106 0 OFFCURVE",
"363 0 CURVE SMOOTH"
);
},
{
closed = 1;
nodes = (
"146 34 OFFCURVE",
"126 40 OFFCURVE",
"126 344 CURVE SMOOTH",
"126 648 OFFCURVE",
"146 654 OFFCURVE",
"363 654 CURVE SMOOTH",
"580 654 OFFCURVE",
"600 648 OFFCURVE",
"600 344 CURVE SMOOTH",
"600 40 OFFCURVE",
"580 34 OFFCURVE",
"363 34 CURVE SMOOTH"
);
}
);
width = 1073;
},
{
anchors = (
{
name = bottom;
position = "{487, 0}";
},
{
name = top;
position = "{487, 688}";
}
);
layerId = "4F93A97B-747D-4721-B098-38A63C534D7A";
paths = (
{
closed = 1;
nodes = (
"926 0 LINE",
"926 167 LINE",
"707 167 LINE SMOOTH",
"669 167 OFFCURVE",
"644 162 OFFCURVE",
"636 159 CURVE",
"647 189 OFFCURVE",
"652 225 OFFCURVE",
"652 266 CURVE",
"879 266 LINE",
"879 429 LINE",
"652 429 LINE",
"649 467 OFFCURVE",
"644 500 OFFCURVE",
"636 529 CURVE",
"648 524 OFFCURVE",
"679 521 OFFCURVE",
"707 521 CURVE SMOOTH",
"926 521 LINE",
"926 688 LINE",
"347 688 LINE SMOOTH",
"45 688 OFFCURVE",
"42 609 OFFCURVE",
"42 344 CURVE SMOOTH",
"42 79 OFFCURVE",
"45 0 OFFCURVE",
"347 0 CURVE SMOOTH"
);
},
{
closed = 1;
nodes = (
"277 167 OFFCURVE",
"277 171 OFFCURVE",
"277 344 CURVE SMOOTH",
"277 517 OFFCURVE",
"277 521 OFFCURVE",
"347 521 CURVE SMOOTH",
"417 521 OFFCURVE",
"418 517 OFFCURVE",
"418 344 CURVE SMOOTH",
"418 171 OFFCURVE",
"417 167 OFFCURVE",
"347 167 CURVE SMOOTH"
);
}
);
width = 974;
},
{
anchors = (
{
name = bottom;
position = "{380, 0}";
},
{
name = top;
position = "{380, 688}";
}
);
layerId = "E6BBBBE7-ECAD-4929-840D-43673C7BDEAF";
paths = (
{
closed = 1;
nodes = (
"722 0 LINE",
"722 34 LINE",
"463 34 LINE SMOOTH",
"439 34 OFFCURVE",
"419 33 OFFCURVE",
"403 30 CURVE",
"453 65 OFFCURVE",
"463 162 OFFCURVE",
"463 331 CURVE",
"688 331 LINE",
"688 365 LINE",
"463 365 LINE",
"463 532 OFFCURVE",
"452 622 OFFCURVE",
"403 658 CURVE",
"420 655 OFFCURVE",
"440 654 OFFCURVE",
"463 654 CURVE SMOOTH",
"722 654 LINE",
"722 688 LINE",
"263 688 LINE SMOOTH",
"85 688 OFFCURVE",
"63 654 OFFCURVE",
"63 344 CURVE SMOOTH",
"63 37 OFFCURVE",
"85 0 OFFCURVE",
"263 0 CURVE SMOOTH"
);
},
{
closed = 1;
nodes = (
"123 34 OFFCURVE",
"99 39 OFFCURVE",
"99 344 CURVE SMOOTH",
"99 652 OFFCURVE",
"123 654 OFFCURVE",
"263 654 CURVE SMOOTH",
"403 654 OFFCURVE",
"427 649 OFFCURVE",
"427 344 CURVE SMOOTH",
"427 39 OFFCURVE",
"403 34 OFFCURVE",
"263 34 CURVE SMOOTH"
);
}
);
width = 761;
},
{
anchors = (
{
name = bottom;
position = "{356, 0}";
},
{
name = top;
position = "{356, 688}";
}
);
layerId = "7836D3B9-397C-42C1-8084-A98A44B9119A";
paths = (
{
closed = 1;
nodes = (
"678 0 LINE",
"678 148 LINE",
"521 148 LINE SMOOTH",
"500 148 OFFCURVE",
"481 146 OFFCURVE",
"464 143 CURVE",
"473 176 OFFCURVE",
"478 219 OFFCURVE",
"478 274 CURVE",
"653 274 LINE",
"653 421 LINE",
"478 421 LINE",
"475 479 OFFCURVE",
"470 520 OFFCURVE",
"464 545 CURVE",
"477 542 OFFCURVE",
"496 540 OFFCURVE",
"521 540 CURVE SMOOTH",
"678 540 LINE",
"678 688 LINE",
"254 688 LINE SMOOTH",
"30 688 OFFCURVE",
"30 605 OFFCURVE",
"30 344 CURVE SMOOTH",
"30 84 OFFCURVE",
"30 0 OFFCURVE",
"254 0 CURVE SMOOTH"
);
},
{
closed = 1;
nodes = (
"211 148 OFFCURVE",
"211 154 OFFCURVE",
"211 344 CURVE SMOOTH",
"211 532 OFFCURVE",
"211 540 OFFCURVE",
"254 540 CURVE SMOOTH",
"298 540 OFFCURVE",
"298 532 OFFCURVE",
"298 344 CURVE SMOOTH",
"298 154 OFFCURVE",
"298 148 OFFCURVE",
"254 148 CURVE SMOOTH"
);
}
);
width = 711;
},
{
anchors = (
{
name = bottom;
position = "{366, 0}";
},
{
name = top;
position = "{366, 688}";
}
);
layerId = "374FF654-0B40-45EE-AE97-0DEB7620D1EC";
paths = (
{
closed = 1;
nodes = (
"693 0 LINE",
"693 82 LINE",
"487 82 LINE SMOOTH",
"467 82 OFFCURVE",
"448 80 OFFCURVE",
"429 76 CURVE",
"456 115 OFFCURVE",
"465 187 OFFCURVE",
"465 306 CURVE",
"661 306 LINE",
"661 388 LINE",
"465 388 LINE",
"465 509 OFFCURVE",
"456 574 OFFCURVE",
"429 611 CURVE",
"444 608 OFFCURVE",
"464 606 OFFCURVE",
"487 606 CURVE SMOOTH",
"693 606 LINE",
"693 688 LINE",
"257 688 LINE SMOOTH",
"58 688 OFFCURVE",
"49 622 OFFCURVE",
"49 344 CURVE SMOOTH",
"49 60 OFFCURVE",
"61 0 OFFCURVE",
"257 0 CURVE SMOOTH"
);
},
{
closed = 1;
nodes = (
"151 82 OFFCURVE",
"144 93 OFFCURVE",
"144 344 CURVE SMOOTH",
"144 595 OFFCURVE",
"151 606 OFFCURVE",
"257 606 CURVE SMOOTH",
"363 606 OFFCURVE",
"370 595 OFFCURVE",
"370 344 CURVE SMOOTH",
"370 93 OFFCURVE",
"363 82 OFFCURVE",
"257 82 CURVE SMOOTH"
);
}
);
width = 731;
},
{
anchors = (
{
name = bottom;
position = "{511, 0}";
},
{
name = top;
position = "{511, 688}";
}
);
layerId = "E7A95A6A-7487-49EE-B62A-BA87B06E4B57";
paths = (
{
closed = 1;
nodes = (
"965 0 LINE",
"965 108 LINE",
"685 108 LINE SMOOTH",
"665 108 OFFCURVE",
"638 105 OFFCURVE",
"613 100 CURVE",
"637 146 OFFCURVE",
"643 208 OFFCURVE",
"644 293 CURVE",
"918 293 LINE",
"918 401 LINE",
"644 401 LINE",
"643 481 OFFCURVE",
"635 543 OFFCURVE",
"613 588 CURVE",
"638 583 OFFCURVE",
"665 580 OFFCURVE",
"685 580 CURVE SMOOTH",
"965 580 LINE",
"965 688 LINE",
"354 688 LINE SMOOTH",
"77 688 OFFCURVE",
"65 618 OFFCURVE",
"65 344 CURVE SMOOTH",
"65 70 OFFCURVE",
"77 0 OFFCURVE",
"354 0 CURVE SMOOTH"
);
},
{
closed = 1;
nodes = (
"199 108 OFFCURVE",
"193 113 OFFCURVE",
"193 344 CURVE SMOOTH",
"193 575 OFFCURVE",
"199 580 OFFCURVE",
"354 580 CURVE SMOOTH",
"509 580 OFFCURVE",
"516 575 OFFCURVE",
"516 344 CURVE SMOOTH",
"516 113 OFFCURVE",
"509 108 OFFCURVE",
"354 108 CURVE SMOOTH"
);
}
);
width = 1021;
},
{
anchors = (
{
name = bottom;
position = "{245, 0}";
},
{
name = top;
position = "{245, 688}";
}
);
layerId = "487ADAF7-57C4-4091-879E-1D750F439591";
paths = (
{
closed = 1;
nodes = (
"469 0 LINE",
"469 71 LINE",
"339 71 LINE SMOOTH",
"322 71 OFFCURVE",
"306 70 OFFCURVE",
"295 70 CURVE",
"315 117 OFFCURVE",
"319 193 OFFCURVE",
"320 312 CURVE",
"452 312 LINE",
"452 384 LINE",
"320 384 LINE",
"319 498 OFFCURVE",
"314 573 OFFCURVE",
"295 619 CURVE",
"308 618 OFFCURVE",
"327 617 OFFCURVE",
"339 617 CURVE SMOOTH",
"469 617 LINE",
"469 688 LINE",
"175 688 LINE SMOOTH",
"40 688 OFFCURVE",
"30 625 OFFCURVE",
"30 344 CURVE SMOOTH",
"30 63 OFFCURVE",
"40 0 OFFCURVE",
"175 0 CURVE SMOOTH"
);
},
{
closed = 1;
nodes = (
"121 71 OFFCURVE",
"108 82 OFFCURVE",
"108 344 CURVE SMOOTH",
"108 606 OFFCURVE",
"121 617 OFFCURVE",
"175 617 CURVE SMOOTH",
"229 617 OFFCURVE",
"242 606 OFFCURVE",
"242 344 CURVE SMOOTH",
"242 82 OFFCURVE",
"229 71 OFFCURVE",
"175 71 CURVE SMOOTH"
);
}
);
width = 489;
},
{
anchors = (
{
name = bottom;
position = "{215, 0}";
},
{
name = top;
position = "{215, 688}";
}
);
layerId = "7674DAFD-136A-491A-A3F0-195DB056B53F";
paths = (
{
closed = 1;
nodes = (
"408 0 LINE",
"408 126 LINE",
"347 126 LINE SMOOTH",
"336 126 OFFCURVE",
"319 124 OFFCURVE",
"310 122 CURVE",
"320 164 OFFCURVE",
"321 217 OFFCURVE",
"323 284 CURVE",
"402 284 LINE",
"402 411 LINE",
"323 411 LINE",
"321 474 OFFCURVE",
"320 525 OFFCURVE",
"310 566 CURVE",
"317 564 OFFCURVE",
"332 562 OFFCURVE",
"347 562 CURVE SMOOTH",
"408 562 LINE",
"408 688 LINE",
"171 688 LINE SMOOTH",
"20 688 OFFCURVE",
"19 597 OFFCURVE",
"19 344 CURVE SMOOTH",
"19 91 OFFCURVE",
"20 0 OFFCURVE",
"171 0 CURVE"
);
},
{
closed = 1;
nodes = (
"152 126 OFFCURVE",
"152 127 OFFCURVE",
"152 344 CURVE SMOOTH",
"152 561 OFFCURVE",
"152 562 OFFCURVE",
"171 562 CURVE SMOOTH",
"190 562 OFFCURVE",
"190 561 OFFCURVE",
"190 344 CURVE SMOOTH",
"190 127 OFFCURVE",
"190 126 OFFCURVE",
"171 126 CURVE SMOOTH"
);
}
);
width = 429;
},
{
anchors = (
{
name = bottom;
position = "{243, 0}";
},
{
name = top;
position = "{243, 688}";
}
);
layerId = "B5B62657-8F5D-48EE-9125-14A639410D02";
paths = (
{
closed = 1;
nodes = (
"463 0 LINE",
"463 34 LINE",
"310 34 LINE SMOOTH",
"298 34 OFFCURVE",
"281 32 OFFCURVE",
"269 31 CURVE",
"302 70 OFFCURVE",
"309 155 OFFCURVE",
"310 331 CURVE",
"440 331 LINE",
"440 365 LINE",
"310 365 LINE",
"309 535 OFFCURVE",
"301 618 OFFCURVE",
"269 657 CURVE",
"282 655 OFFCURVE",
"299 654 OFFCURVE",
"310 654 CURVE SMOOTH",
"463 654 LINE",
"463 688 LINE",
"175 688 LINE SMOOTH",
"58 688 OFFCURVE",
"40 639 OFFCURVE",
"40 344 CURVE SMOOTH",
"40 49 OFFCURVE",
"58 0 OFFCURVE",
"175 0 CURVE SMOOTH"
);
},
{
closed = 1;
nodes = (
"95 34 OFFCURVE",
"76 51 OFFCURVE",
"76 344 CURVE SMOOTH",
"76 637 OFFCURVE",
"95 654 OFFCURVE",
"175 654 CURVE SMOOTH",
"256 654 OFFCURVE",
"274 637 OFFCURVE",
"274 344 CURVE SMOOTH",
"274 51 OFFCURVE",
"256 34 OFFCURVE",
"175 34 CURVE SMOOTH"
);
}
);
width = 486;
},
{
anchors = (
{
name = bottom;
position = "{566, 0}";
},
{
name = top;
position = "{566, 688}";
}
);
layerId = "8EBCA172-37CB-4E59-A5FF-33FE92477777";
paths = (
{
closed = 1;
nodes = (
"1077 0 LINE",
"1077 178 LINE",
"845 178 LINE SMOOTH",
"794 178 OFFCURVE",
"758 169 OFFCURVE",
"749 167 CURVE",
"753 194 OFFCURVE",
"755 225 OFFCURVE",
"756 261 CURVE",
"1018 261 LINE",
"1018 434 LINE",
"756 434 LINE",
"755 467 OFFCURVE",
"753 495 OFFCURVE",
"749 521 CURVE",
"758 518 OFFCURVE",
"795 510 OFFCURVE",
"845 510 CURVE SMOOTH",
"1077 510 LINE",
"1077 688 LINE",
"403 688 LINE SMOOTH",
"54 688 OFFCURVE",
"49 611 OFFCURVE",
"49 343 CURVE SMOOTH",
"49 75 OFFCURVE",
"54 0 OFFCURVE",
"403 0 CURVE"
);
},
{
closed = 1;
nodes = (
"318 178 OFFCURVE",
"316 182 OFFCURVE",
"316 343 CURVE SMOOTH",
"316 504 OFFCURVE",
"318 510 OFFCURVE",
"403 510 CURVE SMOOTH",
"488 510 OFFCURVE",
"490 504 OFFCURVE",
"490 343 CURVE SMOOTH",
"490 182 OFFCURVE",
"488 178 OFFCURVE",
"403 178 CURVE SMOOTH"
);
}
);
width = 1134;
},
{
anchors = (
{
name = bottom;
position = "{605, 0}";
},
{
name = top;
position = "{605, 688}";
}
);
layerId = "C6199351-AF36-494D-BF00-13EB6406F65F";
paths = (
{
closed = 1;
nodes = (
"1141 0 LINE",
"1141 103 LINE",
"790 103 LINE SMOOTH",
"766 103 OFFCURVE",
"737 100 OFFCURVE",
"710 94 CURVE",
"743 140 OFFCURVE",
"749 203 OFFCURVE",
"750 295 CURVE",
"1084 295 LINE",
"1084 399 LINE",
"750 399 LINE",
"749 486 OFFCURVE",
"740 548 OFFCURVE",
"709 595 CURVE",
"738 589 OFFCURVE",
"768 585 OFFCURVE",
"790 585 CURVE SMOOTH",
"1141 585 LINE",
"1141 688 LINE",
"414 688 LINE SMOOTH",
"95 688 OFFCURVE",
"80 623 OFFCURVE",
"80 344 CURVE SMOOTH",
"80 66 OFFCURVE",
"95 0 OFFCURVE",
"414 0 CURVE"
);
},
{
closed = 1;
nodes = (
"212 103 OFFCURVE",
"204 106 OFFCURVE",
"204 344 CURVE SMOOTH",
"204 582 OFFCURVE",
"212 585 OFFCURVE",
"414 585 CURVE SMOOTH",
"617 585 OFFCURVE",
"625 582 OFFCURVE",
"625 344 CURVE SMOOTH",
"625 106 OFFCURVE",
"617 103 OFFCURVE",
"414 103 CURVE SMOOTH"
);
}
);
width = 1208;
},
{
anchors = (
{
name = bottom;
position = "{630, 0}";
},
{
name = top;
position = "{630, 688}";
}
);
layerId = "E7639064-56EC-4BF1-BEDD-A20273C7A444";
paths = (
{
closed = 1;
nodes = (
"1192 0 LINE",
"1192 34 LINE",
"740 34 LINE SMOOTH",
"704 34 OFFCURVE",
"673 32 OFFCURVE",
"659 30 CURVE",
"733 72 OFFCURVE",
"739 155 OFFCURVE",
"740 331 CURVE",
"1138 331 LINE",
"1138 365 LINE",
"740 365 LINE",
"739 535 OFFCURVE",
"731 616 OFFCURVE",
"659 658 CURVE",
"672 656 OFFCURVE",
"703 654 OFFCURVE",
"740 654 CURVE SMOOTH",
"1192 654 LINE",
"1192 688 LINE",
"423 688 LINE SMOOTH",
"122 688 OFFCURVE",
"106 654 OFFCURVE",
"106 344 CURVE SMOOTH",
"106 34 OFFCURVE",
"122 0 OFFCURVE",
"423 0 CURVE"
);
},
{
closed = 1;
nodes = (
"163 34 OFFCURVE",
"142 36 OFFCURVE",
"142 344 CURVE SMOOTH",
"142 652 OFFCURVE",
"163 654 OFFCURVE",
"423 654 CURVE SMOOTH",
"684 654 OFFCURVE",
"704 652 OFFCURVE",
"704 344 CURVE SMOOTH",
"704 36 OFFCURVE",
"684 34 OFFCURVE",
"423 34 CURVE SMOOTH"
);
}
);
width = 1260;
}
);
leftKerningGroup = O;
leftMetricsKey = O;
rightKerningGroup = E;
rightMetricsKey = E;
unicode = 0152;
},
{
color = 6;
glyphname = P;
layers = (
{
anchors = (
{
name = bottom;
position = "{133, 0}";
},
{
name = top;
position = "{328, 688}";
}
);
layerId = UUID0;
paths = (
{
closed = 1;
nodes = (
"151 0 LINE",
"151 274 LINE",
"403 274 LINE",
"580 274 OFFCURVE",
"590 373 OFFCURVE",
"590 481 CURVE SMOOTH",
"590 589 OFFCURVE",
"583 688 OFFCURVE",
"403 688 CURVE SMOOTH",
"115 688 LINE",
"115 0 LINE"
);
},
{
closed = 1;
nodes = (
"151 654 LINE",
"401 654 LINE SMOOTH",
"547 654 OFFCURVE",
"554 587 OFFCURVE",
"554 481 CURVE SMOOTH",
"554 375 OFFCURVE",
"544 308 OFFCURVE",
"401 308 CURVE SMOOTH",
"151 308 LINE"
);
}
);
width = 655;
},
{
anchors = (
{
name = bottom;
position = "{168, 0}";
},
{
name = top;
position = "{318, 688}";
}
);
layerId = "4F93A97B-747D-4721-B098-38A63C534D7A";
paths = (
{
closed = 1;
nodes = (
"285 0 LINE",
"285 209 LINE",
"404 209 LINE",
"594 209 OFFCURVE",
"615 302 OFFCURVE",
"615 448 CURVE SMOOTH",
"615 610 OFFCURVE",
"587 688 OFFCURVE",
"404 688 CURVE SMOOTH",
"51 688 LINE",
"51 0 LINE"
);
},
{
closed = 1;
nodes = (
"285 525 LINE",
"316 525 LINE SMOOTH",
"374 525 OFFCURVE",
"380 521 OFFCURVE",
"380 448 CURVE SMOOTH",
"380 377 OFFCURVE",
"374 372 OFFCURVE",
"316 372 CURVE SMOOTH",
"285 372 LINE"
);
}
);
width = 636;
},
{
anchors = (
{
name = bottom;
position = "{99, 0}";
},
{
name = top;
position = "{204, 688}";
}
);
layerId = "E6BBBBE7-ECAD-4929-840D-43673C7BDEAF";
paths = (
{
closed = 1;
nodes = (
"117 0 LINE",
"117 274 LINE",
"276 274 LINE SMOOTH",
"420 274 OFFCURVE",
"429 371 OFFCURVE",
"429 481 CURVE SMOOTH",
"429 591 OFFCURVE",
"424 688 OFFCURVE",
"276 688 CURVE SMOOTH",
"81 688 LINE",
"81 0 LINE"
);
},
{
closed = 1;
nodes = (
"117 654 LINE",
"275 654 LINE SMOOTH",
"386 654 OFFCURVE",
"393 591 OFFCURVE",
"393 481 CURVE SMOOTH",
"393 375 OFFCURVE",
"385 308 OFFCURVE",
"275 308 CURVE SMOOTH",
"117 308 LINE"
);
}
);
width = 467;
},
{
anchors = (
{
name = bottom;
position = "{111, 0}";
},
{
name = top;
position = "{204, 688}";
}
);
layerId = "7836D3B9-397C-42C1-8084-A98A44B9119A";
paths = (
{
closed = 1;
nodes = (
"220 0 LINE",
"220 206 LINE",
"288 206 LINE SMOOTH",
"427 206 OFFCURVE",
"468 261 OFFCURVE",
"468 447 CURVE SMOOTH",
"468 633 OFFCURVE",
"427 688 OFFCURVE",
"288 688 CURVE SMOOTH",
"40 688 LINE",
"40 0 LINE"
);
},
{
closed = 1;
nodes = (
"220 541 LINE",
"241 541 LINE SMOOTH",
"282 541 OFFCURVE",
"287 536 OFFCURVE",
"287 447 CURVE SMOOTH",
"287 358 OFFCURVE",
"282 353 OFFCURVE",
"241 353 CURVE SMOOTH",
"220 353 LINE"
);
}
);
width = 483;
},
{
anchors = (
{
name = bottom;
position = "{111, 0}";
},
{
name = top;
position = "{240, 688}";
}
);
layerId = "374FF654-0B40-45EE-AE97-0DEB7620D1EC";
paths = (
{
closed = 1;
nodes = (
"158 0 LINE",
"158 246 LINE",
"274 246 LINE SMOOTH",
"421 246 OFFCURVE",
"438 339 OFFCURVE",
"438 467 CURVE SMOOTH",
"438 603 OFFCURVE",
"418 688 OFFCURVE",
"275 688 CURVE SMOOTH",
"64 688 LINE",
"64 0 LINE"
);
},
{
closed = 1;
nodes = (
"158 606 LINE",
"250 606 LINE SMOOTH",
"326 606 OFFCURVE",
"344 583 OFFCURVE",
"344 467 CURVE SMOOTH",
"344 343 OFFCURVE",
"320 328 OFFCURVE",
"250 328 CURVE SMOOTH",
"158 328 LINE"
);
}
);
width = 466;
},
{
anchors = (
{
name = bottom;
position = "{151, 0}";
},
{
name = top;
position = "{325, 688}";
}
);
layerId = "E7A95A6A-7487-49EE-B62A-BA87B06E4B57";
paths = (
{
closed = 1;
nodes = (
"215 0 LINE",
"215 236 LINE",
"396 236 LINE SMOOTH",
"575 236 OFFCURVE",
"606 333 OFFCURVE",
"606 462 CURVE SMOOTH",
"606 600 OFFCURVE",
"571 688 OFFCURVE",
"400 688 CURVE SMOOTH",
"87 688 LINE",
"87 0 LINE"
);
},
{
closed = 1;
nodes = (
"215 580 LINE",
"349 580 LINE SMOOTH",
"469 580 OFFCURVE",
"478 557 OFFCURVE",
"478 462 CURVE SMOOTH",
"478 367 OFFCURVE",
"468 344 OFFCURVE",
"345 344 CURVE SMOOTH",
"215 344 LINE"
);
}
);
width = 649;
},
{
anchors = (
{
name = bottom;
position = "{163, 0}";
},
{
name = top;
position = "{163, 688}";
}
);
layerId = "487ADAF7-57C4-4091-879E-1D750F439591";
paths = (
{
closed = 1;
nodes = (
"119 0 LINE",
"119 248 LINE",
"180 248 LINE SMOOTH",
"304 248 OFFCURVE",
"312 345 OFFCURVE",
"312 468 CURVE SMOOTH",
"312 598 OFFCURVE",
"303 688 OFFCURVE",
"178 688 CURVE SMOOTH",
"42 688 LINE",
"42 0 LINE"
);
},
{
closed = 1;
nodes = (
"119 617 LINE",
"174 617 LINE SMOOTH",
"228 617 OFFCURVE",
"234 573 OFFCURVE",
"234 468 CURVE SMOOTH",
"234 363 OFFCURVE",
"229 319 OFFCURVE",
"175 319 CURVE SMOOTH",
"119 319 LINE"
);
}
);
width = 325;
},
{
anchors = (
{
name = bottom;
position = "{173, 0}";
},
{
name = top;
position = "{173, 688}";
}
);
layerId = "7674DAFD-136A-491A-A3F0-195DB056B53F";
paths = (
{
closed = 1;
nodes = (
"162 0 LINE",
"162 204 LINE",
"185 204 LINE SMOOTH",
"320 204 OFFCURVE",
"337 298 OFFCURVE",
"337 447 CURVE SMOOTH",
"337 611 OFFCURVE",
"313 688 OFFCURVE",
"185 688 CURVE SMOOTH",
"29 688 LINE",
"29 0 LINE"
);
},
{
closed = 1;
nodes = (
"162 562 LINE",
"174 562 LINE SMOOTH",
"199 562 OFFCURVE",
"204 562 OFFCURVE",
"204 447 CURVE SMOOTH",
"204 330 OFFCURVE",
"199 331 OFFCURVE",
"174 331 CURVE SMOOTH",
"162 331 LINE"
);
}
);
width = 346;
},
{
anchors = (
{
name = bottom;
position = "{151, 0}";
},
{
name = top;
position = "{151, 688}";
}
);
layerId = "B5B62657-8F5D-48EE-9125-14A639410D02";
paths = (
{
closed = 1;
nodes = (
"88 0 LINE",
"88 274 LINE",
"164 274 LINE SMOOTH",
"280 274 OFFCURVE",
"287 373 OFFCURVE",
"287 481 CURVE SMOOTH",
"287 589 OFFCURVE",
"284 688 OFFCURVE",
"164 688 CURVE SMOOTH",
"52 688 LINE",
"52 0 LINE"
);
},
{
closed = 1;
nodes = (
"88 654 LINE",
"163 654 LINE SMOOTH",
"246 654 OFFCURVE",
"251 587 OFFCURVE",
"251 481 CURVE SMOOTH",
"251 375 OFFCURVE",
"245 308 OFFCURVE",
"163 308 CURVE SMOOTH",
"88 308 LINE"
);
}
);
width = 301;
},
{
anchors = (
{
name = bottom;
position = "{364, 0}";
},
{
name = top;
position = "{364, 688}";
}
);
layerId = "8EBCA172-37CB-4E59-A5FF-33FE92477777";
paths = (
{
closed = 1;
nodes = (
"324 0 LINE",
"324 211 LINE",
"474 211 LINE SMOOTH",
"680 211 OFFCURVE",
"703 303 OFFCURVE",
"703 449 CURVE SMOOTH",
"703 609 OFFCURVE",
"673 688 OFFCURVE",
"474 688 CURVE SMOOTH",
"58 688 LINE",
"58 0 LINE"
);
},
{
closed = 1;
nodes = (
"324 515 LINE",
"361 515 LINE SMOOTH",
"429 515 OFFCURVE",
"436 510 OFFCURVE",
"436 449 CURVE SMOOTH",
"436 390 OFFCURVE",
"429 383 OFFCURVE",
"361 383 CURVE SMOOTH",
"324 383 LINE"
);
}
);
width = 728;
},
{
anchors = (
{
name = bottom;
position = "{380, 0}";
},
{
name = top;
position = "{380, 688}";
}
);
layerId = "C6199351-AF36-494D-BF00-13EB6406F65F";
paths = (
{
closed = 1;
nodes = (
"233 0 LINE",
"233 241 LINE",
"462 241 LINE SMOOTH",
"667 241 OFFCURVE",
"701 340 OFFCURVE",
"701 464 CURVE SMOOTH",
"701 598 OFFCURVE",
"662 688 OFFCURVE",
"465 688 CURVE SMOOTH",
"108 688 LINE",
"108 0 LINE"
);
},
{
closed = 1;
nodes = (
"233 585 LINE",
"420 585 LINE SMOOTH",
"568 585 OFFCURVE",
"578 558 OFFCURVE",
"578 464 CURVE SMOOTH",
"578 371 OFFCURVE",
"567 344 OFFCURVE",
"416 344 CURVE SMOOTH",
"233 344 LINE"
);
}
);
width = 759;
},
{
anchors = (
{
name = bottom;
position = "{384, 0}";
},
{
name = top;
position = "{384, 688}";
}
);
layerId = "E7639064-56EC-4BF1-BEDD-A20273C7A444";
paths = (
{
closed = 1;
nodes = (
"171 0 LINE",
"171 274 LINE",
"479 274 LINE SMOOTH",
"676 274 OFFCURVE",
"687 373 OFFCURVE",
"687 481 CURVE SMOOTH",
"687 589 OFFCURVE",
"678 688 OFFCURVE",
"479 688 CURVE SMOOTH",
"135 688 LINE",
"135 0 LINE"
);
},
{
closed = 1;
nodes = (
"171 654 LINE",
"477 654 LINE SMOOTH",
"644 654 OFFCURVE",
"651 587 OFFCURVE",
"651 481 CURVE SMOOTH",
"651 375 OFFCURVE",
"639 308 OFFCURVE",
"477 308 CURVE SMOOTH",
"171 308 LINE"
);
}
);
width = 768;
}
);
leftKerningGroup = H;
rightKerningGroup = P;
unicode = 0050;
},
